<?xml version="1.0" encoding="UTF-8" standalone="no"?>
<!-- Created with Inkscape (http://www.inkscape.org/) -->

<svg
   xmlns:dc="http://purl.org/dc/elements/1.1/"
   xmlns:cc="http://creativecommons.org/ns#"
   xmlns:rdf="http://www.w3.org/1999/02/22-rdf-syntax-ns#"
   xmlns:svg="http://www.w3.org/2000/svg"
   xmlns="http://www.w3.org/2000/svg"
   xmlns:sodipodi="http://sodipodi.sourceforge.net/DTD/sodipodi-0.dtd"
   xmlns:inkscape="http://www.inkscape.org/namespaces/inkscape"
   id="svg4136"
   version="1.1"
   inkscape:version="0.91 r13725"
   width="1845"
   height="881.25"
   viewBox="0 0 1845 881.25"
   sodipodi:docname="Anvil.svg">
  <metadata
     id="metadata4142">
    <rdf:RDF>
      <cc:Work
         rdf:about="">
        <dc:format>image/svg+xml</dc:format>
        <dc:type
           rdf:resource="http://purl.org/dc/dcmitype/StillImage" />
        <dc:title></dc:title>
      </cc:Work>
    </rdf:RDF>
  </metadata>
  <defs
     id="defs4140" />
  <sodipodi:namedview
     pagecolor="#ffffff"
     bordercolor="#666666"
     borderopacity="1"
     objecttolerance="10"
     gridtolerance="10"
     guidetolerance="10"
     inkscape:pageopacity="0"
     inkscape:pageshadow="2"
     inkscape:window-width="1600"
     inkscape:window-height="837"
     id="namedview4138"
     showgrid="false"
     inkscape:zoom="0.59837398"
     inkscape:cx="922.5"
     inkscape:cy="440.625"
     inkscape:window-x="-8"
     inkscape:window-y="-8"
     inkscape:window-maximized="1"
     inkscape:current-layer="svg4136" />
  <path
     style="fill:#000000"
     d="m 464.04822,878.90349 c -40.36673,-14.5262 -44.0835,-15.93935 -56.70447,-21.55962 -1.54688,-0.68884 -4.71094,-1.97509 -7.03125,-2.85832 -2.32031,-0.88325 -9.70313,-4.01553 -16.40625,-6.96063 -6.70313,-2.9451 -14.02626,-6.13869 -16.27361,-7.09684 -5.26072,-2.24288 -7.10031,-5.00818 -6.37532,-9.58342 0.72228,-4.5582 0.81814,-37.44419 0.15672,-53.76756 -0.56182,-13.86522 0.79688,-22.49254 3.96939,-25.20441 0.9063,-0.7747 2.91344,-3.29103 4.46032,-5.59185 1.54687,-2.30081 6.82031,-8.41815 11.71875,-13.59407 9.58696,-10.13006 15.35436,-19.26991 13.39561,-21.22866 -3.46798,-3.46798 -63.93123,-3.37735 -96.95261,0.14532 -4.96417,0.52957 -15.08917,1.15977 -22.5,1.40045 -14.72647,0.47824 -27.66302,1.8063 -37.84925,3.88553 -8.78415,1.79306 -15.7767,2.90735 -28.125,4.48185 -15.46557,1.972 -41.06333,7.29226 -48.08576,9.99421 -1.39659,0.53735 -5.49237,1.76441 -9.10174,2.7268 -14.09161,3.75734 -28.69002,8.42759 -30.92909,9.89468 -1.45962,0.95638 -3.32517,1.3385 -4.92852,1.00949 -1.41894,-0.29117 -5.02262,-0.98049 -8.00817,-1.53183 -2.98556,-0.55133 -9.313683,-2.93397 -14.062504,-5.29473 -4.748819,-2.36076 -13.452237,-5.96455 -19.340928,-8.00842 -5.888693,-2.04386 -11.859781,-4.3124 -13.269086,-5.04117 -1.409306,-0.72879 -7.560035,-3.18327 -13.668288,-5.45442 -6.108252,-2.27115 -16.168414,-6.11236 -22.355914,-8.53604 -6.1875,-2.42366 -13.063382,-4.97016 -15.279738,-5.6589 C 1.1473516,702.56414 -0.63386546,699.08457 0.46635656,685.8675 0.85660252,681.17944 1.0217918,674.8125 0.83344399,671.71875 0.64509611,668.625 0.48598857,660.03742 0.47987166,652.63522 L 0.46875,639.1767 5.6890394,634.35397 c 3.9254872,-3.62653 6.8321196,-5.35687 11.7187506,-6.97627 3.574153,-1.18445 9.662522,-3.3728 13.52971,-4.863 3.867187,-1.4902 9.336692,-3.40697 12.154455,-4.25948 5.793913,-1.75293 28.184811,-13.86138 34.664978,-18.74597 2.350875,-1.77204 8.914942,-6.32125 14.586817,-10.10936 23.86568,-15.93933 40.52919,-32.283 68.15981,-66.85155 13.90382,-17.39501 23.95709,-34.17037 34.23239,-57.12178 1.14384,-2.55492 3.99149,-8.90858 6.32813,-14.11924 2.33663,-5.21067 4.24842,-9.95172 4.24842,-10.53567 0,-0.58395 1.24449,-4.96912 2.76555,-9.74481 4.49667,-14.11836 9.30999,-33.60531 10.26796,-41.57036 0.49117,-4.08388 1.60659,-12.27679 2.4787,-18.20648 3.60219,-24.49213 -0.24033,-81.36623 -6.65804,-98.54778 -2.09011,-5.59564 -5.05456,-18.45278 -5.08186,-22.04056 -0.029,-3.81293 -1.21925,-4.68897 -8.74077,-6.43333 -3.43462,-0.79654 -7.29605,-1.84795 -8.58096,-2.33647 -1.2849,-0.48853 -7.30489,-1.99801 -13.37776,-3.35443 -6.07287,-1.35642 -14.83845,-3.67424 -19.47907,-5.1507 -4.64063,-1.47648 -12.11419,-3.32249 -16.60793,-4.10225 -4.49372,-0.77976 -14.61872,-3.08599 -22.5,-5.12496 -7.88126,-2.03896 -17.49363,-4.20895 -21.36082,-4.8222 -23.96204,-3.79982 -29.378797,-6.82446 -27.13627,-15.15258 0.750587,-2.78747 0.728095,-4.99865 -0.08534,-8.38943 -0.845399,-3.52402 -0.847175,-5.97219 -0.0076,-10.4342 1.064691,-5.6582 1.237039,-12.95848 0.750281,-31.78019 -0.396303,-15.32401 -1.986494,-14.37725 33.510154,-19.95121 5.15625,-0.80967 13.38281,-1.47361 18.28125,-1.4754 4.89843,-0.002 13.125,-0.66429 18.28125,-1.47221 5.15625,-0.80792 12.53906,-1.83411 16.40625,-2.28041 3.86718,-0.44631 11.03906,-1.66997 15.9375,-2.71926 4.89843,-1.04929 11.22656,-1.91239 14.0625,-1.918 5.062,-0.01 24.61486,-2.93886 44.0625,-6.60016 5.41406,-1.01928 11.35573,-1.8529 13.2037,-1.8525 3.91924,8.5e-4 37.99207,-4.87198 49.6088,-7.09467 4.38281,-0.83859 9.44531,-1.73404 11.25,-1.9899 1.80468,-0.25586 10.24218,-1.52398 18.75,-2.81806 8.50781,-1.29408 18,-2.68704 21.09375,-3.09546 16.02506,-2.115543 34.3353,-4.772408 38.90625,-5.64538 2.83593,-0.541622 14.85937,-2.430779 26.71875,-4.198138 11.85937,-1.767358 32.10937,-4.90246 45,-6.966894 12.89062,-2.064433 28.96147,-4.396679 35.71299,-5.182769 6.75152,-0.786089 15.61089,-2.033964 19.6875,-2.773055 4.07661,-0.739091 11.20888,-1.830074 15.84951,-2.424408 4.64062,-0.594333 15.60937,-2.112564 24.375,-3.373847 8.76562,-1.261282 17.625,-2.51871 19.6875,-2.794283 2.0625,-0.275573 5.85937,-0.878525 8.4375,-1.339893 2.57812,-0.461369 9.32812,-1.495469 15,-2.298001 24.387,-3.450595 340.92354,-52.233305 346.875,-53.458292 3.60937,-0.742916 10.78125,-2.016897 15.9375,-2.8310686 5.15625,-0.8141716 12.11718,-2.1022391 15.46875,-2.8623724 12.73284,-2.8878082 21.42543,-1.6343381 46.40622,6.691784 23.2537,7.75045 82.835,24.191997 133.5938,36.865394 3.8672,0.965554 12.0937,3.115816 18.2812,4.77836 10.8792,2.923166 29.4211,7.479754 46.875,11.519312 10.9535,2.535087 12.3089,2.453659 23.4375,-1.408038 5.1563,-1.789249 13.5938,-3.948439 18.75,-4.798201 5.1563,-0.849763 14.0157,-2.596539 19.6875,-3.881726 5.6719,-1.285187 14.5313,-3.006456 19.6875,-3.825043 5.1563,-0.818587 12.75,-2.28552 16.875,-3.25985 7.642,-1.805038 22.869,-4.660907 34.6875,-6.505725 3.6094,-0.563408 11.0754,-1.18359 16.591,-1.378184 5.5157,-0.194595 10.4491,-0.613757 10.9631,-0.931475 0.5141,-0.317717 6.9081,-1.20655 14.209,-1.975186 11.1786,-1.176875 27.13,-4.035628 44.4869,-7.972794 5.0969,-1.156148 40.7288,-5.18625 66.0938,-7.475461 9.1497,-0.825769 14.8816,-1.634325 26.7187,-3.769048 2.5782,-0.46494 8.9063,-1.299192 14.0625,-1.853894 5.1563,-0.554702 14.4375,-1.813311 20.625,-2.796911 6.1875,-0.983599 16.9453,-2.2215093 23.9063,-2.7509127 20.5259,-1.5610644 33.0605,-2.8770816 36.5625,-3.8387019 1.8047,-0.495562 6.5202,-0.9033745 10.479,-0.9062501 3.9588,-0.00288 10.2869,-0.4080323 14.0625,-0.9003482 3.7756,-0.492316 20.1538,-1.099619 36.396,-1.3495624 16.2422,-0.2499434 33.3281,-0.9195448 37.9687,-1.48800301 6.0475,-0.740783 11.8899,-0.75311204 20.625,-0.0435239 6.7032,0.54452022 22.3125,1.19957732 34.6875,1.45568272 12.375,0.2561053 26.5078,0.6754661 31.4063,0.931913 4.8984,0.2564467 12.9786,0.6370606 17.9559,0.8458086 13.4212,0.5628748 16.3438,3.4023493 13.5556,13.1697999 -0.7405,2.594216 -1.8124,6.476319 -2.3818,8.626896 -1.4602,5.513586 -11.3379,20.11469 -19.2646,28.476296 -3.6883,3.890666 -8.3959,9.211765 -10.4612,11.824662 -2.0654,2.612899 -5.716,6.81244 -8.1125,9.332313 -2.3964,2.519874 -7.383,7.956588 -11.0814,12.081588 -3.6983,4.125 -8.024,8.192044 -9.6126,9.037866 -1.5885,0.845822 -5.0096,4.277494 -7.6022,7.625934 -10.8211,13.97556 -31.942,35.333 -41.7023,42.16939 -2.597,1.81895 -14.5321,12.13211 -28.4738,24.60431 -5.7638,5.15625 -12.3735,10.85156 -14.6883,12.65625 -2.3148,1.80469 -5.056,4.17497 -6.0916,5.26729 -3.1798,3.35394 -30.0279,27.72995 -34.6955,31.5008 -1.5468,1.24971 -5.5547,4.23361 -8.9062,6.63091 -3.3516,2.39729 -8.2031,6.27921 -10.7813,8.62648 -2.5781,2.34726 -8.8178,7.0675 -13.866,10.48941 -5.0481,3.42192 -10.9544,7.75973 -13.125,9.63957 -2.1706,1.87985 -7.5324,5.91048 -11.9152,8.95697 -4.3828,3.04648 -10.5,7.49211 -13.5938,9.87915 -3.0937,2.38705 -7.7842,5.49781 -10.4234,6.9128 -2.6391,1.415 -8.5327,5.52896 -13.0969,9.14215 -4.5642,3.61318 -10.4011,7.63493 -12.971,8.93721 -2.57,1.30227 -8.0107,4.65383 -12.0904,7.4479 -4.0798,2.79408 -9.1617,5.96514 -11.293,7.04679 -2.1314,1.08166 -5.7737,3.27639 -8.094,4.87718 -2.3203,1.60078 -8.6485,5.27713 -14.0625,8.16967 -11.6984,6.25003 -20.8283,11.40059 -34.4655,19.44349 -16.0381,9.45884 -30.2032,16.73848 -36.7845,18.90401 -3.3516,1.1028 -7.599,2.98637 -9.4387,4.18573 -1.8397,1.19936 -6.0265,3.53432 -9.304,5.1888 -3.2775,1.65448 -9.3661,5.15399 -13.5301,7.77668 -4.164,2.62269 -14.7006,8.38029 -23.4144,12.79464 -8.7139,4.41436 -16.2723,8.7117 -16.7964,9.54963 -2.6804,4.28567 18.385,58.73478 28.4269,73.47649 1.4049,2.0625 3.676,5.85938 5.0467,8.4375 1.3709,2.57813 4.5967,7.64063 7.1686,11.25 2.572,3.60938 6.0905,8.67188 7.819,11.25 1.7284,2.57813 4.3017,5.74219 5.7183,7.03125 1.4164,1.28906 4.1892,4.66406 6.1614,7.5 3.8897,5.59289 25.2849,27.02874 31.3614,31.42086 2.0625,1.49078 6.7032,5.51877 10.3125,8.95109 3.6952,3.51392 9.2208,7.58223 12.6467,9.31128 3.3463,1.68889 9.8587,5.60867 14.4719,8.71062 4.6133,3.10193 11.5785,7.10736 15.4783,8.90095 3.8998,1.79358 8.1453,3.99387 9.4344,4.88954 1.289,0.89566 5.8946,3.15953 10.2345,5.03081 9.9544,4.29215 10.6959,4.99725 13.8017,13.12478 l 2.5544,6.68497 -1.3422,22.03443 c -0.7382,12.11893 -1.3422,27.59125 -1.3422,34.38295 0,17.70718 -1.8738,19.64809 -22.1034,22.89434 -6.2873,1.00891 -11.6949,1.9973 -12.0171,2.19644 -0.3222,0.19913 -6.9097,1.25663 -14.6389,2.34999 -7.7292,1.09337 -17.2171,2.5923 -21.0843,3.33098 -28.8162,5.50414 -38.0226,7.05206 -45,7.5661 -4.3828,0.32289 -10.9219,1.18244 -14.5313,1.91012 -5.6819,1.14552 -50.878,7.87225 -52.8927,7.87225 -0.4023,0 -2.5879,-1.25795 -4.8568,-2.79544 -2.269,-1.53749 -5.0394,-2.80311 -6.1566,-2.8125 -1.9617,-0.0165 -9.7254,-3.77364 -28.4376,-13.76197 -4.8985,-2.61474 -12.7031,-6.23726 -17.3438,-8.05008 -24.7098,-9.65269 -33.3385,-12.86406 -38.4251,-14.30096 -3.0869,-0.87203 -6.8838,-2.24391 -8.4375,-3.04862 -2.7726,-1.43603 -4.5207,-1.96237 -25.3249,-7.62502 -5.6718,-1.54382 -12.1585,-3.46472 -14.4147,-4.26867 -2.2563,-0.80396 -5.4203,-1.46698 -7.0312,-1.47338 -1.611,-0.007 -6.7259,-1.07936 -11.3666,-2.38434 -7.8935,-2.21974 -17.6344,-3.87079 -35.6728,-6.04643 -4.1513,-0.5007 -9.8466,-1.34705 -12.6562,-1.88076 -4.4139,-0.83844 -49.7004,-3.40853 -61.8272,-3.50881 -31.0386,-0.25663 -84.30743,5.26375 -111.00012,11.5032 -7.78584,1.81997 -16.26553,3.76843 -18.84365,4.32992 -11.8464,2.58002 -35.49147,9.61164 -47.15887,14.02421 -7.06263,2.67106 -15.58332,5.80256 -18.93488,6.95888 -34.61138,11.94131 -89.04876,41.58258 -120.46875,65.5955 -4.125,3.15255 -8.6008,6.42013 -9.94621,7.26127 -1.34543,0.84115 -4.33938,3.14056 -6.65324,5.10981 -2.31387,1.96924 -7.09133,5.90075 -10.6166,8.73669 -17.36446,13.96902 -48.98886,45.04957 -57.14625,56.16348 -9.631,13.12161 -11.92955,14.17612 -38.91895,17.85497 -15.09192,2.05713 -21.13881,3.00108 -36.5625,5.70756 -8.50782,1.49292 -18.21094,3.17758 -21.5625,3.74371 -16.12824,2.72429 -27.68989,4.73756 -49.6875,8.65224 -29.61329,5.26995 -40.38691,7.16807 -46.40625,8.17594 -2.57813,0.43168 -6.17049,1.41959 -7.98303,2.19536 -3.06928,1.31365 -3.71287,1.26029 -9.375,-0.77727 z m 30.01428,-22.43592 c 7.34312,-1.20918 41.46399,-7.33879 66.09375,-11.87334 5.67187,-1.04425 13.6875,-2.4567 17.8125,-3.13879 54.52373,-9.01573 65.80104,-11.18466 67.68774,-13.01817 1.83512,-1.78337 7.53333,-17.48904 8.71344,-24.01634 0.60139,-3.32631 1.90302,-8.17787 2.89252,-10.78125 2.20679,-5.80607 2.287,-8.82416 0.25521,-9.60384 -1.64086,-0.62966 -29.1627,2.90984 -35.48641,4.56379 -3.32343,0.86924 -14.39526,2.81533 -44.53125,7.82725 -4.89844,0.81466 -11.58832,2.10861 -14.8664,2.87545 -3.27808,0.76684 -8.97339,1.79577 -12.65625,2.28652 -3.68285,0.49076 -12.60235,1.95211 -19.8211,3.24747 -7.21875,1.29535 -19.45313,3.42919 -27.1875,4.74187 -22.59154,3.83424 -21.22392,2.13568 -23.06466,28.64588 -1.52463,21.9578 -2.30347,20.95424 14.15841,18.2435 z m -32.55967,-10.37382 c 4.97231,-28.09711 3.76364,-34.39871 -7.28408,-37.97671 -3.60938,-1.16897 -8.1589,-2.92691 -10.11007,-3.90656 -1.95116,-0.97965 -6.80272,-2.9839 -10.78125,-4.45388 -3.97852,-1.46999 -11.24149,-4.24023 -16.13993,-6.15612 -40.12585,-15.69405 -42.08813,-14.6833 -39.11843,20.14952 1.26063,14.7866 1.22111,14.75018 24.58718,22.65495 4.64062,1.56993 11.8125,4.23531 15.9375,5.92306 4.125,1.68775 11.29687,4.41442 15.9375,6.05927 4.64062,1.64484 11.17969,4.00248 14.53125,5.23919 10.10559,3.72893 10.48839,3.49715 12.44033,-7.53272 z m 227.76275,-55.9569 c 5.818,-5.25285 11.50724,-10.52629 12.64278,-11.71875 1.13554,-1.19245 2.63195,-2.1681 3.32536,-2.1681 0.69341,0 2.9284,-1.73283 4.96664,-3.85072 2.03824,-2.11789 7.63352,-7.07492 12.43396,-11.01562 30.99507,-25.44397 62.91607,-46.94454 90.64693,-61.05575 7.73437,-3.93574 15.75,-8.06211 17.8125,-9.16972 27.13433,-14.57175 86.01573,-35.65866 115.3125,-41.2963 2.57812,-0.49611 12.28125,-2.38577 21.5625,-4.19925 28.80581,-5.62838 39.63385,-7.04839 69.60135,-9.12764 18.1961,-1.2625 73.6301,-1.20774 81.5645,0.0805 3.4838,0.56566 10.9748,1.40323 16.6466,1.86124 20.737,1.67456 35.6191,4.12659 63.2813,10.4264 4.3828,0.99815 9.8672,2.21707 12.1875,2.70873 2.3203,0.49165 6.75,1.53758 9.8437,2.32428 3.0938,0.7867 8.1563,2.06239 11.25,2.83486 3.0938,0.77249 8.7891,2.43463 12.6563,3.69364 3.8672,1.25903 13.7282,4.45687 21.9134,7.10631 8.1851,2.64945 16.4084,5.71769 18.2738,6.81832 4.9983,2.94911 22.1163,10.70267 29.6565,13.43293 3.6094,1.30693 8.7233,3.59718 11.3641,5.08947 10.6687,6.02851 11.3736,4.79191 11.5477,-20.25761 0.2042,-29.38048 -3.2357,-35.9325 -29.943,-57.03396 -3.3516,-2.64806 -8.6561,-6.92951 -11.7878,-9.51431 -3.1318,-2.5848 -7.5614,-5.8136 -9.8438,-7.17512 -2.2823,-1.36153 -8.5793,-5.33695 -13.9934,-8.83427 -8.6061,-5.55928 -15.2587,-9.44938 -36.1719,-21.15145 -6.2604,-3.50299 -42.7566,-18.21854 -58.9844,-23.78288 -17.7661,-6.09187 -53.5287,-13.68594 -75.1212,-15.95179 -7.6677,-0.80463 -17.5272,-1.8717 -21.91,-2.37127 -53.0043,-6.04169 -140.5515,10.20947 -192.68356,35.76734 -10.32752,5.06309 -20.50247,9.81429 -22.611,10.55823 -2.10853,0.74393 -7.49229,3.7128 -11.96392,6.59748 -4.47163,2.88469 -10.32793,6.3458 -13.014,7.69136 -6.03159,3.02147 -6.47765,3.34262 -34.71035,24.99116 -13.62463,10.44723 -18.30302,14.41845 -27.21117,23.09803 -13.8239,13.46921 -17.83029,17.7512 -22.99135,24.57297 -3.98954,5.27328 -13.91665,16.48633 -19.83725,22.40694 -0.91381,0.91381 -2.84558,3.70832 -4.29283,6.21005 -1.44725,2.50173 -5.85629,9.40016 -9.79786,15.32984 -9.46618,14.24087 -17.98956,29.14947 -23.58302,41.25 -2.50266,5.41407 -5.78052,12.375 -7.28416,15.46875 -1.50365,3.09375 -3.26928,7.3125 -3.92363,9.375 -0.65435,2.0625 -1.73112,4.58216 -2.39282,5.59923 -0.66169,1.01707 -1.20308,2.78514 -1.20308,3.92904 0,1.1439 -0.40626,2.3309 -0.90278,2.63778 -0.49654,0.30687 -1.31449,1.91381 -1.81769,3.57095 -0.50318,1.65715 -1.56613,4.79064 -2.3621,6.96331 -1.40012,3.82174 -1.19568,6.83094 0.46408,6.83094 0.44325,0 5.56608,-4.29779 11.38407,-9.55065 z m -183.81623,0.23903 c 9.53387,-1.77932 13.35905,-2.43463 41.5819,-7.12349 15.29863,-2.54167 48.73627,-8.34032 56.25,-9.75469 19.76545,-3.72064 39.05024,-7.14617 45.46875,-8.07657 6.02637,-0.87354 18.0554,-4.19832 19.54038,-5.40088 1.37009,-1.10952 15.52759,-29.79278 17.60791,-35.67383 1.41582,-4.00254 0.8421,-3.04454 19.16583,-32.00267 12.55649,-19.84382 14.97653,-23.00006 39.78064,-51.88228 5.74925,-6.6945 32.13326,-31.86496 35.97053,-34.31605 1.8719,-1.19569 6.50935,-4.92175 10.30544,-8.28014 9.93129,-8.78618 26.10389,-20.42287 38.65317,-27.81217 5.97721,-3.51952 13.36002,-8.0836 16.40625,-10.14241 6.85646,-4.63398 14.43555,-8.65956 16.31239,-8.66421 0.77754,-0.002 2.68946,-0.78149 4.2487,-1.73236 1.55925,-0.95087 4.51238,-2.26082 6.5625,-2.91099 2.05014,-0.65016 7.80609,-3.43466 12.79101,-6.18777 4.98493,-2.75311 11.52399,-5.71239 14.53125,-6.5762 3.00726,-0.86379 11.16306,-3.57244 18.124,-6.01922 15.31401,-5.38288 21.89081,-7.34142 28.36753,-8.44773 2.70253,-0.46163 12.92935,-2.70815 22.72622,-4.99227 17.62791,-4.1099 22.18997,-4.70567 63.28125,-8.26392 6.4453,-0.55812 14.25,-1.01332 17.3438,-1.01155 15.8302,0.009 38.604,1.18615 47.3437,2.44705 5.4141,0.7811 14.6953,2.08207 20.625,2.89105 5.9297,0.80898 16.2656,2.75547 22.9688,4.32551 6.7031,1.57005 14.9296,3.49129 18.2812,4.26942 3.3516,0.77812 8.4141,2.17658 11.25,3.10769 2.8359,0.93111 6.8438,2.12105 8.9063,2.6443 7.348,1.86421 25.4682,8.49632 35.1562,12.8674 5.4141,2.44274 13.4816,5.83342 17.9278,7.53485 8.5004,3.25281 12.7404,5.38099 24.2597,12.17663 3.8672,2.28139 8.4716,4.79859 10.2321,5.59379 4.1726,1.88474 26.0254,16.44823 33.8304,22.54573 3.3516,2.61834 8.1645,6.17273 10.6955,7.89863 3.8987,2.65861 11.5887,9.14108 25.4148,21.424 1.5558,1.38227 6.956,6.9292 12.0003,12.32652 l 9.1716,9.8133 7.687,-1.64894 c 4.2279,-0.90692 14.0152,-2.6415 21.7495,-3.85463 7.7344,-1.21312 16.5938,-2.84716 19.6875,-3.6312 3.0938,-0.78403 10.0547,-2.11374 15.4688,-2.9549 5.4141,-0.84117 12.375,-2.12774 15.4687,-2.85906 3.0938,-0.73131 13.2188,-2.66151 22.5,-4.28932 24.1563,-4.23672 27.5445,-6.26637 19.4532,-11.65311 -17.3279,-11.53585 -30.6342,-20.87345 -38.7222,-27.17294 -5.2962,-4.125 -12.1975,-9.4579 -15.3364,-11.8509 -14.1512,-10.78851 -43.5614,-43.81262 -51.2291,-57.5241 -1.73,-3.09375 -5.0992,-8.36719 -7.487,-11.71875 -6.1044,-8.56817 -9.4358,-14.81339 -14.3825,-26.96194 -2.3639,-5.80563 -5.2113,-12.34469 -6.3274,-14.53125 -1.8682,-3.6602 -4.7891,-11.38692 -10.7169,-28.35056 -2.1464,-6.14238 -5.3606,-18.32603 -9.7695,-37.03125 -1.033,-4.38281 -2.3047,-12.1875 -2.8258,-17.34375 -0.5211,-5.15625 -1.4044,-13.80469 -1.9628,-19.21875 -2.07,-20.06932 0.8344,-67.37678 5.2664,-85.78125 1.2417,-5.15625 3.327,-14.31874 4.6343,-20.36108 1.3072,-6.04235 2.963,-12.37048 3.6795,-14.0625 0.7166,-1.69203 2.5637,-6.45142 4.1047,-10.57642 1.541,-4.125 3.7599,-9.66697 4.9309,-12.3155 4.4023,-9.95693 5.8246,-9.91822 -47.3718,-1.28905 -9.2813,1.50554 -21.3047,3.41659 -26.7188,4.24678 -5.4141,0.83019 -15.75,2.50696 -22.9687,3.72616 -7.2188,1.2192 -18.3985,2.92338 -24.8438,3.78707 -6.4453,0.86368 -13.4176,1.92914 -15.4941,2.36767 -2.0763,0.43855 -9.6701,1.66853 -16.875,2.73331 -22.5646,3.33476 -31.4016,4.77357 -46.3809,7.55148 -14.4701,2.68351 -29.1023,5.03297 -75.4687,12.11786 -41.6019,6.35685 -48.254,7.4127 -65.1563,10.34199 -18.29925,3.17138 -30.81094,5.17688 -44.0625,7.06278 -4.89844,0.69711 -14.60156,2.16206 -21.5625,3.25543 -24.03221,3.77479 -43.7367,6.66099 -83.4375,12.22146 -21.91406,3.06928 -48.07031,6.83469 -58.125,8.36759 -17.55554,2.67645 -49.7275,7.34275 -68.4375,9.92633 -22.40025,3.09314 -38.54555,5.47066 -57.1875,8.42126 -11.08594,1.75466 -23.95313,3.64628 -28.59375,4.20358 -4.64063,0.55732 -9.91406,1.38296 -11.71875,1.83476 -1.80469,0.4518 -6.02344,1.092 -9.375,1.42267 -18.00757,1.77666 -43.05953,5.93255 -45.62591,7.56893 -2.67271,1.70416 -1.0304,8.31019 5.81365,23.38494 4.60487,10.1427 14.47174,40.9564 17.86175,55.78125 1.82757,7.99219 4.1278,17.90625 5.11162,22.03125 3.91415,16.4115 7.8301,55.20794 7.6648,75.9375 -0.1769,22.18485 -3.56729,57.82382 -7.22406,75.9375 -2.39858,11.8813 -6.1763,28.80278 -7.11607,31.875 -0.47318,1.54688 -2.37907,7.875 -4.2353,14.0625 -6.21761,20.72551 -15.37507,45.48131 -19.00835,51.38619 -1.01145,1.64384 -3.10084,6.15287 -4.64308,10.02006 -1.54224,3.86719 -5.22379,11.25 -8.18121,16.40625 -2.95741,5.15625 -6.72057,11.71399 -8.36255,14.57274 -6.39767,11.13857 -26.86451,40.84143 -29.18016,42.3482 -2.2204,1.44479 -30.86325,32.91767 -31.1705,34.25027 -0.76429,3.31492 1.05955,3.48674 13.11972,1.23592 z m -37.09628,-4.98526 c 11.89276,-10.59799 35.27348,-35.9676 46.00818,-49.92187 7.38101,-9.59473 28.45125,-42.97374 28.45125,-45.07184 0,-0.30627 4.48238,-9.48572 9.96083,-20.39876 11.14719,-22.20511 14.99353,-31.56863 19.70377,-47.9669 1.7773,-6.1875 4.04602,-13.89753 5.04159,-17.1334 2.06303,-6.70533 7.82081,-34.5429 9.91618,-47.94247 6.20626,-39.6881 5.17086,-87.56363 -2.73889,-126.64288 -1.30455,-6.44531 -2.67344,-13.80244 -3.04198,-16.34917 -0.36853,-2.54673 -1.64934,-6.76942 -2.84622,-9.38375 -1.19687,-2.61433 -2.81857,-7.80731 -3.60376,-11.53995 -0.78518,-3.73265 -2.05006,-8.27639 -2.81085,-10.09721 -0.76079,-1.82084 -1.85429,-5.90821 -2.43,-9.08307 -0.57572,-3.17486 -2.02153,-7.69749 -3.21291,-10.05029 -1.19138,-2.35279 -2.84117,-6.55292 -3.6662,-9.3336 -2.5607,-8.63072 -6.22758,-17.15109 -10.57413,-24.57015 l -4.17483,-7.12593 -10.96442,-2.53951 c -6.03044,-1.39673 -17.71443,-4.18886 -25.96443,-6.20472 -8.25,-2.01587 -22.80469,-5.42139 -32.34375,-7.56783 -9.53906,-2.14644 -20.92969,-4.71368 -25.3125,-5.70498 -4.38281,-0.99131 -10.71094,-2.3713 -14.0625,-3.06665 -3.35156,-0.69535 -9.46875,-2.09978 -13.59375,-3.12096 -16.26715,-4.02703 -28.35296,-6.65846 -33.08212,-7.20294 -2.72641,-0.31389 -7.57798,-1.39567 -10.78125,-2.40396 -3.20327,-1.00828 -10.67569,-2.88901 -16.60538,-4.1794 -5.92969,-1.29039 -15.21094,-3.36131 -20.625,-4.60205 -5.41406,-1.24073 -19.39812,-4.37794 -31.07568,-6.97159 -11.67756,-2.59364 -23.05678,-5.20709 -25.28716,-5.80767 -2.23037,-0.60058 -8.28538,-1.84969 -13.45556,-2.7758 -5.17019,-0.92611 -12.98629,-2.54381 -17.3691,-3.59489 -27.10606,-6.50053 -27.55621,-6.35705 -23.91492,7.6228 0.76866,2.95111 1.8125,8.84053 2.31964,13.08759 0.50714,4.24706 1.5939,10.04224 2.41501,12.87818 3.78377,13.06814 4.87985,67.06137 1.66525,82.03125 -0.77507,3.60937 -1.74785,10.35937 -2.16174,15 -1.56268,17.52121 -5.61111,34.64774 -10.95238,46.3331 -1.78605,3.90742 -4.24444,10.4794 -5.4631,14.6044 -14.47064,48.98122 -59.17584,109.88662 -109.12146,148.66467 -4.19676,3.2584 -11.4826,8.40237 -24.94255,17.61003 -6.551921,4.48203 -22.463777,13.42146 -32.487215,18.25163 -11.694612,5.63549 -10.663547,6.34502 29.205965,20.09834 34.47908,11.89384 33.20013,11.55759 36.76194,9.66533 17.3391,-9.21158 69.23699,-42.91071 90.26931,-58.61504 5.15625,-3.85005 13.59375,-9.83742 18.75,-13.30527 5.15625,-3.46786 11.0625,-7.65233 13.125,-9.29882 2.0625,-1.64649 5.22656,-3.73538 7.03125,-4.64196 1.80469,-0.90658 7.92187,-5.09807 13.59375,-9.31442 5.67187,-4.21636 15.79687,-11.4157 22.5,-15.99855 6.70312,-4.58284 15.35156,-10.69906 19.21875,-13.59157 16.49949,-12.34104 19.70765,-14.55099 29.97566,-20.64891 5.94308,-3.52944 13.54778,-8.35041 16.89934,-10.71328 28.54726,-20.12594 45.6195,-28.04331 62.53612,-29.00156 5.77768,-0.32727 14.02943,-1.20969 18.33722,-1.96089 8.99245,-1.56816 12.00297,-1.05385 18.703,3.19518 2.39544,1.51916 5.91115,3.19167 7.81268,3.7167 4.6319,1.27893 8.69448,4.19875 12.36489,8.88675 1.66933,2.13215 4.31558,5.37929 5.88055,7.21587 2.99736,3.51757 9.32508,18.93561 11.2156,27.32781 0.61429,2.72688 2.18414,8.26554 3.48856,12.30814 3.30454,10.24127 1.75365,33.3568 -3.11534,46.43331 -1.22281,3.28405 -2.22328,6.67656 -2.22328,7.53891 0,3.45734 -6.74778,25.10664 -8.63155,27.69312 -1.1078,1.52103 -3.38682,5.58598 -5.06448,9.03322 -3.31176,6.80492 -13.1764,24.41633 -16.0641,28.67934 -5.14876,7.60094 -8.73033,13.44452 -10.8613,17.72101 -1.305,2.61888 -4.48028,7.28387 -7.0562,10.36666 -2.57591,3.08279 -5.68705,7.49254 -6.91365,9.79943 -2.46822,4.64209 -12.443,17.64593 -20.40872,26.60628 -2.83594,3.19005 -6.84375,8.02268 -8.90625,10.73919 -2.0625,2.7165 -8.34962,9.47498 -13.97138,15.01883 -11.05021,10.89709 -11.18739,11.3104 -4.53455,13.66268 2.44388,0.8641 8.66218,3.20126 13.81843,5.19369 13.96346,5.39564 29.7104,11.00137 40.78125,14.51766 5.41406,1.7196 12.79687,4.19103 16.40625,5.49209 8.21938,2.9628 7.0277,3.11334 12.25932,-1.54872 z M 110.2215,718.62574 c 7.51187,-11.46456 4.35919,-32.80063 -5.39729,-36.52667 -3.7705,-1.43997 -10.863273,-4.45101 -15.76171,-6.69119 -4.898438,-2.24019 -12.492188,-4.99757 -16.875,-6.12753 -4.382813,-1.12996 -9.447789,-2.79257 -11.255504,-3.6947 -1.807715,-0.90212 -7.081152,-2.9244 -11.71875,-4.49393 -4.637598,-1.56954 -12.143702,-4.14475 -16.680232,-5.72271 -14.850877,-5.16563 -15.093482,-4.9313 -15.462256,14.93441 -0.348368,18.76657 -2.233171,16.71655 24.647992,26.8086 23.519258,8.8299 45.033605,17.02127 55.3125,21.05971 8.48551,3.33384 11.24117,3.42869 13.19025,0.45401 z m 36.16738,-4.31517 c 4.82205,-1.56074 11.29862,-3.41065 14.39237,-4.11092 3.09375,-0.70027 10.05469,-2.33623 15.46875,-3.63546 15.08595,-3.62022 25.76618,-5.30406 36.5625,-5.7644 5.41406,-0.23085 12.375,-1.1299 15.46875,-1.9979 3.09375,-0.868 7.94531,-1.89067 10.78125,-2.2726 2.83594,-0.38193 7.89844,-1.1963 11.25,-1.8097 3.77152,-0.69026 9.84505,-0.89981 15.9375,-0.54988 5.41406,0.31097 13.42969,0.14927 17.8125,-0.35933 4.38281,-0.5086 14.08594,-1.38094 21.5625,-1.93854 7.47656,-0.5576 16.54687,-1.36949 20.15625,-1.80422 10.96852,-1.32109 69.35052,0.43057 75.29649,2.25916 9.85668,3.03128 13.66711,-0.30327 28.58221,-25.01254 1.96142,-3.24939 6.56004,-10.75955 10.21916,-16.68924 6.19413,-10.03774 16.27555,-29.08009 21.1118,-39.87717 2.27618,-5.08164 5.90236,-15.76098 8.10605,-23.87283 0.77041,-2.83594 2.05386,-7.47656 2.8521,-10.3125 4.52106,-16.06207 3.96673,-26.56865 -2.4731,-46.875 -9.74144,-30.71713 -43.51587,-43.59434 -71.77571,-27.36598 -3.4617,1.98789 -7.77056,4.19386 -9.57525,4.90214 -3.91192,1.53531 -13.3662,7.30913 -17.44983,10.6568 -1.60521,1.31591 -5.82396,4.12706 -9.375,6.24698 -3.55103,2.11993 -8.14392,4.97647 -10.20642,6.34786 -2.0625,1.3714 -6.61924,3.97001 -10.12608,5.7747 -3.50684,1.80469 -10.0459,6.12372 -14.53125,9.59785 -4.48535,3.47413 -12.16298,9.13663 -17.06142,12.58333 -4.89844,3.4467 -15.64209,11.1511 -23.8748,17.1209 -8.2327,5.9698 -17.09207,12.06842 -19.6875,13.55251 -2.59542,1.48409 -6.40645,4.03018 -8.46895,5.65799 -2.0625,1.62782 -6.70312,4.8292 -10.3125,7.1142 -3.60938,2.285 -10.51195,7.12171 -15.33907,10.74826 -4.8271,3.62654 -13.30443,9.75777 -18.83851,13.62496 -5.53407,3.86719 -11.44954,8.21157 -13.14549,9.65419 -1.69596,1.44261 -4.82018,3.49756 -6.94274,4.56654 -2.12256,1.06899 -7.63826,4.69311 -12.25713,8.0536 -4.61886,3.36049 -13.05636,8.72943 -18.75,11.931 -5.69363,3.20155 -12.54626,7.12789 -15.22805,8.7252 -2.6818,1.59732 -6.58915,3.41748 -8.68301,4.04482 -4.42264,1.32505 -5.12012,2.02461 -6.44297,6.46215 -0.53797,1.80469 -1.61801,4.96875 -2.40006,7.03125 -1.51525,3.99613 -2.17655,29.47659 -0.8011,30.86704 1.13529,1.14766 8.7677,-0.22693 18.18576,-3.27522 z M 1372.5,703.05802 c 2.3203,-0.50755 12.8672,-2.37575 23.4375,-4.15155 10.5703,-1.77582 22.5938,-3.86276 26.7188,-4.63767 4.125,-0.7749 14.8828,-2.70609 23.9062,-4.29152 9.0234,-1.58545 20.4141,-3.69655 25.3125,-4.69134 4.8984,-0.99478 12.0703,-2.28265 15.9375,-2.86191 23.2943,-3.48927 21.2529,-1.7945 24.7513,-20.54903 6.8412,-36.67541 11.6353,-35.8435 -94.595,-16.41472 -4.125,0.75443 -14.25,2.46414 -22.5,3.79935 -8.25,1.33522 -17.1094,3.00416 -19.6875,3.70876 -2.5782,0.7046 -6.9705,1.56923 -9.7608,1.9214 -7.4484,0.94006 -9.4114,3.26394 -9.6264,11.39573 -0.4982,18.84302 -0.2077,35.1974 0.6372,35.88013 2.3334,1.88565 9.1343,2.27798 15.4687,0.89237 z m -19.571,-341.68584 c 2.2562,-0.79217 7.6882,-3.27421 12.071,-5.51563 4.3828,-2.24143 9.0003,-4.39003 10.2611,-4.77469 1.2608,-0.38464 4.2139,-1.8671 6.5625,-3.29435 2.3486,-1.42725 7.2233,-3.71606 10.8327,-5.08622 3.6093,-1.37018 8.039,-3.15259 9.8437,-3.96093 1.8047,-0.80833 5.5675,-2.26369 8.3618,-3.23413 2.7944,-0.97045 7.0131,-3.00123 9.375,-4.51286 2.362,-1.51163 5.5339,-3.21698 7.0488,-3.78968 1.5148,-0.5727 7.2822,-3.75276 12.8162,-7.0668 5.5342,-3.31404 12.2049,-6.88027 14.8239,-7.92496 2.619,-1.04468 6.854,-2.73493 9.4111,-3.7561 2.5572,-1.02116 7.5873,-3.73986 11.1781,-6.04154 3.5909,-2.30169 8.7761,-5.30742 11.5227,-6.67944 2.7465,-1.372 8.0687,-4.45409 11.8269,-6.84907 10.9728,-6.9925 31.7754,-20.52316 41.9168,-27.2639 5.1562,-3.42727 13.896,-8.92945 19.4216,-12.22706 5.5256,-3.29761 12.9084,-8.27881 16.4062,-11.06933 3.4978,-2.79051 7.6253,-5.72486 9.1722,-6.52076 1.5468,-0.7959 5.3437,-3.21428 8.4375,-5.37419 3.0937,-2.15991 8.1322,-5.31341 11.1967,-7.0078 5.405,-2.98851 12.0632,-7.59064 27.8738,-19.26649 4.1894,-3.09375 9.2046,-6.67969 11.1449,-7.96875 1.9402,-1.28906 4.4401,-3.50565 5.5553,-4.92575 1.1152,-1.42009 3.9996,-3.91587 6.4097,-5.54615 2.4101,-1.6303 6.327,-4.68715 8.7042,-6.79301 2.3772,-2.10586 6.1741,-5.35038 8.4375,-7.21004 2.2634,-1.85966 7.233,-6.07841 11.0434,-9.375 3.8105,-3.29659 8.6149,-7.36412 10.6767,-9.03896 2.0617,-1.67484 4.2175,-3.6314 4.7906,-4.34792 0.5732,-0.71651 2.9406,-2.72535 5.2609,-4.46408 7.6957,-5.76676 32.4618,-31.09322 33.5555,-34.31471 1.8804,-5.53841 -3.6998,-3.2437 -14.3368,5.89565 -3.0937,2.65817 -8.2097,6.5308 -11.3689,8.60584 -3.1593,2.07504 -10.5421,7.76682 -16.4063,12.64839 -10.0716,8.38397 -19.433,14.69548 -28.9082,19.49004 -6.4401,3.25885 -39.957,23.1546 -47.8478,28.40261 -3.8672,2.57201 -11.0391,6.99652 -15.9375,9.83222 -4.8984,2.83571 -11.352,6.81299 -14.3412,8.8384 -11.5524,7.82749 -35.3268,20.52305 -60.1339,32.11149 -6.1567,2.87601 -15.1383,7.78434 -19.9593,10.9074 -7.7792,5.03939 -31.0007,18.65858 -31.8139,18.65858 -0.1719,0 -6.0844,3.19849 -13.1391,7.10775 -7.0546,3.90926 -17.0493,9.2268 -22.2103,11.81675 -5.1611,2.58994 -12.1512,6.41489 -15.5336,8.49987 -3.3825,2.08499 -7.4156,4.4304 -8.9625,5.21202 -1.5468,0.78162 -4.5,2.54549 -6.5625,3.91971 -2.0625,1.37422 -8.3906,4.9554 -14.0625,7.95816 -5.6718,3.00278 -13.2656,7.3649 -16.875,9.69362 -3.6093,2.32871 -11.414,7.10312 -17.3437,10.60979 -22.2711,13.17058 -22.9742,14.03696 -21.6695,26.70204 1.1008,10.68496 2.2622,11.5241 11.4735,8.28997 z m -3.3977,-49.21836 c 0.9153,-0.72423 12.0668,-7.09653 30.9375,-17.67868 5.1562,-2.89148 11.0549,-6.4172 13.1082,-7.83494 2.0533,-1.41773 4.2112,-2.5777 4.7955,-2.5777 0.5841,0 2.18,-0.87934 3.5463,-1.95408 3.4924,-2.74707 13.2194,-8.07588 33.8778,-18.55927 9.8053,-4.97587 19.0866,-9.93494 20.625,-11.02017 1.5385,-1.08522 5.9612,-3.43139 9.8284,-5.2137 7.8525,-3.61908 37.9694,-20.73157 40.5946,-23.06598 1.7034,-1.51466 36.9636,-20.19892 56.9054,-30.15395 5.9297,-2.96013 15.6328,-8.44055 21.5625,-12.1787 5.9297,-3.73815 12.8906,-7.85582 15.4687,-9.15038 2.5782,-1.29457 6.375,-3.59192 8.4375,-5.10524 3.8778,-2.84527 10.2356,-6.74857 21.5625,-13.23821 3.6094,-2.06795 8.9348,-5.36502 11.8343,-7.32683 2.8995,-1.9618 8.1823,-4.98337 11.7396,-6.7146 7.158,-3.48359 30.6522,-19.22094 38.8954,-26.05371 2.9051,-2.40794 7.5457,-5.67561 10.3125,-7.2615 2.767,-1.5859 6.5073,-4.42473 8.312,-6.30853 1.8047,-1.883791 5.2435,-4.428109 7.6418,-5.654041 2.3984,-1.225931 5.1406,-3.203782 6.0938,-4.395227 1.6504,-2.062757 10.7923,-8.969088 22.6549,-17.114632 3.0036,-2.0625 8.1734,-6.090294 11.4885,-8.950655 3.315,-2.86036 7.137,-5.675985 8.4932,-6.256944 1.3563,-0.580959 5.892,-3.82215 10.0791,-7.202646 4.1872,-3.380496 9.224,-6.968188 11.1929,-7.972649 1.969,-1.004461 5.449,-3.393824 7.7335,-5.309695 2.2845,-1.915871 6.3074,-4.918503 8.9399,-6.672514 6.0913,-4.0586 7.9551,-7.170068 5.6663,-9.459439 -3.4356,-3.436568 -146.4048,-2.888033 -175.9214,0.674964 -4.3828,0.529057 -13.2422,1.617153 -19.6875,2.417991 -6.4453,0.800838 -16.5703,1.852215 -22.5,2.336391 -13.6664,1.115907 -17.668,1.600287 -30.9375,3.744897 -5.9297,0.958356 -15.4219,2.21516 -21.0937,2.792897 -5.6719,0.577738 -13.0505,1.678317 -16.3969,2.44573 -3.3464,0.767415 -11.1511,1.79086 -17.3438,2.274325 -6.1926,0.483464 -16.5328,1.525271 -22.9781,2.315128 -6.4453,0.789856 -16.3594,1.849593 -22.0312,2.35497 -5.6719,0.505378 -13.0547,1.529066 -16.4063,2.274862 -15.6956,3.492615 -24.3944,5.294969 -30,6.215867 -3.3516,0.550602 -9.8906,1.626403 -14.5312,2.390669 -4.6407,0.764268 -13.711,1.798694 -20.1563,2.298723 -34.7554,2.696338 -54.5453,5.889744 -87.5755,14.131602 -17.0313,4.249755 -18.9847,5.025593 -17.415,6.91691 2.0928,2.521694 30.7113,10.791999 67.9593,19.63916 10.3125,2.449434 24.6799,5.885566 31.9276,7.635866 7.2478,1.75028 14.1899,3.18234 15.4272,3.18234 16.4073,0 19.5377,6.81261 19.6035,42.66309 0.081,44.10913 -0.1804,45.1903 -10.9576,45.35198 -22.188,0.33286 -33.6024,3.50269 -35.8427,9.95368 -9.5728,27.56476 -13.3081,41.17503 -15.4375,56.25 -0.7284,5.15625 -2.21,11.83354 -3.2926,14.83841 -1.5587,4.32656 -4.5635,25.55648 -4.6906,33.1415 -0.056,3.35286 4.7747,4.65487 7.9502,2.14266 z m 79.0062,-155.35695 c -4.423,-5.03674 -1.472,-10.71264 7.2512,-13.94715 6.4844,-2.40443 20.2964,-8.40103 30.4613,-13.22506 18.1979,-8.63633 23.7757,-11.04035 34.5152,-14.8762 6.3505,-2.26823 14.788,-5.64989 18.75,-7.51479 11.676,-5.49593 31.4338,-14.083308 61.5786,-26.763991 3.6093,-1.518318 9.6472,-4.2423 13.4174,-6.053293 9.1762,-4.40771 19.2966,-8.591773 25.0201,-10.343998 2.5781,-0.789291 10.1718,-3.771011 16.875,-6.626044 6.7031,-2.855033 20.625,-8.688995 30.9375,-12.96436 10.3125,-4.275365 22.0134,-9.155458 26.0021,-10.844651 9.087,-3.84828 11.2898,-3.346725 14.9915,3.413315 3.6931,6.744111 2.1762,9.824352 -4.8381,9.824352 -4.1594,0 -11.119,2.667395 -37.5618,14.396409 -6.4453,2.858887 -18.8906,7.977237 -27.6562,11.374111 -8.7657,3.396876 -18.7134,7.42564 -22.1061,8.952808 -3.3926,1.52717 -6.5146,2.776672 -6.9375,2.776672 -0.423,0 -2.9206,1.033467 -5.5503,2.296594 -9.0011,4.323614 -31.0271,13.908226 -37.115,16.150536 -3.3461,1.23246 -9.4633,3.89593 -13.5937,5.91881 -22.6184,11.07733 -38.2867,17.65385 -55.845,23.44019 -2.8656,0.94434 -9.4046,3.70612 -14.5313,6.13729 -24.9904,11.85103 -29.6645,13.91721 -38.24,16.90392 -10.3893,3.61846 -13.7376,3.95161 -15.8249,1.57453 z M 567.01416,297.07101 c 1.19371,-0.45156 4.35913,-0.82101 7.03423,-0.82101 2.67511,0 7.81561,-0.85724 11.42334,-1.90498 3.60774,-1.04775 11.41108,-2.29339 17.34077,-2.76809 5.92969,-0.47471 18.58594,-1.91366 28.125,-3.19767 9.53906,-1.284 22.61719,-3.01543 29.0625,-3.84762 6.44531,-0.83218 13.22348,-1.90643 15.0626,-2.38723 1.83912,-0.48079 7.11256,-1.29078 11.71875,-1.79998 4.6062,-0.50919 11.11709,-1.35618 14.46865,-1.88219 3.35156,-0.52601 9.67969,-1.37721 14.0625,-1.89156 4.38281,-0.51435 12.1875,-1.51963 17.34375,-2.23395 5.15625,-0.71434 14.85937,-1.98832 21.5625,-2.83109 6.70312,-0.84275 15.77344,-2.1619 20.15625,-2.93144 4.38281,-0.76952 9.23716,-1.39635 10.78744,-1.39292 1.55028,0.004 4.29246,-0.4252 6.09375,-0.95248 1.80128,-0.52728 7.49381,-1.53704 12.65006,-2.2439 16.55324,-2.26927 43.77206,-6.10975 53.90625,-7.60599 5.41406,-0.79935 13.85156,-1.8633 18.75,-2.36433 4.89844,-0.50104 12.17578,-1.53899 16.17187,-2.30654 19.09898,-3.66843 22.3927,-4.22295 30.70313,-5.169 9.59458,-1.09223 15.88856,-2.03677 27.65625,-4.15036 10.41778,-1.87116 24.30262,-4.0092 37.03125,-5.70224 5.92969,-0.78871 15.6328,-2.27825 21.5625,-3.31009 5.9297,-1.03185 14.3672,-2.4977 18.75,-3.25744 4.3828,-0.75975 9.4453,-1.39094 11.25,-1.40265 1.8047,-0.0117 8.7656,-1.06981 15.4688,-2.35133 6.7031,-1.2815 19.1484,-3.35173 27.6562,-4.60049 31.8177,-4.67012 47.2154,-7.09554 50.5115,-7.95645 3.4464,-0.90019 30.5883,-5.161 57.301,-8.99525 4.8984,-0.70311 13.5469,-2.14796 19.2188,-3.21076 10.2837,-1.927 15.799,-2.79942 30,-4.74549 4.125,-0.56528 8.8204,-1.4412 10.4343,-1.94647 1.6139,-0.50529 8.7858,-1.75239 15.9375,-2.77136 28.5267,-4.06446 33.0346,-4.75852 54.951,-8.4606 12.5068,-2.11264 26.1147,-4.18404 30.2397,-4.6031 8.5126,-0.86481 10.5849,-1.20484 26.3677,-4.32653 6.2523,-1.23663 11.5861,-2.24843 11.8529,-2.24843 2.4612,0 5.4504,-28.44164 3.837,-36.50881 -1.4879,-7.43954 -10.0044,-6.69208 -102.5264,8.99836 -35.3064,5.98748 -80.5967,12.91159 -94.2187,14.40442 -8.5219,0.93391 -39.8015,5.54044 -69.8438,10.28585 -6.4453,1.01809 -20.1562,3.13313 -30.4687,4.70008 -10.3125,1.56696 -23.8125,3.67058 -30,4.67471 -6.1875,1.00413 -18.6329,2.88401 -27.6563,4.17751 -9.0234,1.29349 -19.1484,2.76514 -22.5,3.27033 -3.3516,0.50519 -7.7813,1.13036 -9.8438,1.38926 -2.0625,0.2589 -9.44526,1.32783 -16.4062,2.37541 -6.96094,1.04757 -20.46094,2.97719 -30,4.28804 -9.53906,1.31085 -23.03906,3.37895 -30,4.59579 -6.96094,1.21684 -16.24219,2.71134 -20.625,3.32112 -8.58175,1.19399 -47.10797,7.32655 -64.6875,10.29688 -13.39913,2.264 -24.9285,4.11911 -41.25,6.63727 -6.96094,1.07396 -17.29688,2.76523 -22.96875,3.75836 -5.67188,0.99312 -20.4375,3.31458 -32.8125,5.15878 -12.375,1.84421 -29.88281,4.61981 -38.90625,6.16803 -17.09194,2.93257 -20.83774,3.51883 -52.5,8.21689 -10.57031,1.56843 -25.33594,3.908 -32.8125,5.19907 -7.47656,1.29106 -19.07813,3.00736 -25.78125,3.814 -15.77454,1.89827 -44.12869,6.74724 -46.32384,7.92205 -2.89495,1.54932 -5.33569,35.13311 -2.71114,37.30435 2.50001,2.06822 13.06408,2.13901 18.39289,0.12326 z M 528.75,295.33159 c 2.42847,-1.53643 1.73031,-32.73485 -0.77799,-34.76595 -2.09593,-1.69717 -30.08548,-8.71088 -89.69076,-22.475 -4.64063,-1.07162 -12.23438,-2.76081 -16.875,-3.75376 -4.64063,-0.99294 -13.07813,-2.89568 -18.75,-4.2283 -13.50163,-3.17225 -35.50297,-8.06175 -50.15625,-11.14658 -6.44531,-1.35687 -13.40625,-2.87774 -15.46875,-3.37971 -10.77384,-2.62217 -43.03215,-10.04822 -63.28125,-14.56773 -34.90842,-7.7914 -63.49085,-14.2682 -80.625,-18.26967 -8.50781,-1.98689 -18.84375,-4.28253 -22.96875,-5.10142 -6.61286,-1.31277 -21.23265,-4.75333 -46.03507,-10.83371 -33.650001,-8.24939 -33.63788,-8.25175 -34.443416,6.72951 -1.418609,26.38312 -2.324996,24.54903 13.674536,27.67055 6.32029,1.2331 15.7102,3.29052 20.86645,4.57206 5.15625,1.28153 16.54687,3.97566 25.3125,5.98697 18.05308,4.14233 39.91234,9.76832 43.9677,11.31612 1.49473,0.57049 10.29242,2.72158 19.55041,4.7802 9.25799,2.05862 19.84753,4.5592 23.5323,5.55686 7.53223,2.03935 28.20912,6.72041 54.04334,12.23493 9.53906,2.03618 23.25,5.01586 30.46875,6.6215 7.21875,1.60564 15.23437,3.30197 17.8125,3.76962 2.57812,0.46765 8.27344,1.68347 12.65625,2.70181 4.38281,1.01834 12.82031,2.92268 18.75,4.23187 21.08159,4.65449 27.77214,6.20873 37.03125,8.60249 5.15625,1.33305 12.32812,2.94218 15.9375,3.57583 3.60937,0.63364 9.51562,1.86711 13.125,2.74103 3.60937,0.87392 11.41406,2.61576 17.34375,3.87076 5.92969,1.255 13.73437,2.93659 17.34375,3.73686 3.60937,0.80025 12.25781,2.47082 19.21875,3.71236 21.76422,3.88184 27.77253,5.08179 30.09402,6.01028 2.93312,1.1731 6.57848,1.21689 8.34348,0.10022 z m 28.59375,-56.8185 c 8.25,-1.32287 17.74219,-2.78493 21.09375,-3.24904 3.35156,-0.4641 12.84375,-1.86792 21.09375,-3.1196 52.28833,-7.93307 57.13605,-8.69441 83.90625,-13.17757 4.89844,-0.82033 12.07031,-1.93805 15.9375,-2.4838 8.54378,-1.20573 12.36524,-1.80451 35.15625,-5.50868 9.79687,-1.59226 20.6305,-3.2634 24.07474,-3.71365 3.44422,-0.45026 6.60829,-1.03233 7.03125,-1.2935 0.42295,-0.26117 5.62057,-1.16544 11.55026,-2.00951 5.92969,-0.84406 12.89062,-1.92285 15.46875,-2.3973 10.0681,-1.85284 16.62585,-2.90067 34.6875,-5.54255 10.3125,-1.50841 23.8125,-3.6044 30,-4.65774 6.1875,-1.05335 15.25781,-2.59762 20.15625,-3.43172 4.89844,-0.83411 13.54687,-2.11343 19.21875,-2.84294 5.67187,-0.72953 16.21875,-2.38736 23.4375,-3.68407 22.27097,-4.00056 43.30116,-7.21207 75.9375,-11.59633 7.73435,-1.03901 16.59375,-2.32462 19.68745,-2.85693 3.0938,-0.5323 10.4766,-1.63868 16.4063,-2.45864 21.7274,-3.00442 35.413,-5.05593 46.4063,-6.95636 6.1875,-1.06966 13.7812,-2.34611 16.875,-2.83657 32.331,-5.12544 30.0526,-4.7887 63.2812,-9.35305 11.6016,-1.59361 23.625,-3.28527 26.7188,-3.75924 3.0937,-0.47398 9.8437,-1.34246 15,-1.92997 5.1562,-0.58751 12.3281,-1.64256 15.9375,-2.34455 3.6093,-0.70199 10.3593,-1.7232 15,-2.26935 4.6406,-0.54616 12.2343,-1.64531 16.875,-2.44255 17.2587,-2.96499 30.1999,-5.23985 37.0312,-6.50949 16.5893,-3.08324 28.2221,-5.06402 36.4155,-6.20061 16.4837,-2.28662 15.3191,-4.4348 -5.478,-10.10501 -7.9922,-2.17902 -17.2734,-4.75824 -20.625,-5.73158 -13.5605,-3.93814 -27.8792,-7.679556 -52.0312,-13.595479 -5.1563,-1.262997 -15.0704,-3.776086 -22.0313,-5.584642 -6.9609,-1.808556 -22.3594,-5.625588 -34.2187,-8.482294 -11.8594,-2.856705 -23.6719,-5.800099 -26.25,-6.540874 -2.5782,-0.740775 -11.0157,-3.025253 -18.75,-5.076618 -7.7344,-2.051367 -44.8218,-12.188475 -82.4165,-22.52691 L 991.57331,23.447219 833.0523,47.78221 c -87.18658,13.384246 -160.47611,24.983622 -162.86562,25.776391 -2.38952,0.79277 -5.97546,1.447808 -7.96875,1.455641 -1.99331,0.0079 -12.27262,1.284737 -22.84293,2.837565 -10.57031,1.552829 -22.59375,3.272791 -26.71875,3.822138 -4.125,0.549349 -16.14844,2.204539 -26.71875,3.678202 -10.57031,1.473662 -31.66406,4.390074 -46.875,6.480915 -15.21094,2.090844 -32.08594,4.440426 -37.5,5.221307 -5.41406,0.780872 -14.69531,2.0592 -20.625,2.840719 -5.92969,0.781522 -14.57813,2.031212 -19.21875,2.777102 -4.64063,0.74589 -18.5625,2.85116 -30.9375,4.67838 -28.07215,4.14496 -51.8538,7.7561 -58.59375,8.89722 -2.83594,0.48014 -10.21875,1.54309 -16.40625,2.3621 -6.1875,0.81903 -16.52344,2.32888 -22.96875,3.35522 -57.74438,9.19516 -77.44274,12.22669 -97.03125,14.93286 -86.78281,11.9891 -93.07974,13.54311 -75.59441,18.65601 8.07402,2.36092 35.91599,8.70938 43.71941,9.9688 2.0625,0.33287 7.125,1.38633 11.25,2.34102 4.125,0.95469 16.99219,3.87817 28.59375,6.49661 11.60156,2.61844 25.22393,5.80228 30.27193,7.0752 5.04801,1.27291 10.11051,2.31573 11.25,2.31737 1.1395,0.002 7.34526,1.2645 13.79057,2.80636 19.2711,4.61006 38.46979,9.00851 63.75,14.60522 13.14844,2.91089 28.33594,6.33997 33.75,7.62019 5.41406,1.28021 11.74219,2.67813 14.0625,3.10647 2.32031,0.42835 12.44531,2.72034 22.5,5.09332 10.05469,2.37298 21.86719,5.12062 26.25,6.10586 4.38281,0.98523 14.71875,3.32081 22.96875,5.19017 8.25,1.86936 23.22656,5.04812 33.28125,7.06392 10.05469,2.0158 19.54687,4.06261 21.09375,4.54847 4.04129,1.26933 4.14777,1.26221 20.625,-1.37987 z"
     id="path4146"
     inkscape:connector-curvature="0" />
</svg>
