<?xml version='1.0' encoding='utf-8'?>
<svg xmlns="http://www.w3.org/2000/svg" width="210mm" height="297mm" version="1.1" viewBox="0 0 210 297"> <path d="m114.98 124.63c-3.2364-3.3912-6.1967-3.2221-7.6321-1.7199-0.49948 0.52263-1.2948 1.3348-1.2488 2.9381 0.0695 2.4206 1.2 6.056 1.3536 8.5416 0.15843 2.5628 0.11983 4.4193-1.3992 3.8841 0.94898-3.3888-1.3539-5.7186-4.1106-6.0597-2.4325-0.30096-5.2185 0.93157-6.4359 1.9975-1.6401 1.4361-4.2115 4.5501-5.5692 8.4614-3.8871 0.28271-7.7574 0.75303-11.641 1.0814-1.0414 0.0826-2.0823 0.15537-3.1256 0.21664-2.0536 0.12478-4.0934 0.3982-6.1492 0.4998-0.68218 0.0245-1.356 0.0287-2.0387 5e-3 -0.5447-0.0305-1.0783-0.0792-1.6197-0.15028-0.4068-0.0649-0.80515-0.14057-1.2078-0.22974l-0.80232-0.21856c-0.18706-0.0612-0.37155-0.12452-0.55401-0.19098 3.2838-8.8068 12.719-11.748 14.793-19.692 0.80338-3.0774 1.8077-6.8997 0.94321-10.78-1.1115-4.9885-5.2838-10.072-2.8313-13.791-0.19899 1.9159 0.41714 3.7808 1.5911 5.6108 1.029-7.8592 4.948-12.656 10.191-15.973 5.6317-3.5623 20.189-6.9787 22.844-4.2164-8.2743-0.81748-8.4361 3.3447-6.9958 5.9968 0.82802 1.5247 3.2269 4.0518 6.6445 4.9272 3.2355 0.82878 11.209 3.6167 10.537 5.9644-1.1247-0.88739-2.4425-1.6248-3.5249-1.4972-2.7662 0.3261-4.6698 3.0877-5.4292 5.3176-0.60491 1.7762-0.91485 4.2822-0.44817 7.0569 0.31924 1.8985 1.1693 3.83 1.8747 6.1074 0.25321 0.81749 0.42661 2.0818 0.81418 2.9682 0.49826 1.1398 1.261 1.8358 1.1772 2.9439zm28.509 43.325c-1.161-0.20021-2.0033 0.0776-2.5268 0.83338-0.57044-0.91242-0.83341-1.7632-0.41984-2.4787-1.2082-0.12591-1.8301 0.28933-2.1855 0.95057-0.40746-0.9177-0.50747-1.774 0.069-2.4948-1.2074-0.25128-1.9186 0.1288-2.4044 0.79594-0.48656-0.74252-0.71463-1.485-0.0193-2.2274-1.0114-0.71766-1.6378-0.0884-2.2518 0.58446-0.35708-0.72432-0.44768-1.4077 0.048-2.0007-1.1284-0.46321-1.8058-0.25004-2.2782 0.27066-0.63013-0.92665-1.2106-1.8367-0.2518-2.2337-1.127-0.63894-1.9918-0.55653-2.5942 0.24723-0.37888-1.0035-0.14808-1.6484 0.58791-1.9961-1.1399-0.36352-2.0667-0.32743-2.6819 0.29273-0.11343-0.97126-0.11176-1.8686 0.69649-2.2474-1.2709-0.508-1.8749-0.14404-2.2921 0.46418-0.38153-0.89609-0.4758-1.7059 0.45585-2.2079-1.1964-0.1088-2.0006 0.29236-2.5412 1.0361-0.19738-0.93869-0.0462-1.6724 0.87156-1.9551-1.0901-0.66775-2.1224-0.24098-3.1465 0.34219 0.14965-0.83754 0.60679-1.511 1.7404-1.8238-1.3455-0.35827-2.5271-0.22466-3.5447 0.40079 0.21418-0.94945 0.75626-1.6324 2.0199-1.729-1.9996-0.82134-3.1817-0.70824-3.8041 0.0443-0.12681-0.96123 0.0742-1.7174 0.99693-2.0226-1.6468-0.5702-2.2032-0.05-2.7243 0.50543-0.56451-1.2771 0.0228-1.7864 1.1336-1.9465-1.5888-0.70747-2.8147-0.6437-3.5101 0.54721-0.20711-1.4903 0.42328-2.5339 1.8912-3.1308-2.3389-0.1629-3.6795 0.51888-4.5663 1.5846-0.43048-1.4737 0.21399-2.4098 1.3472-3.1015-2.0228-0.15639-3.4873 0.24548-4.3934 1.2057-0.40142-1.3148 0.0905-2.2388 1.4756-2.7719-2.6132-0.52319-4.4448-0.0974-5.4948 1.2777-0.58296-1.0293-0.2726-2.0586 0.93104-3.0878-2.3361 0.0818-3.8347 0.94517-4.4959 2.5902-0.78737-1.7691-0.08985-2.8392 1.0234-3.7138-2.178 0.43371-3.5745 1.5374-4.1892 3.3111-0.5089-1.2214-0.28856-2.3764 0.43095-3.4859-1.8056 0.69771-2.8854 1.8978-3.2394 3.6006-0.83357-0.86897-0.88556-1.7379-0.15587-2.6069-1.6962 0.59709-2.1697 1.631-2.3007 2.7873-0.11351-0.0752-0.21841-0.15107-0.31493-0.22759l-0.12311 0.29474-0.06384 0.18892c0.34113-0.0225 0.68231-0.0436 1.0237-0.0627 0.71379-0.0332 1.4268-0.059 2.1414-0.0766 0.94009-0.0115 1.8748-5e-3 2.8149 0.0244 0.69757 0.0329 1.3903 0.0777 2.0866 0.13544l0.98076 0.11633 0.97637 0.16574 0.96761 0.21331 0.9602 0.25926 0.95403 0.3039 0.94935 0.3469 0.94618 0.38856 0.94459 0.42868 0.94443 0.46757 0.94609 0.50496 1.9035 1.1166 1.93 1.2507c1.0024 0.68847 1.9908 1.39 2.974 2.1057 3.7669 2.803 7.4268 5.746 11.136 8.6249 1.2866 0.99007 2.5779 1.9728 3.876 2.9487 1.6329 1.21 3.274 2.4041 4.9336 3.578 1.0896 0.75578 2.1849 1.4976 3.2929 2.227l2.24 1.4003 2.2929 1.3166 1.1711 0.62267 1.19 0.59658 0.42111 0.19786c-1.7548-1.2715-2.8841-2.4898-2.2016-3.8674zm-80.842-25.688c-0.44858 0.23534-0.97565 0.33972-1.5478 0.36872 0.81526-0.35332 1.3927-0.94475 1.4467-2.0604-0.65648 0.8292-1.5921 0.88974-2.6546 0.60097 0.70313-0.19328 1.3598-0.44879 1.604-1.2549-0.66154 0.47961-1.358 0.29544-2.0703-0.19047 0.65725 0.0183 1.2007-0.12097 1.1967-1.0194-0.58148 0.3306-1.1629 0.0652-1.7442-0.56975 0.64236 0.2213 1.2847-0.0527 1.9271-1.0507-0.93266 0.52874-1.5476-0.13504-2.0736-1.1326 0.71932 0.3387 1.4276 0.39915 2.0962-0.53411-1.241-0.25088-1.3672-1.0821-1.3342-1.9961 0.78142 0.36126 1.6137 0.18891 2.4967-0.51689-1.0287-0.42966-1.6291-0.92287-1.2869-1.5557 0.66924 0.36912 1.429 0.2555 2.2507-0.18841-0.79036-0.62003-1.2634-1.3353-1.0383-2.2603 0.5987 0.522 1.2132 0.72623 1.8628 0.2317-0.4491-0.73089-0.66508-1.559-0.50509-2.5439 1.1808 0.42823 2.064 0.22403 2.6497-0.61246-0.93819-0.19354-1.7644-0.5458-1.8062-2.009 1.3158 0.23849 2.2969-0.0438 2.9433-0.84685-1.086-0.16876-2.0412-0.55216-2.0814-2.4386 1.2867 0.18312 2.2015-0.41495 2.7442-1.7942-1.7936-0.0762-3.1138-0.65077-3.4936-2.215 1.3761-0.51253 1.8246-1.6876 1.6385-3.316-1.7038 0.88495-3.1358 0.97697-4.1704-0.0898 1.0381-0.91482 1.3479-2.0946 1.1592-3.4557-1.0323 1.1092-2.3992 1.5213-4.1008 1.2363 0.56354-0.90975 0.65307-1.8474 0.26858-2.8129-1.3672 1.3031-2.8938 1.6229-4.5955 0.86251 1.5452-1.8687 1.7949-3.9085 0.38444-6.1677-1.0713 3.7139-3.9621 2.8342-4.7246 4.8196-0.1664 0.43331-0.24228 0.91356-0.19407 1.4593 2e-3 -2e-5 4e-3 -1.8e-4 6e-3 -2.1e-4 0.50829-0.0205 1.0073-0.0628 1.5101-0.14033 0.38121-0.11497 0.76319-0.14672 1.1569-0.0908 0.45043 0.078 0.87006 0.26609 1.2226 0.55679 0.15806 0.18946 0.23344 0.3376 0.2885 0.57573 0.01154 0.0634 0.02188 0.12681 0.03143 0.19002 0.16526 0.11481 0.35631 0.18664 0.54647 0.24649 0.44183 0.13076 0.89993 0.17515 1.3518 0.25739 0.48223 0.10244 0.94173 0.22756 1.4085 0.38488 0.52284 0.19286 1.0121 0.4122 1.5029 0.6749 0.37989 0.21633 0.73798 0.44524 1.0932 0.69919 0.45979 0.34655 0.87942 0.71115 1.2849 1.1192 0.31316 0.32954 0.60047 0.66667 0.87445 1.0288 0.33962 0.46982 0.62701 0.94888 0.89622 1.4614 0.16486 0.34404 0.3135 0.68527 0.45312 1.0398 0.12838 0.36317 0.24109 0.72208 0.34359 1.0928 0.09086 0.37912 0.16687 0.75229 0.23156 1.1362 0.05263 0.39169 0.0911 0.77658 0.11742 1.1705 0.01342 0.40159 0.01355 0.79508 5.3e-4 1.1962-0.02638 0.40828-0.06554 0.80721-0.1183 1.2125-0.06728 0.41201-0.14639 0.81357-0.23992 1.2201-0.10893 0.41275-0.22889 0.81383-0.36388 1.2186-0.22675 0.61365-0.46643 1.2566-0.80732 1.8159-0.95782 1.5285-2.1533 2.906-2.9959 4.5051-0.12084 0.23947-0.23191 0.48136-0.33975 0.72681-0.26704 0.63691-0.48302 1.2714-0.64939 1.9416-0.10144 0.44889-0.17626 0.89127-0.22659 1.3484-0.05559 0.63823-0.05612 1.2532-0.0044 1.8914 0.04434 0.42344 0.10829 0.83436 0.19243 1.2513 0.06091 0.26929 0.13187 0.52504 0.16121 0.79983 0.0391 0.26858 0.09422 0.51681 0.17523 0.77544 0.21807 0.60799 0.53001 1.0795 0.98044 1.5398l0.24191 0.22296c0.37687 0.31517 0.76806 0.57015 1.198 0.8059 0.24421 0.12657 0.49048 0.24127 0.73959 0.34697l0.30988-0.77944zm9.6617-11.296c0.20963-0.98846 0.31181-2.0072 0.27096-3.0709-0.12195-3.1779-0.26723-7.1272-2.2183-10.591-2.5082-4.4531-7.9738-8.1114-6.7029-12.381 0.36444 1.8914 1.4939 3.498 3.1476 4.9097-1.2906-7.8206 1.0717-13.547 5.1299-18.239 4.3591-5.0403 17.304-12.525 20.645-10.65-7.7376 1.5303-7.1896 5.2361-5.2804 7.4238-0.39616 0.24609-0.78499 0.49892-1.1734 0.76155l-0.95858 0.69453c-0.46781 0.36388-0.9221 0.73491-1.3719 1.121-0.44088 0.39822-0.86553 0.80238-1.2848 1.2232-0.41071 0.4354-0.80306 0.87553-1.1885 1.3334-0.37732 0.47538-0.7344 0.9539-1.0828 1.4506l-0.65881 1.0359-0.60502 1.0929-0.54875 1.1519-0.48996 1.2126c-0.40217 1.1393-0.74919 2.2879-0.98526 3.4741-0.37563-0.89168-0.58325-1.8165-0.59571-2.785l0.0082-0.32162 0.29967-3.3437-1.7788 2.9749-0.20053 0.41582-0.15997 0.42479-0.12084 0.43153-0.08382 0.43683-0.04908 0.44037-0.01701 0.44294 0.01254 0.44458 0.10292 0.89289c0.08731 0.45754 0.19106 0.89792 0.31345 1.347l0.28998 0.90347c0.66855 1.8557 1.5111 3.6387 2.2065 5.4835 0.1611 0.45117 0.31139 0.90109 0.45156 1.3587 0.14531 0.52729 0.26808 1.0448 0.36441 1.5825 0.08691 0.57494 0.14235 1.1378 0.17124 1.7182 0.0154 0.57105 0.0057 1.1321-0.02638 1.702-0.0672 0.89559-0.18682 1.7703-0.34674 2.6534-0.28668 1.4837-0.65111 2.957-1.0804 4.4056l-0.25239 0.68551-0.29141 0.66132-0.32827 0.63974-0.36309 0.62074-0.39574 0.6038-0.42622 0.58936c-0.4627 0.58727-0.93665 1.1454-1.438 1.7007zm33.381-38.33c0.71588 0.29549 1.2314 0.65969 1.4343 1.1058-0.50462-0.33158-0.98714-0.6999-1.4343-1.1058zm-60.442 25.681c0.70779 0.36348 1.2181-0.77732 0.49009-1.4399 0.01609 0.52483-0.12322 1.0108-0.49009 1.4399zm68.338 65.29c-0.48996-0.24447-0.86823-0.57843-1.1347-1.0017 0.48638 0.96179 0.89577 1.6754 0.90961 2.4782 0.0147 0.85558-0.63021 1.3544-0.93805 2.1342-0.32772 0.83019-0.32629 1.9355-0.53822 2.6465-0.18304 0.61401-0.72414 1.093-0.9752 1.6173-0.26001 0.54295-0.33975 1.276-0.71475 1.6727-1.0773 1.1396-1.3939 1.2942-5.0424 1.1186-1.0522-0.97626-1.9784-1.0071-2.8184-0.39111 0.13026-1.0081 0.67011-1.7956 1.4903-2.432-0.63974 0.17484-1.1716 0.56523-1.546 1.2709-0.8618-0.32573-1.5644-0.0145-2.1079 0.93358 0.0509-1.0852 0.65326-1.9092 1.7124-2.5167 0.27252-0.50679 0.85619-0.75047 1.5197-0.82291 0.51607-0.0564 1.1022 0.0268 1.4888-0.0617 0.6636-0.15195 1.1632-0.7275 1.5815-1.1897 1.0051-1.1107 1.6848-2.6944 1.9823-4.8331-0.38608-1.8671-1.2282-4.0052-1.8781-5.9541-0.47424-1.4222-0.57243-2.8219-1.6693-3.5554-3.7436-2.5032-9.3837-3.9138-13.326-5.7982-1.6646-0.7956-3.0497-0.91935-3.8243-2.4686-1.1287-2.2575-0.8037-4.3335-0.68673-6.9124 0.11224-2.4744 0.0589-5.3992-0.8554-8.9927 4.3083-1.0485 8.7027-1.4744 12.923-0.20839 2.2503 0.67509 4.5163 1.5158 6.7857 2.5512-5.8684 3.255-10.728 6.5098-9.78 9.7649l-0.06977-0.13954c1.9672 0.16639 3.8757 0.51355 5.2838 1.5108 1.2041 0.85275 1.9462 2.3015 3.1153 3.1827 1.1308 0.85227 2.5746 1.4076 3.7353 2.0756 0.45424 0.26143 0.89609 0.4322 1.2124 0.80706 0.8631 1.0228 0.74441 2.0662 1.0358 3.2029 0.39928 1.5578 1.0789 3.291 1.6328 5.3874 0.25617 0.96943 0.60491 2.0166 1.1162 3.16-0.0589 0.53475 0.12668 1.1394 0.38084 1.7638zm-55.572-21.67c0.35621-2.0177 1.0712-3.8304 1.7926-5.6394-2.9056-0.16914-5.4143-0.69736-7.4909-1.5248-2.5066-0.99875-4.3898-2.432-5.59-4.1982 0.35526 2.7756 1.1257 5.7068 2.6056 8.904-1.1194 3.33 1.6536 6.2822 1.5757 9.0594-0.04477 1.5973-1.766 2.9358-2.5359 4.3514-0.57423 1.0557-1.3774 2.207-1.9422 3.2206-0.8812 1.5812-1.5646 2.9906-2.8318 4.4373-0.89617 1.023-1.8304 1.791-2.4618 2.8659-0.5737 0.97658-1.7763 2.168-2.2064 3.578-0.55293 1.813-0.04366 3.7925 2.452 4.0797-0.38904-0.48236-0.5625-0.93154-0.26154-1.3076 0.12428 1.1381 0.75274 1.3939 1.7261 1.0461-0.89726-0.17481-1.314-0.65305-1.203-1.4646 0.19029 0.42304 0.48675 0.52766 0.88918 0.31382-0.36724-0.38539-0.66926-1.2002-0.41958-1.4036 0.41076-0.33462 0.30845-0.97509 0.43685-1.5796 0.14557-0.685 0.43132-1.3738 0.79005-1.8059 0.4481-0.53983 1.0819-0.59442 1.7332-0.89083 0.65119-0.29641 1.3202-0.83492 1.7691-1.367 2.2657-2.685 4.5104-5.2912 6.4101-7.8552 1.2601-1.7006 2.9426-2.8714 3.6407-4.679 1.0306-2.6687 0.54012-5.4145 1.1219-8.1406zm12.481 31.165c0.12787-1.2746 0.70903-2.2309 1.9526-2.5289 0.81598-1.6252 3.8962-0.45366 5.4467-1.167 0.90588-0.41669 1.7361-1.0174 2.3286-1.7471 1.1377-1.4013 1.5147-3.1681 1.9657-5.0094 0.35078-1.4322 0.87289-2.9095 1.0185-4.2952 0.1669-1.5881-1.0259-4.0686-2.1836-6.6903-0.87223-1.9751-1.5838-4.0306-2.4676-5.8449-0.57581-1.1822-1.0868-1.6193-1.4444-2.648-0.22754-0.65455-0.16018-1.3354 0.03172-1.9576 1.1509-0.30348 2.2941-0.62138 3.4371-0.95565l2.3211-0.73342c1.1204-0.38159 2.2303-0.77814 3.3385-1.1946l0.18513-0.0748c-2.65e-4 0.0268-5.29e-4 0.0536-7.94e-4 0.0805-0.01794 0.91866-0.07456 1.8331-0.12361 2.7496-0.31176 0.46919-0.50292 0.93975-0.49882 1.4129 0.0056 0.6437 0.2236 1.0854 0.52686 1.4816 0.05027 0.40018 0.12065 0.78798 0.21675 1.1826 0.17 0.61933 0.38875 1.1964 0.68816 1.7648 0.24498 0.41844 0.5111 0.74821 0.87582 1.067 0.06982 0.056 0.13954 0.10961 0.21061 0.16166 0.11996 1.4377 0.02315 3.0135 0.30721 4.4663 0.45225 2.3134 1.7221 4.3521 1.2984 6.2929-0.12134 0.55573-0.50324 1.0114-0.72152 1.5439-0.48014 1.1714-0.91906 2.3945-1.3533 3.6096-0.59333 1.6605-1.055 3.2317-1.6026 5.1308-0.12107 0.63336-0.41651 1.1622-0.8862 1.5864 0.14729-0.62518 0.14211-1.1633-0.19876-1.5093-0.39388 1.767-1.28 2.1282-2.035 2.8794-0.51657 0.5139-0.9113 1.1137-1.5432 1.3945-0.56235 0.24988-1.003 0.0729-1.3954 0.0682-1.0026-0.0119-1.9801-0.34536-6.0145-0.25204-0.7403-0.77904-1.4806-0.82894-2.221-0.14976 0.21929-1.0079 0.70559-1.8456 1.4588-2.5132-0.59608 0.36545-0.9851 0.85516-1.2326 1.43-0.747-0.12173-1.2869 0.25339-1.6853 0.96867zm-11.618-10.426c-0.39161-2.2805-0.59325-5.4059-0.77057-7.9699-0.06935-1.0033 0.12274-1.7594-0.07882-2.5876-0.13242-0.54401-0.38129-0.99105-0.68331-1.369 0.26636-0.57177 0.44693-1.1592 0.59687-1.7746l0.23035-1.3351c0.14052-1.2194 0.15997-2.4463 0.25805-3.6675l2.4128-0.11123 0.51977-0.0413c0.59505 2.7256 2.1199 3.1531 2.4968 5.3623 0.32986 1.934 0.1171 3.8066-0.01913 6.3351-0.13044 2.6495-0.56856 5.4038-0.76734 8.0165-0.15457 2.0322 0.03387 3.9789-0.65405 5.724-0.48932 1.2413-1.1681 2.3808-2.1137 3.3766l-0.04162-0.0203-2.6975-0.0348c-0.51906-0.29655-0.9711-0.30239-1.3561-0.0175-0.0839-0.47247 0.08625-0.98126 0.62764-1.543-0.62145 0.2499-1.0203 0.72269-1.1507 1.4646h-1.7261c-0.71948-0.4192-1.3483-0.47501-1.8445 2.4e-4 0.1788-0.78856 0.6437-1.3479 1.2692-1.7786-0.75853 0.3534-1.3356 0.9067-1.6476 1.7522-0.59333-0.40423-0.55152-0.97187 0.41844-1.7784 0.11398-1.6432 5.1549-0.49033 6.2728-1.7923 1.1533-1.3432 0.51615-3.4083 0.44836-6.2104zm44.368-27.45c0.74851 0.34633 1.4843 0.73062 2.2134 1.1394 0.24649-0.52078 0.58174-1.0648 0.95571-1.5607 0.33528-0.44458 0.70344-0.85185 1.0698-1.1713-0.26492-0.13142-0.52977-0.26022-0.79465-0.38619-1.1554 0.64323-2.313 1.2908-3.4442 1.9787zm2.6137 1.3666c1.1679 0.67064 2.3211 1.3981 3.4839 2.1265 0.1938-0.54359 0.4741-1.1194 0.79785-1.651 0.32546-0.5343 0.69702-1.0262 1.0724-1.3987-1.0934-0.65349-2.1882-1.2564-3.283-1.8121-0.38669 0.30975-0.78681 0.74152-1.1494 1.2222-0.3637 0.48183-0.68773 1.0106-0.92184 1.5131zm3.8829 2.3761c1.2236 0.76428 2.4609 1.5224 3.7399 2.2095 0.19677-0.53613 0.47742-1.1022 0.80016-1.6248 0.28792-0.46619 0.61084-0.89971 0.94035-1.2489-0.52353-0.3764-1.0475-0.74015-1.5722-1.0916-0.67617-0.45292-1.3533-0.88554-2.0311-1.2985-0.37505 0.35128-0.75441 0.84597-1.0864 1.3909-0.32766 0.53739-0.60748 1.1214-0.79068 1.6635zm4.1495 2.4262c0.15849 0.0825 0.31761 0.16399 0.47747 0.24405 1.4885 0.7457 2.9771 1.509 4.4659 2.2803 0.10957-0.3184 0.23921-0.63807 0.38312-0.9462 0.17238-0.36881 0.36597-0.72192 0.57179-1.037-1.3906-1.2163-2.7892-2.334-4.1931-3.3603-0.32068 0.33131-0.63947 0.756-0.92427 1.2171-0.31943 0.51675-0.59447 1.0771-0.78095 1.602zm5.3548 2.7376c1.9872 1.0313 3.9748 2.0752 5.962 3.1083-1.6742-1.8242-3.3664-3.4862-5.0712-4.9988-0.17989 0.28146-0.35023 0.59542-0.50366 0.92379-0.14724 0.31499-0.27858 0.64241-0.38714 0.96669zm-60.751-0.85207c0.82899-0.025 1.6676-0.0658 2.5133-0.12176-0.08991-1.0333-0.10414-2.2296-0.04839-3.3926 0.06025-1.2474 0.20233-2.464 0.42124-3.4134-0.28731-4e-3 -0.57108-0.011-0.85146-0.0214-0.47667 1.1911-0.94874 2.3835-1.3271 3.6107-0.28252 0.94041-0.49562 1.8919-0.64852 2.8622-0.02201 0.15864-0.04146 0.31739-0.05908 0.47638zm2.9812-0.15409c1.4009-0.10144 2.8199-0.24389 4.2463-0.42389-0.13412-0.95641-0.21463-2.0358-0.23582-3.092-0.02455-1.2459 0.03429-2.4668 0.18748-3.428-1.3275 0.11763-2.5973 0.17417-3.8074 0.17351-0.23458 0.89651-0.38653 2.1349-0.4485 3.4194-0.05598 1.157-0.03807 2.3452 0.058 3.351zm4.7094-0.48358c1.9851-0.26154 3.9817-0.59518 5.9605-0.99256-0.28445-0.89908-0.53822-1.9166-0.73324-2.9221-0.23783-1.2283-0.38851-2.4462-0.40055-3.4214-1.0877 0.27959-2.1433 0.49977-3.1617 0.6345-0.57264 0.0757-1.1357 0.14092-1.689 0.19558-0.17462 0.9112-0.2426 2.1614-0.21714 3.4519 0.02056 1.0496 0.10348 2.1205 0.24104 3.0541zm6.4203-1.0862c1.8848-0.38843 3.7511-0.8341 5.5735-1.3298-0.35814-0.96208-0.68734-2.0936-0.94242-3.2124-0.28556-1.254-0.47866-2.4999-0.51525-3.4876-1.8068 0.61915-3.5583 1.2021-5.2365 1.6553-0.01751 0.92859 0.12896 2.1756 0.37515 3.4464 0.1964 1.0153 0.4559 2.0409 0.74554 2.9281zm6.0274-1.4546c2.0185-0.56046 3.9799-1.1818 5.8491-1.8541-0.38687-0.96743-0.74824-2.116-1.0321-3.2531-0.31538-1.2651-0.53568-2.5238-0.58867-3.517-1.7243 0.52846-3.423 1.1135-5.0789 1.684-0.19719 0.0679-0.3938 0.13568-0.58978 0.20309 0 5e-3 2.6e-5 9e-3 2.6e-5 0.0141 0.0016 0.93745 0.19122 2.2184 0.48789 3.5212 0.25601 1.1254 0.591 2.261 0.95239 3.2018zm6.2903-2.0143c0.50784-0.18635 1.0086-0.37653 1.5014-0.57013-0.0075-0.75924-0.0404-1.5157-0.10231-2.2757-0.09964-1.0918-0.25813-2.1631-0.47424-3.2385-0.09197-0.43191-0.19354-0.86059-0.29829-1.2889-0.743 0.1918-1.483 0.40066-2.2187 0.62095 1.85e-4 9e-3 5.29e-4 0.0171 5.29e-4 0.0257 0.02069 0.93726 0.23648 2.214 0.55978 3.5105 0.28239 1.1338 0.64593 2.2762 1.0317 3.2162zm-22.729-31.332c2.0209-4.0326 1.6836-8.4374-0.4594-11.475-1.2134-1.7196-3.368-3.477-6.4217-3.8956-0.55398-0.0759-1.3075-0.24146-1.7496-0.64161-0.20095-0.18185-0.07742-0.60121-0.29903-0.7507-0.45484-0.30666-0.98237-0.48001-1.7007-0.25186-2.2329 0.3642-3.3446-0.11147-4.2428 0.69583-0.84368 0.75832 0.56007 3.1039-1.0767 3.8964 0.08604-3.2728-0.46733-5.9329-1.9552-7.6976 0.80087 2.5596 1.052 4.9936 0.65916 7.2804-0.08379 0.48789-0.38738 0.91213-0.53073 1.3865-0.46839 1.5495-0.82172 3.0444-2.2147 4.4772-1.1798-0.40595-1.4344 0.83302-1.4779 1.2605-0.07305 0.71845 0.67048 0.95092 1.4109 1.5661 0.38783 0.32223 0.58155 0.89606 1.0726 1.162 0.43728 0.23685 0.89929 0.44138 1.3567 0.59502-1.007-0.82198-1.7514-1.6212-1.7702-2.357 0.45355 0.38539 0.99306 0.63085 1.6583 0.67212-0.43775-0.4128-0.79428-0.81409-0.86098-1.1738 0.16946 0.13385 0.3256 0.17508 0.46842 0.12377-0.37084-0.44413-0.5584-0.7966-0.43894-0.99552 0.09284-0.15473 0.43103-0.33562 0.89397-0.15642-0.06977-0.52401 0.06472-0.82222 0.49781-0.79041 0.07644 0.33102 0.34113 0.60409 0.76163 0.82907-0.19354-0.31925-0.24728-0.60622-0.09684-0.84611 0.37378-0.0538 0.27099 0.33909 0.61494 0.34483-0.0095-0.1491-0.05879-0.28827-0.02866-0.44731 0.62685 0.0378 1.1462-0.0783 1.5316-0.38597 0.34002-0.27152 0.37478-0.70893 0.68906-1.2878 0.33338 0.35877 0.30401 0.92017 0.28279 1.2353-0.05879 0.87138-0.82399 1.1434-0.83018 1.9686-0.0057 0.76886 0.30803 1.4195 0.3306 2.4182 0.60685-0.40478 0.33764-1.8164 0.6559-2.552 0.19092-0.44127 0.43053-0.8264 0.74179-1.1286 0.20241 0.36819 0.37211 0.71689 0.48223 1.0302 0.06056 0.17227-0.05622 0.33401-0.03596 0.48223 0.0304 0.22246 0.11184 0.39049 0.06683 0.54419-0.04503 0.15375-0.21662 0.29324-0.44662 0.36052 0.94747 0.78753 1.0707 1.2826-0.01088 1.3503 0.14637 0.70321 0.61606 0.46347 0.48543 1.1336-0.0648 0.33253-0.33023 0.23873-0.82243 0.16185 0.17402 0.508 0.77534 0.44151 0.64333 0.70908-0.12639 0.25619-0.31192 0.19127-0.83063 0.13711 0.10493 0.31641 0.34068 0.55104 0.70726 0.70392-0.4889 0.23738-0.99425 0.14764-1.516-0.26935 0.38492 0.61463 0.81767 1.0193 1.2941 1.2313 0.50715 0.22571 1.0639-0.0736 1.6655 0.0437 0.39513-1.7876 5.29e-4 -3.6329 0.59955-4.9597 0.40973-0.90771 1.3433-1.2196 1.9416-2.1403-1.999-0.2766-1.7956-1.1362-1.7703-1.547 0.02596-0.42284 0.55105-1.0772 1.2421-1.2054-0.01884-0.50503 0.0092-1.0473 0.07945-1.5728 0.08361-0.62513 0.22752-1.2296 0.42354-1.724-0.943-6e-3 -1.614 0.41606-1.995 1.4-0.14578-1.3569 0.86437-2.1544 2.1096-2.0887 1.4612 0.0774 2.6385 0.48721 3.5844 1.0943 1.3126 0.84235 2.1689 2.0596 2.7175 3.2932 0.20651 0.46437 0.36894 0.92882 0.4953 1.3746 0.1484 0.52369 0.24834 1.0246 0.31226 1.4715 0.23617 1.6495-0.09141 3.4549-1.1265 5.2868-0.42212 0.74702-0.96221 1.4987-1.6302 2.2462-0.0122 0.0345-0.04122 0.0699-0.09612 0.10654-0.77621 0.85262-1.7195 1.6992-2.8446 2.5264l-0.01617 0.0108c-1.9718 1.2834-3.6481 2.4369-5.0092 3.5676-1.3385 1.1121-2.3566 2.1908-3.0292 3.3357-0.9407 1.6013-1.3713 3.1821-1.524 4.6653-0.15356 1.4916-0.02662 2.8919 0.14594 4.1179 0.45971 3.2669 2.7456 5.8792 6.6105 7.4192 1.029 0.41003 2.169 0.74412 3.4152 0.99494 0.63291 0.12631 1.2688 0.22765 1.9094 0.30795 0.03273 4e-3 0.06533 8e-3 0.09813 0.0122 7e-3 7.9e-4 0.01416 2e-3 0.02119 3e-3 2.8147 0.33668 6.0776 0.2966 9.749-0.18915 2.9476-0.38989 6.2757-1.5366 9.7974-2.7498 2.5282-0.87101 5.1549-1.7758 7.8254-2.4657-1.85e-4 -7.9e-4 -2.65e-4 -2e-3 -5.29e-4 -2e-3l0.10623-0.025c4.581-1.1731 9.2882-1.7042 13.844-0.33742 2.4139 0.72419 4.846 1.6369 7.2816 2.773l0.82712 0.37468c-6e-3 4e-3 -0.0126 7e-3 -0.0189 0.0105 2.2045 1.0731 4.4106 2.3324 6.6076 3.804 4.3649 2.9239 8.6922 6.6858 12.897 11.49 17.177 8.8587 34.338 16.411 51.302 7.6203-22.287 4.1449-34.122-2.9004-45.723-11.287-15.183-10.976-23.613-20.198-33.815-21.144-7.2122-0.66905-15.024 0.86873-23.48 1.332-4.2777 0.23437-8.8243 1.336-13.33-0.58743-2.2056-0.94147-3.5801-2.3522-3.7636-4.4349-0.77409-2.9507-0.30123-5.4964 0.79645-7.8393 0.82704-1.7652 2.2807-3.3733 3.2791-5.0364zm-8.3741-9.1619c0.31303 0.0425 0.64048 0.17174 0.9493 0.34208 0.24323-0.50681 0.56803-1.0337 0.92982-1.5152 0.37986-0.50528 0.80246-0.96287 1.2163-1.2983-0.70892-0.40092-1.5563-0.68323-2.5674-0.78682-0.21138 0.47824-0.36605 1.1008-0.4531 1.752-0.06747 0.50456-0.09395 1.0244-0.0749 1.5062zm1.3416 0.5856c0.21826 0.15052 0.41746 0.31337 0.58335 0.46834 0.19307 0.18047 0.35642 0.39203 0.49244 0.62574 0.38386-0.36925 0.83743-0.72856 1.3081-1.0393 0.55118-0.36367 1.1287-0.6627 1.6488-0.83672-0.45643-0.7603-1.0633-1.4696-1.8642-2.0167-0.42167 0.31345-0.86566 0.78417-1.2637 1.3139-0.35557 0.473-0.67284 0.99092-0.90472 1.4847zm1.2881 1.5286c0.19481 0.47972 0.2985 1.0203 0.32525 1.567 0.53673-0.16777 1.1439-0.28948 1.743-0.35338 0.67281-0.0713 1.3389-0.0699 1.8885 0.021-0.06011-0.41899-0.15383-0.88844-0.29289-1.3791-0.11882-0.41923-0.27001-0.85238-0.46027-1.2803-0.07112-0.15989-0.14774-0.31938-0.23032-0.4776-0.50062 0.15412-1.0737 0.44691-1.6237 0.81-0.49326 0.32551-0.96554 0.70598-1.3496 1.0924zm0.32933 2.0481c-0.01926 0.6114-0.12988 1.2104-0.31231 1.7203 0.55761 0.0673 1.1602 0.20505 1.7319 0.39217 0.64196 0.2105 1.2482 0.48453 1.712 0.79229 0.44897-1.1208 0.61775-2.2134 0.54644-3.2428-0.52713-0.10694-1.2018-0.11411-1.889-0.041-0.62132 0.066-1.25 0.19728-1.789 0.37902zm-0.49943 2.1613c-0.27458 0.55573-0.60531 1.0958-1.0019 1.6088 0.50223 0.26485 1.0222 0.61484 1.4945 1.0004 0.46905 0.38336 0.89297 0.80373 1.2076 1.2139 0.55944-0.64797 1.0175-1.2971 1.3815-1.9412 0.13412-0.23741 0.25556-0.47397 0.36444-0.70959-0.43416-0.30302-1.0302-0.57621-1.6683-0.7852-0.59052-0.1936-1.2141-0.33121-1.7778-0.38711zm-1.2982 1.9723c-0.17801 0.20741-0.36774 0.40963-0.56989 0.60593-0.34129 0.33149-0.70287 0.64595-1.0654 0.93966 0.4391 0.28493 0.88323 0.63662 1.2861 1.0146 0.46953 0.44092 0.88527 0.92003 1.1743 1.3756 0.70715-0.57385 1.326-1.1539 1.862-1.736-0.29485-0.4019-0.71445-0.82267-1.185-1.2071-0.47575-0.38876-1.0014-0.73817-1.502-0.99262zm-2.0168 1.8472c-0.73866 0.57049-1.4525 1.0477-1.9743 1.3984 0.34512 0.29384 0.68442 0.63092 0.99245 0.98382 0.45995 0.52756 0.85212 1.0937 1.0914 1.6102 0.60275-0.41116 1.2406-0.83346 1.9129-1.2711 0.15632-0.11494 0.30901-0.23035 0.45802-0.346-0.26686-0.4331-0.66752-0.89765-1.1252-1.3273-0.42474-0.39862-0.89657-0.76536-1.3552-1.048zm-2.3692 1.666c-0.02413 0.0166-0.04744 0.0329-0.06974 0.0486-0.66654 0.46763-1.3154 0.95253-1.9413 1.4527 0.34385 0.26374 0.6835 0.56571 0.99576 0.88358 0.50422 0.51395 0.93911 1.0728 1.207 1.5862 0.58536-0.45025 1.2201-0.90845 1.9028-1.3808-0.215-0.4934-0.59664-1.0503-1.0515-1.5718-0.323-0.37031-0.68162-0.72141-1.0429-1.0185zm-2.378 1.7989c-0.72784 0.5975-1.4217 1.2158-2.0735 1.8517 0.38015 0.28511 0.75806 0.62026 1.1021 0.97478 0.4581 0.47257 0.85826 0.98234 1.1258 1.4598 0.46138-0.47667 0.97904-0.94911 1.552-1.4252 0.16036-0.13319 0.32533-0.26699 0.49474-0.40129-0.24024-0.49133-0.66453-1.0426-1.1643-1.5517-0.32472-0.33083-0.68006-0.64275-1.0368-0.90807zm-2.4033 2.1782c-0.73962 0.74509-1.4196 1.513-2.0266 2.2989 0.4695 0.22757 0.95189 0.52017 1.3971 0.8437 0.56089 0.40802 1.0654 0.86781 1.4135 1.314 0.04728-0.085 0.09578-0.16986 0.14579-0.25498 0.35073-0.59705 0.78393-1.1729 1.2969-1.7401-0.24212-0.47593-0.64775-1.0036-1.1226-1.4932-0.34478-0.35549-0.72451-0.68953-1.104-0.96835zm-2.3088 2.6728c-0.9216 1.2499-1.6545 2.5425-2.1445 3.8577 0.67744 0.0175 1.469 0.16094 2.2106 0.3869 0.67381 0.20545 1.3099 0.48059 1.7873 0.79451 0.20238-0.9145 0.52123-1.8543 1.0007-2.8052-0.31467-0.46046-0.84228-0.95584-1.443-1.3927-0.45061-0.32771-0.94025-0.62095-1.411-0.84121zm-2.3048 4.3151c-0.3637 1.1091-0.55113 2.2325-0.52962 3.3585 0.70924-0.0921 1.5899-0.0492 2.4233 0.0986 0.73917 0.13124 1.4453 0.34616 1.9685 0.62532-0.01831-0.61841-0.0028-1.2622 0.06559-1.926 0.03188-0.31002 0.07541-0.62418 0.13227-0.94179-0.44794-0.33295-1.1095-0.62944-1.8213-0.8464-0.75904-0.23159-1.5703-0.37095-2.2387-0.36819zm-0.50908 3.8188c0.02426 0.34612 0.06853 0.69241 0.13406 1.0384 0.10472 1.0308 0.24778 2.0137 0.4281 2.9501 0.63466-0.25334 1.43-0.43379 2.2113-0.51623 0.71184-0.075 1.416-0.0686 1.9829 0.0392-0.07115-0.29173-0.12824-0.58902-0.17084-0.89173-0.08043-0.57131-0.15108-1.18-0.18984-1.8193-0.0318-0.0109-0.0631-0.0299-0.09422-0.049-0.48665-0.29599-1.2098-0.52554-1.9772-0.66167-0.79436-0.14134-1.6311-0.18132-2.3001-0.0928-0.0081 1e-3 -0.01603 2e-3 -0.02408 3e-3zm0.6545 4.4469c0.3878 1.8544 0.92689 3.5196 1.6109 5.0036 0.48056-0.43172 1.1001-0.85061 1.7393-1.1881 0.51321-0.27075 1.0417-0.48995 1.5252-0.62209-0.16687-1.0011-0.29454-2.0082-0.42331-3.0154-0.07824-0.20103-0.14907-0.40523-0.21254-0.61243-0.54859-0.14671-1.3016-0.16597-2.0711-0.0848-0.77369 0.0812-1.559 0.26387-2.1685 0.51914zm1.8174 5.4375c0.88395 1.7968 1.9903 3.3156 3.3071 4.5712 0.16386-0.43895 0.3742-0.8889 0.61214-1.3129 0.12234-0.21799 0.25246-0.4296 0.38751-0.62955-0.09054-0.26114-0.17851-0.52318-0.2636-0.78687l-0.85728-3.3638c-0.01688-0.0894-0.03329-0.17902-0.04937-0.26855-0.43765 0.12353-0.91842 0.3248-1.3886 0.57306-0.65336 0.34435-1.2826 0.77769-1.7479 1.2173zm3.6732 4.9089c0.50774 0.45254 1.0449 0.86831 1.6108 1.248 0.03405-0.23506 0.08385-0.46845 0.15364-0.70006-0.3243-0.70943-0.61735-1.4314-0.89305-2.1606-0.01492-0.0407-0.02963-0.0816-0.04442-0.12235-0.06178 0.10033-0.12226 0.20307-0.18087 0.3075-0.25961 0.46202-0.48395 0.9557-0.64614 1.4275z" fill="#1b1918" fill-rule="evenodd" stroke-width=".26458"/> </svg>