<?xml version='1.0' encoding='utf-8'?>
<svg xmlns="http://www.w3.org/2000/svg" version="1.1" viewBox="0 0 466.88 532.5"> <path d="m371.71 522.42c0.26024-3.9961 1.393-11.695 2.5172-17.109 1.7133-8.2508 2.055-13.106 2.1119-30 0.0669-19.874-0.69718-29.569-2.2545-28.607-0.43767 0.27049-1.0924 2.2826-1.455 4.4713-0.36255 2.1887-1.0288 4.684-1.4806 5.545-1.2653 2.4116-6.8344 3.8442-12.118 3.1175-2.7816-0.38258-4.6548-0.27956-4.6548 0.25597 0 0.90173 4.0338 6.2458 10.547 13.973 6.065 7.1954 4.8394 7.512-8.4461 2.1819-5.1408-2.0625-9.7204-3.7457-10.177-3.7405-0.45654 6e-3 -1.5191 1.6508-2.3612 3.6567-1.839 4.3804-5.5348 7.0762-8.6348 6.2981-3.2916-0.82612-7.6239-9.476-20.486-40.902-3.06-7.4766-6.4094-15.992-7.4432-18.923-2.1026-5.9614-3.1407-6.9112-16.595-15.183l-8.7521-5.3808-15.826-0.33827c-8.7043-0.18605-16.233-0.5897-16.73-0.89699-0.49722-0.3073-1.1514-0.15846-1.4538 0.33073-0.55839 0.90352 0.79813 4.2006 7.9395 19.297 5.472 11.568 13.802 32.449 14.563 36.506 0.73596 3.923 0.14243 4.0885-6.5209 1.818-2.5059-0.85386-4.7942-1.1619-5.2229-0.70313-1.1808 1.2635-3.6018 13.141-4.3229 21.207-0.56326 6.3012-0.88727 7.2656-2.441 7.2656-1.199 0-2.3897-1.3178-3.6001-3.9844-0.99471-2.1914-1.8178-4.4602-1.8292-5.0418-0.0113-0.58156-0.68283-2.6423-1.4922-4.5795l-1.4716-3.5221-3.4502 3.3128c-5.1713 4.9653-11.963 8.0703-19.908 9.1014-9.0559 1.1752-25.883 1.1754-34.01 3.9e-4 -3.5233-0.50938-6.7837-0.6927-7.2454-0.40738-0.75683 0.46774 7.8951 15.639 10.982 19.257 1.9059 2.2339 1.5615 2.7387-1.8685 2.7387-7.2612 0-25.496-5.9021-27.082-8.7659-1.1707-2.113-7.7296-17.718-11.486-27.328-1.2093-3.0938-4.5881-11.742-7.5083-19.219-2.9202-7.4766-7.0089-17.602-9.0859-22.5-2.077-4.8984-4.9521-12.07-6.3891-15.938-1.437-3.8672-4.1024-10.828-5.9231-15.469l-3.3104-8.4375-7.8074 0.19552c-18.251 0.45705-41.083 5.1143-50.753 10.353-6.3524 3.4411-15.785 13.152-19.708 20.29-1.7502 3.1841-3.9271 8.9386-4.8375 12.788-3.2968 13.939-5.2398 16.8-7.9584 11.721-2.2167-4.1419-3.0203-2.7092-2.2155 3.9497 1.2812 10.601 0.8926 12.939-2.9256 17.598-5.4536 6.6554-14.885 11.343-17.858 8.876-1.5925-1.3216-1.8172-10.165-0.53834-21.187 0.75983-6.549 0.99637-7.0013 13.483-25.781 10.749-16.166 14.275-20.661 22.857-29.133 21.017-20.75 27.996-25.143 44.506-28.016 5.7196-0.99543 11.876-1.8099 13.682-1.8099 2.8893 0 3.135-0.17799 2.05-1.4853-0.67798-0.81693-4.0732-2.9158-7.545-4.6642s-6.5826-3.6161-6.9129-4.1506-2.9984-2.5033-5.9291-4.3752-7.8598-5.5607-10.954-8.1974c-8.4884-7.2344-11.169-8.8831-16.853-10.363-2.8607-0.74511-5.5807-1.5893-6.0445-1.8759-1.1903-0.73564-8.1756 8.2841-11.494 14.841-4.295 8.4875-5.6627 16.393-4.3505 25.144 1.2045 8.0334 0.47996 10.126-3.5057 10.126-3.3362 0-3.5018 1.374-0.79055 6.5592 3.1147 5.9568 2.7789 10.685-1.3551 19.083-6.1373 12.467-8.2065 12.826-13.294 2.3062l-3.7125-7.677 0.43285-13.3c0.45829-14.082 0.71422-15.139 7.0305-29.046 4.945-10.888 7.284-16.43 10.841-25.69 5.9164-15.4 7.7785-18.125 14.895-21.792 6.8479-3.5287 11.772-2.3532 31.427 7.5028 9.472 4.7496 17.33 8.526 17.463 8.3921 0.13245-0.13391-0.05339-6.9349-0.41297-15.113-0.37136-8.4462-0.27002-17.19 0.23457-20.241 0.77802-4.7044 0.53383-6.7521-1.9659-16.487l-2.8543-11.115-5.5026-1.1739c-12.779-2.7261-12.534-2.727-12.534 0.04664 0 1.3711-0.59474 2.7212-1.3216 3.0002-1.7776 0.68212-6.7227-1.9623-7.5679-4.047-0.51492-1.27-0.95007-0.64081-1.7987 2.6008-2.3165 8.8484-8.2741 13.264-10.99 8.1457-0.6156-1.1602-1.9406-2.6918-2.9445-3.4038-2.2725-1.6116-4.4397-6.6545-4.4397-10.331 0-1.8948-0.55975-2.9571-1.7588-3.3376-3.4178-1.0848-8.2837-14.997-10.342-29.568-2.7618-19.551-2.9895-26.442-0.91608-27.723 1.7412-1.0761 0.6959-2.0586-2.7819-2.6148-2.7067-0.43281-4.6628-1.7015-7.8087-5.0648-4.9301-5.2706-7.8042-9.4356-7.0393-10.2 0.29955-0.29954 3.3592-0.0545 6.7992 0.54456 3.44 0.59905 6.4112 0.93256 6.6026 0.74113 0.19143-0.19143-0.68767-1.7519-1.9536-3.4677-1.2659-1.7158-2.0923-3.4583-1.8365-3.8722 0.25578-0.41388 2.3861 0.071 4.7341 1.0774 2.348 1.0065 4.784 1.8299 5.4135 1.8299s3.3649 1.1065 6.0789 2.4589l4.9344 2.4589 2.5666-2.4589c1.4116-1.3524 2.8635-2.4589 3.2265-2.4589s2.3648-1.235 4.4486-2.7445c5.3154-3.8504 16.131-8.1674 23.815-9.5056 7.5121-1.3082 26.233-0.65044 31.676 1.1129 1.9332 0.62631 3.709 0.94462 3.9462 0.70735s0.0689-4.9607-0.37421-10.496c-0.97019-12.121 0.23512-19.343 4.1781-25.033 3.5429-5.1124 8.5109-9.1506 12.876-10.466 4.0266-1.2134 3.9146-0.99766 2.2461-4.3248-0.69821-1.3924-2.2256-6.7334-3.3942-11.869-2.4891-10.939-2.188-17.081 1.3061-26.636 2.4925-6.8162 9.515-20.205 13.027-24.835 3.4342-4.5286 8.1392-13.949 8.1414-16.301 2e-3 -1.7781-0.50323-2.1094-3.2154-2.1094-2.4813 0-3.661-0.62294-5.1562-2.7228-2.5944-3.6435-2.443-6.8467 0.48825-10.33 2.0726-2.4631 3.0654-2.8838 6.7969-2.8798 5.3507 0.0057 13.124-2.6563 14.328-4.9068 0.53035-0.99096 1.9629-1.6604 3.5533-1.6604 1.4656 0 3.2033-0.64891 3.8615-1.442 0.91389-1.1012 2.2152-1.2969 5.5054-0.82795 2.3698 0.33774 4.7094 0.98666 5.1993 1.442 0.48984 0.45537 1.8082 0.82795 2.9297 0.82795 1.473 0 2.1839-0.71573 2.5606-2.5781 0.28688-1.418 1.4496-3.569 2.5838-4.7801 1.629-1.7394 2.6702-2.0804 4.9569-1.623 3.3274 0.66548 3.9098 1.1585 4.7828 4.0488 0.47787 1.5821-6e-3 2.6914-1.964 4.5064l-2.5979 2.4077 25.272-0.56149c13.9-0.30882 37.296-0.95719 51.991-1.4408 73.615-2.4227 78.831-2.2489 79.525 2.6505 0.8097 5.7117-3.0619 6.5301-49.525 10.469-12.117 1.0273-27.727 2.2928-34.688 2.8122-6.9609 0.51942-17.508 1.3579-23.438 1.8634-5.9297 0.50544-18.787 1.3879-28.572 1.9609-9.785 0.57306-18.131 1.2522-18.547 1.5092-0.41586 0.25701 0.31272 1.308 1.619 2.3356 4.294 3.3777 2.6311 8.2947-2.8052 8.2947-3.5424 0-6.281-2.716-8.0352-7.9688-0.68878-2.0625-1.3498-3.9036-1.469-4.0913-0.11918-0.18769-1.313 0.5211-2.6529 1.5751s-5.37 2.6721-8.9556 3.5958-6.5194 1.9551-6.5194 2.2921c0 0.33697 1.1602 0.8469 2.5781 1.1332 7.503 1.5148 26.107 26.289 33.931 45.183 2.135 5.1562 4.2771 10.324 4.7602 11.484s1.4803 2.1094 2.216 2.1094c2.781 0 9.4102 4.3944 13.586 9.0059 5.4662 6.0364 13.194 21.352 17.415 34.515 3.6212 11.292 7.8476 20.076 11.891 24.715 2.8605 3.2815 3.3163 5.7069 1.6555 8.8102-0.88818 1.6596-0.45415 2.517 3.1719 6.2665 2.3105 2.3891 5.3468 6.4532 6.7472 9.0313 1.4005 2.5781 3.1372 5.3535 3.8593 6.1676 0.72216 0.81404 1.313 1.7449 1.313 2.0687s2.6367 5.2956 5.8594 11.049c3.2227 5.753 7.5687 13.608 9.6579 17.455s4.8408 8.2892 6.1147 9.8713l2.3161 2.8767 3.2558-1.6837c1.7907-0.92602 9.6398-7.9474 17.442-15.603 13.593-13.337 14.347-13.92 18.007-13.92 7.2042 0 11.305 3.5616 12.303 10.686l0.512 3.6543 5.625-4.8496c7.7688-6.6978 16.253-10.841 20.549-10.035 1.8528 0.34759 4.0851 1.6427 5.1374 2.9805 2.1991 2.7957 4.0626 10.938 3.6612 15.996-0.27591 3.4774-0.19812 3.5791 2.5278 3.3036 1.5469-0.15632 3.6562-0.3647 4.6875-0.46307 1.5028-0.14337 1.8395 0.33602 1.6964 2.4149-0.41187 5.9802-8.3958 11.83-17.24 12.632-5.0266 0.45579-5.7393 0.79648-7.4473 3.5601-4.5014 7.2835-24.503 9.8395-33.962 4.34-1.418-0.82445-2.5781-1.8299-2.5781-2.2344 0-1.7668-1.8937-0.51872-2.425 1.5983-0.82039 3.2687-6.2628 7.765-10.32 8.5262-4.3355 0.81335-12.287-0.94189-19.963-4.4064-7.1683-3.2357-7.6686-3.307-4.8623-0.69248 2.7374 2.5503 5.6477 8.9029 5.6745 12.386 0.0162 2.113 0.35113 2.5516 1.5863 2.0776 5.121-1.9651 11.885-2.6897 25.622-2.7448l15.469-0.0621 8.9062 3.5951c14.15 5.7117 23.926 11.569 32.091 19.226 9.0246 8.4636 13.978 15.297 20.398 28.14 4.8461 9.694 14.073 33.41 14.073 36.171 0 0.78874 1.1602 1.8875 2.5781 2.4416 3.7299 1.4577 15.997 1.4003 20.508-0.0959 7.1013-2.3556 12.174 1.5402 14.778 11.349 0.73531 2.7703 1.6323 5.7751 1.9933 6.6775 1.203 3.0069-1.3747 1.725-2.8277-1.4062l-1.4139-3.0469 0.54908 2.8073c0.79925 4.0864 2.0644 5.1562 5.9189 5.0051 3.6439-0.14278 7.6044 1.4535 7.6044 3.065 0 0.59354-0.81559 0.68712-2.1094 0.24205-1.1602-0.3991-3.5859-0.74394-5.3906-0.7663-5.551-0.0688-9.3143-2.391-11.814-7.2904-2.9017-5.6872-5.3638-6.4032-12.231-3.5568-2.7952 1.1585-6.0842 1.9149-7.309 1.6808-1.9974-0.38182-2.263-0.0452-2.579 3.2682l-0.35226 3.6939 3.3146-0.61967c10.129-1.8936 10.616-1.835 15.45 1.8546l4.5701 3.4884 7.116-0.5905c7.5942-0.6302 10.478-0.12488 14.125 2.4752 2.962 2.1114 1.7101 3.4671-4.7217 5.1131-2.6091 0.66771-6.1791 2.3088-7.9333 3.6468-4.8001 3.6612-10.571 3.4836-15.5-0.47679-3.4173-2.7462-4.061-2.9409-6.6921-2.0236-4.0662 1.4175-7.4818 1.2652-9.9196-0.44239-1.9729-1.3819-2.1399-1.3212-3.2299 1.1719-0.63217 1.446-3.1261 5.71-5.542 9.4754-4.9925 7.7814-4.8926 6.1701-1.6975 27.372 3.8148 25.315 5.3938 30.999 10.386 37.392 0.96037 1.2297 1.7461 3.3816 1.7461 4.782s0.46622 3.8836 1.036 5.5182c1.2518 3.5908 0.15621 5.3345-3.9133 6.2283-1.5112 0.33192-2.7477 1.1398-2.7477 1.7954 0 2.8616 2.1638 6.9576 4.6443 8.7915 1.4783 1.093 3.1787 3.4746 3.7787 5.2925 2.2889 6.9353-3.9115 19.331-11.704 23.399-3.1301 1.634-5.5321 1.972-14.531 2.045-8.9456 0.0726-11.5 0.4282-15 2.0888-2.3203 1.1008-5.382 2.0106-6.8038 2.022l-2.5851 0.0206 0.47316-7.2656zm9.8532 1.5379c1.8047-1.0839 5.4649-4.2052 8.1338-6.9362 5.3568-5.4814 7.3448-10.33 5.8489-14.265-1.0334-2.7179-1.3487-2.5604-3.5179 1.7576-1.9276 3.8369-6.8153 7.2025-11.563 7.9616-3.4173 0.54644-3.5954 0.74849-3.707 4.2042-0.0645 1.9966-0.16992 4.8958-0.23437 6.4427-0.13878 3.3308 0.66228 3.4635 5.0391 0.83473zm29.445-4.7579c6.3468-5.2315 10.425-17.707 6.93-21.202-1.7758-1.7758-2.3255-1.3981-4.4988 3.0913-1.1226 2.3189-3.8561 5.7994-6.0746 7.7344-4.0203 3.5066-4.032 3.5354-3.5611 8.7931 0.54684 6.1058 1.4711 6.3089 7.2044 1.5831zm-11.984 0.056c-0.32227-1.6113-0.60446-4.6699-0.62709-6.7969l-0.0411-3.8672-1.3166 3.75c-0.72415 2.0625-2.8853 5.1211-4.8026 6.7969l-3.4859 3.0469h10.859l-0.58593-2.9297zm-13.217-11.704c1.1521-0.75487 3.042-3.1583 4.1999-5.3409l2.1052-3.9684-2.3947-3.5287c-1.5224-2.2433-2.272-4.4564-2.0578-6.0753 0.18526-1.4006 0.3659-3.3223 0.40143-4.2705 0.0572-1.526 0.40106-1.4408 2.9948 0.74165 3.6593 3.0791 4.8429 2.3193 1.3827-0.88752-1.3989-1.2965-2.2669-2.8047-1.9289-3.3516 0.40019-0.64752 1.2382-0.43005 2.4023 0.62339 2.4198 2.1899 3.1546 1.1418 1.4803-2.1117-3.4087-6.6238-7.2042-24.298-7.2042-33.548 0-2.3505-0.19662-4.2736-0.43694-4.2736s-1.975 0.73346-3.8549 1.6299l-3.418 1.6299 0.58055 8.917c1.5768 24.219 1.5957 27.962 0.19335 38.448-0.79295 5.9297-1.8771 12.255-2.4092 14.056-0.53208 1.8013-0.96742 3.4303-0.96742 3.62 0 0.7724 6.9836-1.034 8.9313-2.3101zm23.647-5.0762c3.4602-5.7358 3.6614-7.5901 1.5308-14.104-1.7281-5.2833-0.84885-7.4358 3.0372-7.4358 2.7782 0 2.8043-0.62573 0.11958-2.8654l-2.1094-1.7597 2.3438-0.0624 2.3438-0.0623-2.1094-1.7597c-2.6113-2.1784-2.7072-3.2404-0.23437-2.5938 2.3954 0.62641 2.3939-0.44891-4e-3 -2.6186-2.386-2.1593-6.9817-16.476-8.4255-26.247-0.60952-4.125-1.6594-10.242-2.333-13.594-0.67366-3.3516-1.5166-8.5624-1.8732-11.58-0.60954-5.1572-0.73076-5.3683-2.0232-3.5231-0.75615 1.0796-2.1953 4.3477-3.1982 7.2625-2.0178 5.8648-2.0576 5.353 2.3627 30.34 2.6927 15.222 4.9578 38.873 5.1476 53.75 0.0488 3.8233 1.8497 2.7783 5.4245-3.1476zm-11.035-27.165c-0.97951-11.777-5.7971-40.817-6.9653-41.985-0.22284-0.22283-1.0042 1.0285-1.7363 2.7808-2.1459 5.1359 0.74379 22.802 7.364 45.018 2.0471 6.87 1.4413 8.5729-2.8709 8.0695-4.7671-0.55653-4.2265 2.6986 1.5532 9.3523 1.4713 1.6937 2.7609 3.8031 2.8658 4.6875 0.10495 0.8844 0.35489-1.9779 0.55542-6.3608s-0.14415-14.086-0.76596-21.562zm-213.73 23.016c0-0.23197-1.2066-2.2359-2.6813-4.4531-4.8936-7.3576-15.147-27.845-27.822-55.594-4.251-9.306-7.9589-16.796-19.26-38.906-14.739-28.837-23.024-46.875-21.528-46.875 0.43486 0 3.8768 6.4336 7.6487 14.297 3.7719 7.8633 10.642 21.68 15.267 30.703s12.188 23.953 16.807 33.178l8.398 16.771 1.705-4.5838c0.93775-2.5211 2.1749-5.3669 2.7492-6.3239 0.82963-1.3825 0.67577-2.153-0.74878-3.75-2.8338-3.1768-13.32-20.491-21.089-34.822-8.9044-16.425-21.971-41.425-23.274-44.531-0.5409-1.2891-2.8066-6.1406-5.035-10.781-4.6165-9.6142-12.908-29.019-17.425-40.781-2.9472-7.674-4.9885-11.563-4.131-7.8694 8.4222 36.273 14.265 55.821 23.649 79.119 2.9157 7.2391 9.3488 24.062 12.368 32.344 4.5553 12.495 24.4 62.405 29.297 73.681l5.5336 12.743 7.2085 2.8876c9.92 3.9738 12.365 4.6752 12.365 3.5476zm42.381-22.613c6.7676-2.3018 15.675-7.575 15.72-9.306 0.0232-0.8998-1.4526-5.7148-7.6162-24.847-6.9105-21.451-20.61-57.117-27.07-70.476l-3.5582-7.358-0.60225 3.5647c-1.0587 6.2665 2.3873 21.951 6.695 30.472 2.5648 5.0734 5.1393 14.945 4.5304 17.371-0.95889 3.8205-5.6619 9.0667-9.8012 10.933-4.1605 1.8761-4.5076 2.4906-2.3966 4.2426 2.2081 1.8326 1.6653 3.5701-1.6406 5.2514-1.6758 0.85225-3.1619 1.6461-3.3025 1.7641-0.48908 0.41045 7.7572 8.5012 16.406 16.097 4.7871 4.2041 10.598 8.4228 12.914 9.375 4.372 1.7979 5.4484 3.1375 2.521 3.1375-4.3201 0-18.764-10.802-29.354-21.954l-5.269-5.5482-9.4966 3.5964c-5.2232 1.978-9.4966 3.7201-9.4966 3.8713s2.3203 3.6825 5.1562 7.8473 5.1562 8.0167 5.1562 8.5597c0 0.98928-6.1986-6.3568-10.189-12.075-1.1694-1.6758-2.636-3.0469-3.2591-3.0469-1.3601 0-6.2394 7.279-6.2394 9.308 0 2.8844 8.818 19.749 10.626 20.323 3.9185 1.2437 19.53 2.0722 30.878 1.6387 9.3585-0.35751 13.44-0.95622 18.689-2.7416zm114.12 0.62421c2.457-3.4506 2.4322-3.674-0.34882-3.1423-2.7435 0.52446-5.641 3.4756-4.7801 4.8686 1.0877 1.76 3.1378 1.0699 5.1289-1.7263zm-87.049-17.563c1.197-6.0552 3.3898-8.1871 7.8816-7.6628 2.1216 0.2477 3.1958 0.029 2.9258-0.59566-0.23467-0.54288-2.3088-5.6277-4.6092-11.3-6.1119-15.07-17.052-38.66-18.478-39.844-0.31057-0.25781-2.7363-4.5594-5.3905-9.5592-6.5678-12.372-20.507-32.421-29.414-42.307-1.4573-1.6176-1.5589-1.4814-1.8769 2.5169-0.29699 3.7342 0.56289 6.0517 7.3752 19.878 4.2412 8.6078 7.9941 16.541 8.3397 17.63 0.34557 1.0888 2.2405 5.3587 4.211 9.4888 1.9705 4.13 4.9034 11.306 6.5175 15.947 1.6142 4.6406 5.3906 15.457 8.3921 24.037 3.0015 8.5796 6.31 18.705 7.3522 22.5 1.0422 3.7954 2.4175 8.7991 3.0562 11.119l1.1612 4.2188 0.80191-5.625c0.44105-3.0938 1.2304-7.7927 1.7541-10.442zm102.46 9.7869c-3.9098-5.3476-9.6581-12.94-18.718-24.724-3.1434-4.0884-10.766-15.027-16.938-24.308-19.983-30.047-19.105-28.594-17.287-28.594 0.78864 0 7.5484 9.7858 17.161 24.844 3.5106 5.4991 9.4923 13.724 20.895 28.729 1.0362 1.3637 3.3364 4.4223 5.1114 6.7969l3.2274 4.3174h8.611c9.4674 0 9.4936-0.0141 11.895-6.3786l1.5222-4.0349-10.91-11.238c-6.0007-6.1809-15.538-15.756-21.193-21.278-19.109-18.658-34.121-34.984-41.848-45.512-1.8047-2.4591-4.713-6.2415-6.463-8.4054s-4.6574-6.1492-6.4609-8.8562c-5.1597-7.7446-5.1121-7.5261 2.0943 9.6094 2.3853 5.6719 6.2482 15.164 8.5841 21.094 6.268 15.911 13.128 32.725 22.377 54.844 4.5275 10.828 9.6999 23.273 11.494 27.656 1.7943 4.3828 3.6116 8.342 4.0386 8.7982 0.44505 0.47552 2.4104 0.17552 4.6064-0.70313 2.1066-0.8429 5.1987-1.5325 6.8713-1.5325 2.7619 0 12.376 2.9555 13.602 4.1814 0.27837 0.27837 0.69724 0.31502 0.93082 0.0815 0.23358-0.23358-1.2078-2.6576-3.2031-5.3867zm-345.56-2.9927c5.6034-3.5917 9.4058-8.1813 10.376-12.524 0.83248-3.7258 0.13439-5.2936-1.3137-2.9505-0.93103 1.5064-9.8953 5.5088-12.362 5.5195-1.9702 9e-3 -2.1094 0.41118-2.1094 6.1029 0 3.5167 0.40435 6.0938 0.95613 6.0938 0.52587 0 2.5298-1.0087 4.4531-2.2415zm254.79-10.821c-0.76235-1.2335-5.8201-1.326-6.5654-0.12013-0.29904 0.48385 1.0472 1.0112 2.9915 1.1719 4.1455 0.34256 4.3909 0.27032 3.5738-1.0518zm-253.16-3.4544c7.7209-4.0494 9.0565-5.6974 8.3633-10.32-0.44219-2.9487-0.15937-4.6905 1.1108-6.8407 0.9372-1.5866 1.9891-2.8847 2.3376-2.8847s1.3298 1.7402 2.1808 3.867c2.0108 5.0255 2.7172 4.2081 1.3974-1.6173-0.81011-3.5759-0.76954-5.2166 0.18314-7.406l1.2238-2.8125 0.32748 3.5353c0.3402 3.6726 2.0864 4.002 2.0877 0.39378 1e-3 -2.816 4.9863-13.121 8.9784-18.56 3.7196-5.0672 12.625-12.383 20.444-16.796 2.8951-1.6339 5.4761-3.3142 5.7356-3.7341 0.97022-1.5698 30.716-5.6201 41.275-5.6201 4.3672 0 7.9404-0.22448 7.9404-0.49886 0-0.27437-0.67743-2.0673-1.5054-3.9844-0.82797-1.917-2.4818-6.4386-3.6752-10.048s-4.3033-12.68-6.911-20.156l-4.7412-13.594 0.5298 7.9688c0.65407 9.8378 2.5937 18.109 5.0585 21.57 1.0282 1.444 1.8694 2.8268 1.8694 3.0729 0 0.24614-3.6914 0.73226-8.2031 1.0803-4.5117 0.34801-10.632 1.0499-13.601 1.5598-5.8335 1.0018-17.57 5.8456-17.57 7.2513 0 0.47462-1.3711 1.4256-3.0469 2.1133-3.8737 1.5896-14.814 10.419-23.575 19.026-7.11 6.9851-14.792 16.853-20.518 26.357-1.864 3.0938-5.4733 8.5016-8.0207 12.018-4.6473 6.4141-7.4187 13.388-6.3877 16.075 0.73791 1.923 1.2592 1.8441 6.7121-1.0158zm153.89-1.9986c0.88051-1.418 2.4432-3.5304 3.4727-4.6943 1.8468-2.088 1.8476-2.1345 0.0613-3.4858-0.99576-0.75327-2.1151-1.383-2.4874-1.3994-0.37231-0.0164-1.3732 2.396-2.2242 5.3608-0.85099 2.9648-1.7314 5.707-1.9565 6.0938-0.2251 0.38672 0.0277 0.70313 0.56195 0.70313 0.53417 0 1.6916-1.1602 2.5722-2.5781zm0.31728-5.3353c0-0.80387 0.42187-1.4616 0.9375-1.4616 0.51562 0 0.9375 0.39697 0.9375 0.88217 0 0.48519-0.42188 1.1429-0.9375 1.4616-0.51563 0.31867-0.9375-0.0783-0.9375-0.88217zm211.41-1.6873c1.5469-0.53431 3.7858-1.8529 4.9753-2.9302 3.2483-2.9418 7.5759-11.047 9.1726-17.179 1.6881-6.4828 4.529-11.438 9.8405-17.166 5.8304-6.2867 8.1263-12.028 9.1849-22.969 0.8763-9.0565 2.7629-16.301 4.9228-18.903 0.78829-0.94983 0.70282-1.2528-0.35346-1.2528-2.3264 0-6.2631 4.6983-7.9748 9.5177-0.88945 2.5043-1.971 4.4354-2.4034 4.2912-2.1132-0.70439-0.0821-8.5228 3.0986-11.928 3.1837-3.4082 3.3279-3.7562 1.5561-3.7562-2.5634 0-7.4531 3.1454-8.9322 5.7458-1.6805 2.9545-2.9306 3.483-2.9306 1.2389 0-2.8258 2.7607-6.7358 5.5808-7.9039 3.3274-1.3783 3.27-1.1871 1.4267-4.7518-0.78654-1.521-2.9065-7.5118-4.711-13.313-6.4709-20.802-17.984-39.567-29.73-48.457-2.7006-2.0439-6.1776-4.7428-7.7267-5.9974-3.8715-3.1356-13.938-8.5518-20.152-10.843-11.777-4.3422-26.802-5.4006-40.781-2.8729-10.862 1.9639-12.861 2.919-18.521 8.8469-8.9743 9.3986-8.7324 9.0312-6.6832 10.151 2.8599 1.5631 8.0354 7.4079 9.3538 10.563 1.2318 2.9481 0.89906 6.4309-0.82457 8.6313-1.1931 1.5232-1.0904 1.5921 4.3601 2.9263 5.1802 1.268 14.616 5.7793 19.05 9.1076 1.6414 1.2322 3.2818 2.2404 3.6453 2.2404s3.7829 2.3912 7.5986 5.3138c8.212 6.2899 19.256 17.802 29.527 30.78 4.081 5.1562 9.3026 11.273 11.604 13.594 6.4878 6.5422 4.9753 9.2569-2.0269 3.638-7.5521-6.0601-15.511-9.9762-28.449-13.999-5.7825-1.7979-7.7544-4.0572-2.6927-3.0853 2.801 0.53782 17.477 5.4937 21.638 7.3069 2.7222 1.1862 1.9074-1.1047-1.9085-5.366-1.952-2.1799-4.6432-5.44-5.9804-7.2447-2.9765-4.017-18.545-19.685-23.31-23.459l-3.4739-2.7514-0.57772 4.2149c-0.31775 2.3182-1.2247 5.466-2.0154 6.9951s-1.6982 4.6804-2.0165 7.003c-0.57126 4.1678-0.49541 4.3175 5.8295 11.501 6.8746 7.8074 12.609 13.955 29.51 31.639 5.9065 6.1799 11.11 11.401 11.563 11.603 0.45316 0.20166 3.0563 2.3173 5.7847 4.7014s6.8928 5.8093 9.2542 7.6116c3.6368 2.7757 5.5655 5.6294 3.8048 5.6294-0.26873 0-5.4367-3.9669-11.484-8.8154-11.151-8.9396-25.021-22.639-41.856-41.341-14.991-16.653-36.84-37.735-40.287-38.872-3.5022-1.1558-6.4492-4.1078-10.723-10.741-1.635-2.5376-2.9728-4.2189-2.9728-3.7361 0 1.2836 3.3876 7.4808 7.8953 14.444 2.1698 3.3516 6.0271 9.4134 8.5718 13.471 10.787 17.2 28.618 38.026 53.962 63.03 22.035 21.738 32.685 33.117 32.691 34.928 3e-3 0.83944 0.56234 1.046 1.6449 0.60724 0.90235-0.36572 2.9062-1.1021 4.4531-1.6364zm3.0211-41.597c-0.37256-0.37257-0.67739-1.7161-0.67739-2.9856 0-1.3347-1.4277-3.8885-3.3849-6.0549-2.9237-3.2362-3.312-4.196-2.8496-7.0449 0.29438-1.8141 1.3957-4.2142 2.4474-5.3337 2.7681-2.9465 2.4285-4.4616-2.5823-11.52-3.494-4.9221-4.7424-7.6839-5.6082-12.407-0.61257-3.3413-1.9651-7.2266-3.0055-8.6339-2.628-3.5546-2.3705-5.2862 0.39917-2.6843 2.7017 2.5382 5.0388 7.1984 6.6246 13.21 0.62892 2.3841 2.888 7.2272 5.0202 10.762 4.4392 7.3603 4.9206 11.385 1.9456 16.265l-1.9241 3.1561 1.933 1.3539c2.0789 1.4561 4.7348 5.9692 4.7348 8.0456 0 1.8198-2.2674 4.6771-3.0726 3.8719zm-11.964-27.62c-0.57179-1.0684-3.5618-3.5373-6.6445-5.4864-3.7186-2.3512-6.7026-5.2107-8.8667-8.4967-1.794-2.724-3.1424-5.0722-2.9964-5.2182 0.51182-0.51182 3.0995 1.9579 5.7015 5.4416 2.2394 2.9982 6.7647 6.3271 8.6009 6.3271 0.29666 0-0.0544-1.1602-0.78009-2.5781-0.72571-1.418-1.6153-4.3587-1.9768-6.5349-0.36154-2.1762-1.4661-4.985-2.4546-6.2416-2.4503-3.115-2.3912-4.7167 0.12419-3.3705 2.0853 1.116 2.7478 2.452 5.1018 10.288 0.85195 2.8359 2.6208 6.8009 3.9307 8.8109 3.1695 4.8635 4.3681 9.0016 2.6074 9.0016-0.7193 0-1.7756-0.87414-2.3474-1.9425zm20.404-7.065c-1.704-1.704-0.50343-5.4687 2.7105-8.4998 3.1005-2.9242 3.2665-3.3344 1.942-4.7982-2.2873-2.5278-5.4494-10.641-5.1427-13.195 0.46756-3.8932 2.3245-3.304 3.0054 0.95364 0.34857 2.1798 1.968 6.4666 3.5987 9.5262l2.965 5.5628-3.2387 2.8656c-1.7813 1.5761-3.671 4.0804-4.1994 5.565-0.5284 1.4847-1.2667 2.3934-1.6406 2.0195zm-201.07 71.81c7.262-2.994 11.953-5.4423 11.953-6.2386 0-2.4009-2.8229-2.436-6.3534-0.0789-7.8524 5.2425-14.42 8.4287-15.385 7.4638-0.88286-0.88286-0.2929-9.8162 1.6742-25.351 0.48489-3.8294 0.39093-4.0411-1.664-3.75-2.0641 0.29244-2.2102 0.79847-2.7957 9.6836-1.4254 21.632-1.4674 24.008-0.41634 23.6 0.56876-0.22044 6.413-2.6184 12.987-5.3288zm-4.5685-6.6802c-2.3227-2.5665-3.1659-2.1523-3.1659 1.5553v3.3029l2.3737-1.5553c2.2456-1.4713 2.2883-1.6497 0.7922-3.3029zm-13.332-2.9217c1.5806-3.1227 2.661-7.0601 2.958-10.78l0.4679-5.8601-10.008-11.952c-14.564-17.394-26.907-34.304-35.757-48.984-1.3987-2.3203-4.6284-7.5938-7.177-11.719s-5.8404-9.717-7.3152-12.427c-1.4747-2.7096-2.8734-4.7343-3.1083-4.4995-0.23482 0.23484 3.7876 8.9908 8.9388 19.458 5.1512 10.467 14.445 29.367 20.654 42 10.09 20.53 26.154 49.671 27.388 49.68 0.25781 2e-3 1.5893-2.2105 2.9589-4.9164zm22.588 0.58429 2.9535-1.5273-5.8196-5.5039c-5.9693-5.6455-7.6806-6.5585-7.6806-4.0977 0 0.77344 0.63281 1.4062 1.4062 1.4062 2.0591 0 1.7153 1.6436-0.60328 2.8845-1.9673 1.0529-1.9328 1.1494 1.6406 4.5964 2.0076 1.9365 3.9875 3.5768 4.3998 3.645 0.41232 0.0683 2.0788-0.5632 3.7032-1.4032zm-4.3922-1.187c-0.28528-0.46159 0.14621-1.0944 0.95885-1.4062 2.5814-0.99059 3.498-0.65045 2.2617 0.83927-1.3239 1.5952-2.4613 1.7955-3.2205 0.56698zm-3.1379-3.9931c0.23102-0.69377 1.1719-1.4072 2.0909-1.5853 1.0688-0.20718 1.5196 0.13066 1.2509 0.9375-0.23102 0.69377-1.1719 1.4072-2.0909 1.5853-1.0688 0.20718-1.5196-0.13066-1.2509-0.9375zm12.921 2.5012c0-0.7577-6.9699-6.9912-7.8476-7.0185-0.44897-0.014 0.81666 1.6271 2.8125 3.6469 3.3434 3.3834 5.0351 4.5162 5.0351 3.3716zm5.6345-3.5282c3.9859-2.7128 6.3786-6.017 7.1281-9.8438 0.59403-3.0329 0.5794-3.0469-3.188-3.0469-2.0816 0-7.0914-0.63274-11.133-1.4061-4.0414-0.77334-7.4084-1.4062-7.4822-1.4062-0.0738-8e-5 -0.39981 0.69232-0.72459 1.5387-0.49375 1.2867-0.35656 1.3447 0.8372 0.35396 1.2045-0.99968 1.4277-0.86465 1.4277 0.86382 0 1.5641-0.47836 1.9794-2.0222 1.7554-3.3684-0.48856-2.9383 1.6062 0.87204 4.2468 1.9774 1.3703 5.0263 3.968 6.7754 5.7726s3.4569 3.2811 3.7951 3.2811c0.33823 0 2.0096-0.94922 3.7143-2.1094zm-2.822-3.0848c0-0.9507 4.1002-6.0558 4.8638-6.0558 1.4246 0 0.76761 3.4536-0.95325 5.011-1.6491 1.4924-3.9106 2.0966-3.9106 1.0448zm-3.7202-3.0089c0.0164-0.38671 0.6508-1.5242 1.4098-2.5277 0.97248-1.2858 1.6735-1.531 2.3742-0.83036 0.70068 0.70068 0.54145 1.4471-0.53922 2.5277-1.6025 1.6025-3.2959 2.0358-3.2448 0.83035zm-4.0351-1.7396c-0.82734-0.82734 1.43-4.1197 2.8246-4.1197 0.6494 0 1.1807 0.35649 1.1807 0.7922 0 1.1978-3.351 3.9818-4.0053 3.3275zm-4.4322 2.4428c0-0.51563-0.44678-0.9375-0.99283-0.9375-0.54606 0-0.7321 0.42187-0.41342 0.9375 0.31868 0.51562 0.76545 0.9375 0.99283 0.9375s0.41342-0.42188 0.41342-0.9375zm113.24-8.7554c-1.1948-3.8929-3.7595-5.5072-11.41-7.1815-5.8722-1.2851-6.5168-0.63497-1.3388 1.3502 2.2227 0.85218 6.1507 3.3879 8.7288 5.635s4.7793 3.9988 4.8914 3.8928c0.11217-0.106-0.27998-1.7694-0.87143-3.6966zm-281.69-4.2344c4.068-7.5631 4.5873-11.898 1.8997-15.86l-1.7344-2.5566-0.50381 5.1562c-0.5582 5.7129-2.6897 10.389-6.2315 13.672-2.3023 2.1337-2.3109 2.1974-0.61244 4.5269 0.94749 1.2995 2.1335 2.2401 2.6355 2.0903 0.50204-0.14986 2.5481-3.3128 4.5469-7.0288zm164.7 4.9658c0-0.74301-0.42188-1.3509-0.9375-1.3509-0.51563 0-0.9375 0.86865-0.9375 1.9303s0.42187 1.6696 0.9375 1.3509c0.51562-0.31867 0.9375-1.1873 0.9375-1.9303zm25.312-2.3178c0-1.3993-1.2942-1.6395-11.719-2.175-10.773-0.55343-10.343 0.82525 0.65677 2.1034 9.8368 1.1431 11.062 1.151 11.062 0.0715zm-27.411-0.7502c0.78562-0.49871 0.97583-1.7862 0.56635-3.8336-0.60276-3.0138-0.70171-3.0691-4.4289-2.4731-2.0968 0.3353-3.9366 0.73386-4.0885 0.88571-0.15184 0.15185-9e-3 1.6091 0.31637 3.2383 0.51414 2.5707 0.97965 2.9604 3.5221 2.9479 1.6113-7e-3 3.462-0.35227 4.1126-0.76527zm-8.0616-7.9694c1.8892-0.49403 1.9149-0.85041 1.2417-17.206-0.80699-19.607 1.0545-14.756-19.125-49.845-11.001-19.129-12.601-23.726-11.988-34.434 0.26821-4.6836 1.0317-10.332 1.6967-12.551 1.7145-5.7226 8.6081-12.82 20.844-21.461 5.7528-4.0626 11.245-8.2648 12.205-9.3381 1.7043-1.9053 1.701-2.0471-0.13948-5.9803-1.0369-2.2158-3.4569-7.6147-5.3778-11.998-1.921-4.3828-4.2171-9.2344-5.1026-10.781-0.88549-1.5469-2.7768-4.8634-4.203-7.3701l-2.593-4.5576-3.626 6.6825c-4.751 8.7557-6.8295 11.751-13.546 19.518-9.0568 10.474-20.37 18.167-32.143 21.858-3.1017 0.97251-4.7391 1.8842-3.9202 2.1827 11.87 4.3266 33.02 5.1588 42.569 1.675 5.9006-2.1529 10.038-2.6899 8.4443-1.0958-0.50851 0.50851-4.0734 2.0744-7.9219 3.4797-6.3465 2.3175-8.1308 2.5471-19.185 2.4688-10.579-0.0749-13.239-0.42552-20.156-2.6569-8.6044-2.7757-15.56-3.8121-19.294-2.8749-2.2643 0.56829-2.1195 0.81137 4.0194 6.7483 9.6032 9.2873 24.647 20.216 34.554 25.101 7.9998 3.9448 10.844 6.2279 7.6739 6.1592-2.1229-0.0459-13.263-5.1725-18.516-8.5206-2.8359-1.8077-5.7891-3.531-6.5625-3.8296-2.2282-0.86012-23.278-19.325-24.382-21.388-0.54798-1.0239-1.351-1.8616-1.7845-1.8616-1.7478 0 8.6542 23.957 13.832 31.856 2.6509 4.0444 3.8075 5.9812 5.8894 9.8626 2.3183 4.322 9.8401 17.117 14.881 25.312 1.9028 3.0938 3.631 6.0469 3.8403 6.5625 1.0379 2.5569 12.163 20.669 17.185 27.977 3.1327 4.5591 6.3154 9.1998 7.0726 10.312 0.75716 1.1127 5.8197 7.9226 11.25 15.133l9.8733 13.11 0.28357-3.8728c0.2187-2.987 0.72479-3.9881 2.2127-4.3772zm-157.55-5.1408c0.6302-2.9309 1.4287-5.7508 1.7744-6.2664 0.34574-0.51562 0.53185-3.9961 0.41358-7.7344s0.16196-6.7969 0.62274-6.7969 0.83778 0.49413 0.83778 1.0981c0 1.4918 2.8379 4.5269 4.2327 4.5269 0.82714 0 1.1141-3.3257 1.072-12.422-0.05745-12.395-0.05025-12.437 3.326-19.453 4.4952-9.3414 13.398-20.038 16.118-19.366 8.4044 2.0766 10.538 2.7585 13.739 4.3918 1.9987 1.0196 7.3401 4.9114 11.87 8.6484 10.023 8.2692 17.804 14.144 20.747 15.664 1.9562 1.0105 2.1416 0.94606 1.6847-0.5856-1.6311-5.4675-5.289-21.079-5.289-22.573 0-1.2361-1.7498-2.6047-5.8594-4.5827-7.3196-3.5231-20.629-10.187-25.412-12.723-1.9987-1.06-6.1906-2.1197-9.375-2.3701-4.9172-0.38664-6.1371-0.15393-8.3386 1.5908-3.723 2.9504-6.8741 8.8023-13.087 24.304-3.0192 7.533-7.6543 18.289-10.3 23.903-4.2079 8.9273-4.8962 11.237-5.4916 18.425-0.37442 4.52-1.1889 9.758-1.81 11.64-1.1126 3.3711-0.91784 5.509 0.94894 10.419l0.94747 2.492 2.7416-3.4499c1.6189-2.0371 3.2108-5.6321 3.8874-8.7788zm191.15 9.6961c0-0.24402-0.87531-2.2479-1.9451-4.4531l-1.9451-4.0094-14.86 0.61152v3.6247c0 3.5831 0.0457 3.6288 3.9844 3.9836 6.4863 0.58422 14.766 0.72034 14.766 0.24278zm-10.65-2.0818c-1.1205-1.1205-0.60535-3.0995 0.80674-3.0995 0.77344 0 1.4062 0.60791 1.4062 1.3509 0 1.5662-1.3381 2.6235-2.213 1.7486zm4.768-1.1702c-0.52725-2.0162 0.084-3.0846 1.3257-2.3172 1.0622 0.65648 1.0442 4.1379-0.0215 4.1379-0.45548 0-1.0424-0.81932-1.3043-1.8207zm-11.32-0.493c-0.60111-1.5665 0.79559-2.7746 2.2025-1.905 1.4017 0.8663 1.1305 3.2812-0.36845 3.2812-0.71827 0-1.5436-0.6193-1.8341-1.3762zm-5.7236-3.8226c-0.3586-2.3914-0.88213-4.1179-1.1634-3.8366s-0.21795 2.468 0.14066 4.8593c0.3586 2.3914 0.88213 4.1179 1.1634 3.8366s0.21795-2.468-0.14066-4.8593zm107.98-7.6295c-2.8251-6.6085-6.3118-14.969-7.7483-18.578-1.4364-3.6094-3.3154-7.8281-4.1755-9.375l-1.5638-2.8125-12.804-0.46875c-12.495-0.45743-12.788-0.42343-12.151 1.4062 1.7097 4.9098-0.43985 32.151-2.931 37.145l-1.3465 2.6991h17.664c9.7152 0 18.4 0.28263 19.301 0.62807 1.0344 0.39694 1.4116 0.26383 1.025-0.36172-0.64112-1.0373-10.482-3.8291-14.959-4.2437-4.4257-0.40982-2.3507-2.1243 2.4027-1.9852 5.2346 0.15322 14.926 3.4644 18.955 6.4761 1.5469 1.1564 2.9603 1.9638 3.1408 1.7942 0.18059-0.16955-1.9831-5.7152-4.8082-12.324zm-112.37-2.5152c-0.22097-6.9609-0.75986-11.24-1.5101-11.99-0.93033-0.93033-1.1665 1.3072-1.1665 11.052 0 6.7203 0.28828 12.507 0.64062 12.859 1.707 1.707 2.3492-2.0535 2.036-11.922zm69.369 7.1404c1.7079-8.8536 3.0923-26.636 2.4449-31.406-0.58665-4.3226-0.69793-4.4531-3.7976-4.4531h-3.1933v8.5105c0 4.6808-0.46396 13.595-1.031 19.809-0.84912 9.3051-0.80777 11.44 0.23438 12.1 3.0668 1.9435 4.2893 0.90007 5.3426-4.56zm196.87 0.0961c2.3293-1.3651 6.3742-2.9843 8.9886-3.5982l4.7534-1.1163-4.4141-0.72109c-3.721-0.60786-4.947-0.3917-7.8082 1.3766-4.6829 2.8942-9.8363 2.8843-13.738-0.0264-2.5358-1.8916-4.2143-2.3206-9.1957-2.3503-3.3516-0.02-6.832-0.38708-7.7344-0.81584-2.1307-1.0124-2.2478 1.4924-0.16712 3.5731 1.1787 1.1787 2.735 1.3563 7.7789 0.88748 6.1684-0.5733 6.3654-0.5224 9.0703 2.3434 3.4662 3.6724 6.7617 3.7907 12.466 0.44751zm-244.32-0.76293c-0.13677-0.49564-2.0352-0.72871-4.2188-0.51794s-5.3412 0.40535-7.017 0.43241c-1.6758 0.0271-3.0469 0.38334-3.0469 0.79175s3.2695 0.61935 7.2656 0.46875c4.0645-0.15317 7.156-0.67085 7.017-1.175zm39.512-22.682 0.50454-13.27-13.321-0.36089c-7.3268-0.19849-13.484-0.25173-13.683-0.11831-0.4415 0.29638 0.97677 2.3175 8.5456 12.178 3.2331 4.212 8.1986 11.415 11.035 16.007l5.1562 8.3483 0.62933-4.7566c0.34615-2.6161 0.85638-10.728 1.1339-18.027zm-47.39 20.287c6.5859-0.0217 7.1867-0.69578 5.7939-6.5015-0.94303-3.931-1.455-4.7249-2.697-4.1821-0.84313 0.3685-3.7192 1.1399-6.3913 1.7142-2.6721 0.57433-5.1661 1.352-5.5422 1.7281-1.2061 1.2061 1.6735 8.325 3.1398 7.7623 0.72619-0.27867 3.2898-0.51313 5.6968-0.52102zm-6.8443-3.073c-0.40131-0.92458-0.46659-1.9441-0.14509-2.2656 0.95202-0.95203 1.7195 0.38526 1.2813 2.2327-0.38845 1.6378-0.43899 1.6392-1.1362 0.0329zm3.7207-0.66269c-0.68363-1.1061 0.20313-2.8125 1.4616-2.8125 0.48519 0 0.88217 0.84375 0.88217 1.875 0 1.9773-1.364 2.5228-2.3438 0.9375zm4.8438 0.31255c-1.1794-1.1794-0.62491-4.0625 0.78125-4.0625 0.875 0 1.4062 0.88541 1.4062 2.3438 0 2.2761-0.91287 2.9934-2.1875 1.7188zm246.17 1.8791c-0.64453-0.26007-1.6992-0.26007-2.3438 0-0.64453 0.26007-0.11718 0.47287 1.1719 0.47287s1.8164-0.2128 1.1719-0.47287zm-10.223-6.176c-0.58735-0.9506-7.8349-0.77196-10.168 0.25062-1.2744 0.55865 0.1234 0.76278 4.3635 0.63723 3.4312-0.10159 6.043-0.50113 5.804-0.88785zm-235.91-4.6496c3.4419-1.2446 4.3018-3.1884 0.98149-2.2186-1.1602 0.33886-4.5352 1.0953-7.5 1.6811-2.9648 0.58573-5.3906 1.4697-5.3906 1.9644 0 1.0766 7.4563 0.18327 11.909-1.4269zm245.94-2.4853c-1.1621-4.0521-2.6972-6.5455-4.6848-7.6092-2.5737-1.3774-7.7062-1.1283-9.8287 0.47707-1.0142 0.76715-3.8155 1.3764-6.3281 1.3764-2.4796 0-4.5083 0.42187-4.5083 0.9375 0 1.4017 6.688 1.0672 9.375-0.46875 3.0596-1.749 8.4456-1.765 10.919-0.0324 1.0788 0.7556 2.669 2.865 3.5338 4.6875 1.9 4.004 2.5687 4.2816 1.522 0.63188zm-246.45-1.7182c3.3533-1.332 3.4434-1.4982 3.75-6.9216 0.17276-3.0562-0.0191-5.556-0.42636-5.5551-0.40725 9.4e-4 -2.4288 0.86305-4.4924 1.9158s-6.16 2.3573-9.1033 2.899c-2.9432 0.5417-5.507 1.1367-5.6971 1.3223-0.19018 0.18558 0.44263 2.2762 1.4062 4.6459l1.752 4.3085 4.6875-0.62509c2.5781-0.34381 6.2336-1.2392 8.1234-1.9898zm-11.405-1.1483c0-0.47346-0.25607-1.5282-0.56905-2.3438-0.37342-0.97312-0.0511-1.4829 0.9375-1.4829 0.98199 0 1.5066 0.81607 1.5066 2.3438 0 1.2891-0.42188 2.3438-0.9375 2.3438-0.51563 0-0.9375-0.38738-0.9375-0.86082zm4.6875-1.8964c0-1.5773 0.42187-2.8678 0.9375-2.8678 0.51562 0 0.9375 1.0298 0.9375 2.2884s-0.42188 2.5492-0.9375 2.8678c-0.54696 0.33804-0.9375-0.61526-0.9375-2.2884zm5-1.9043c0-1.8078 0.47652-2.8385 1.3123-2.8385 0.87138 0 1.2126 0.8419 1.0156 2.5058-0.41766 3.5281-2.3279 3.8012-2.3279 0.33271zm248.01-1.6284c-3.2223-6.4978-5.5872-7.0337-13.329-3.0199-3.3693 1.7469-6.0072 3.2948-5.8622 3.4399 0.29983 0.29983 8.3895-2.3562 11.564-3.7967 2.5875-1.1742 5.457 1.0507 7.459 5.7835 0.73248 1.7315 1.5711 2.9089 1.8635 2.6164s-0.47053-2.5529-1.6956-5.0232zm-20.939-1.2726c1.009-1.6326-0.14018-1.9784-1.426-0.42904-0.73946 0.89099-0.81059 1.4289-0.18893 1.4289 0.54833 0 1.275-0.44994 1.6149-0.99987zm-225.48-5.5791c3.6092-1.8413 5.2438-3.4575 4.3752-4.326-0.25727-0.25727-3.0571 0.83933-6.2218 2.4369-3.1647 1.5976-7.9213 3.3157-10.57 3.818-5.3463 1.0139-5.8757 1.2922-5.0374 2.6487 0.69691 1.1276 12.168-1.8808 17.454-4.5775zm-97.974-2.4138c-0.71312-2.0698-1.7626-9.4362-2.3322-16.37-1.5105-18.386-1.872-21.365-3.8268-31.529l-1.7696-9.2021 0.52614 13.125c0.29031 7.242 1.5334 18.798 2.7733 25.781 1.2359 6.9609 2.4981 14.125 2.805 15.92 0.57624 3.3718 2.1519 7.0067 2.7696 6.3891 0.1932-0.1932-0.23218-2.0448-0.9453-4.1146zm90.911 0.35152c2.5781-1.0022 6.2695-2.7096 8.2031-3.7943 3.7286-2.0917 4.282-4.1233 2.9445-10.811l-0.57114-2.8557-5.757 3.1487c-3.1663 1.7318-9.132 4.2717-13.257 5.6444s-7.6366 2.6254-7.8035 2.7839c-0.35656 0.33865 2.4544 6.0212 3.8318 7.7462 1.1478 1.4376 5.6629 0.75988 12.409-1.8625zm-13.147-2.6794c-0.70251-2.2134-0.10647-3.2219 1.3663-2.3116 1.2296 0.75995 1.3328 4.2573 0.12555 4.2573-0.48088 0-1.1522-0.87554-1.4919-1.9456zm4.2412-0.86685c0-1.9583 0.39885-2.8358 1.1719-2.5781 0.64454 0.21485 1.1719 1.375 1.1719 2.5781s-0.52734 2.3633-1.1719 2.5781c-0.77302 0.25768-1.1719-0.61979-1.1719-2.5781zm4.6875-0.9375c0-2.7668 1.2022-3.7222 2.3489-1.8666 0.75455 1.2209-0.3353 4.6791-1.4746 4.6791-0.48087 0-0.87432-1.2656-0.87432-2.8125zm4.6875-1.875c0-1.875 0.46875-2.8125 1.4062-2.8125s1.4062 0.9375 1.4062 2.8125-0.46875 2.8125-1.4062 2.8125-1.4062-0.9375-1.4062-2.8125zm6.2338-3.0307c-0.30106-1.1513-0.20581-2.4348 0.21164-2.8522 1.1254-1.1254 3.0553 1.6519 2.3767 3.4204-0.82208 2.1423-1.9439 1.8961-2.5883-0.56812zm82.159 3.0161c-0.68883-2.6341-0.99317-2.7085-7.1193-1.7403-2.9949 0.47331-5.948 0.53952-6.5625 0.14714-0.6145-0.39239-4.9141-0.81764-9.5548-0.94501-4.6406-0.12738-16.77-0.55433-26.954-0.94877-10.184-0.39446-18.516-0.46616-18.516-0.15937 4.8e-4 0.30681 0.82471 1.3034 1.8316 2.2146 2.0803 1.8826 18.226 2.9104 49.878 3.1751 17.109 0.14304 17.48 0.10499 16.996-1.7434zm-95.424-5.3743c7.9404-2.7945 16.406-7.4489 16.406-9.0199 0-0.67285-3.7748 0.71875-9.1406 3.3697-5.0273 2.4838-11.355 5.0288-14.062 5.6556-2.7863 0.6452-4.9219 1.6613-4.9219 2.342 0 1.4327 2.2694 0.97817 11.719-2.3474zm125.93-6.5268c2.2919-4.4354 2.5132-6.644 0.99868-9.968-1.0518-2.3084-4.3849-4.3662-7.0721-4.3662-0.80427 0-3.5817 1.6875-6.1721 3.75s-5.2875 3.75-5.9936 3.75c-2.4113 0-1.3406 1.4096 6.8892 9.0696l8.2333 7.6634 0.53857-2.9759c0.29621-1.6367 1.4564-4.752 2.5781-6.9229zm-40.494 4.5047c-0.32199-2.0136-3.7918-14.775-7.7107-28.359s-7.8776-27.44-8.7971-30.792c-0.9195-3.3516-3.667-12.844-6.1055-21.094s-4.6484-15.741-4.9108-16.647c-0.31388-1.0834-1.3215-1.6021-2.9443-1.5156-1.3569 0.0723-3.1265-0.15062-3.9325-0.49537-0.87805-0.37559-2.0956 0.0696-3.0378 1.1107-1.4853 1.6412-1.0075 3.3963 8.6232 31.674 9.8104 28.805 16.159 47.161 19.157 55.39 3.1208 8.5655 6.521 14.39 8.401 14.39 1.6173 0 1.7711-0.44782 1.2573-3.6611zm-7.1542 2.2175c0-0.27835-0.85261-2.1774-1.8947-4.22-2.4526-4.8075-13.105-34.291-13.105-36.272 0-1.2747-0.33624-1.209-2.1094 0.41236-2.9908 2.7347-7.7024 4.9606-10.5 4.9606-2.8262 0-3.0477 1.2176-0.65647 3.6088 3.5616 3.5616 16.331 21.06 16.437 22.525 0.0936 1.2886-0.97792 1.5064-6.9785 1.4189-3.8989-0.0568-8.7505-0.63951-10.781-1.2948-3.7556-1.2119-12.973-7.5718-21.412-14.774-4.3592-3.7204-5.039-3.9844-10.26-3.9844-5.2518 0-5.504 0.0998-4.1453 1.6406 2.8109 3.1879 6.426 11.31 7.6035 17.082 0.65571 3.2146 1.8344 6.204 2.6192 6.6432 2.5272 1.4143 55.184 3.5641 55.184 2.253zm15 0.15522c0-2.0114-11.153-26.393-11.218-24.524-0.0174 0.49838 0.57447 2.6078 1.3153 4.6875 0.74082 2.0797 2.2813 7.4728 3.4232 11.984 1.8716 7.3945 2.2934 8.2031 4.2781 8.2031 1.211 0 2.2018-0.15789 2.2018-0.35088zm-98.779-3.0498c7.3898-2.469 16.121-6.5231 19.478-9.0442 1.2212-0.91709 1.5788-1.9046 1.1214-3.0964-0.56884-1.4824-0.80712-1.5389-1.5586-0.36994-0.77894 1.2118-0.9996 1.2086-1.8102-0.0263-1.1982-1.8253-1.2056-3.75-0.0143-3.75 1.2851 0 1.1751-1.1917-0.29559-3.203-1.1694-1.5992-1.5205-1.5426-6.7969 1.0959-6.04 3.0204-15.678 6.3387-21.267 7.3221-4.0325 0.70952-4.1354 0.9705-1.6406 4.1599 1.0083 1.2891 1.8427 2.8711 1.8542 3.5156 0.0114 0.64453 0.49192 1.1719 1.0677 1.1719 0.58528 0 0.83065-0.8267 0.55652-1.875-0.30315-1.1593-0.0288-1.875 0.71882-1.875 1.7294 0 2.4071 3.4857 0.91802 4.7216-1.0123 0.84016-0.98549 3.7159 0.0347 3.7159 0.14398 0 3.5793-1.1084 7.6341-2.4632zm-3.9915-3.7082c-0.35423-0.98856-0.81483-2.1138-1.0236-2.5005-0.20874-0.38671 0.29143-0.70312 1.1115-0.70312 1.8969 0 2.9425 2.6147 1.5874 3.9698-0.75 0.75-1.2069 0.54106-1.6753-0.76614zm5.3719-1.624c-1.2536-3.1831-1.3132-4.3921-0.21665-4.3921 1.9196 0 3.1997 2.8447 2.225 4.9442-0.96386 2.0761-0.9744 2.0732-2.0083-0.5521zm5.5231-1.4248c0-1.032-0.27249-2.5866-0.60554-3.4545-0.45659-1.1899-0.16835-1.4938 1.1719-1.2357 2.0565 0.39604 2.5593 5.5247 0.60554 6.176-0.67728 0.22575-1.1719-0.40134-1.1719-1.4858zm4.6875-4.3736c0-2.3333 0.37642-3.312 1.1719-3.0469 0.64454 0.21485 1.1719 1.586 1.1719 3.0469s-0.52734 2.832-1.1719 3.0469c-0.79545 0.26516-1.1719-0.71354-1.1719-3.0469zm58.125 4.6506c0-0.6839-14.102-19.182-14.623-19.182-0.22697 0-0.1558 1.1602 0.15815 2.5781 1.4501 6.5497 2.6353 8.9171 5.2644 10.516 3.7578 2.2853 1.9036 3.2152-2.1339 1.0701-4.5243-2.4038-7.4156-7.0208-7.4156-11.842 0-6.7648-0.95001-9.8223-3.0519-9.8223-1.034 0-4.745 1.5474-8.2466 3.4387l-6.3665 3.4387 4.7531 4.2957c10.731 9.6982 16.344 13.257 23.001 14.581 7.4094 1.4743 8.6611 1.6084 8.6611 0.92755zm-75.982-7.9826c8.2536-2.2872 20.669-7.8514 20.669-9.2632 0-1.3392 0.43089-1.4836-8.2153 2.7543-4.211 2.0641-9.886 4.1929-12.611 4.7308-2.7251 0.53785-5.904 1.1774-7.0642 1.4213-2.2237 0.46739-2.9542 2.2826-0.91865 2.2826 0.65489 0 4.3179-0.8666 8.1401-1.9258zm117.5-1.2867c2.2106-2.2106 7.5916-5.2178 9.3433-5.2215 3.8977-8e-3 1.0499-1.9546-6.4192-4.387l-8.0598-2.6248-2.2527 2.6189c-2.3961 2.7857-2.871 6.1699-1.2822 9.1385 1.1736 2.1929 6.6528 2.4936 8.6706 0.47588zm-118.38-2.8002c3.3588-0.74676 8.8432-2.6522 12.188-4.2343 3.3443-1.5821 6.6079-2.8769 7.2524-2.8773 1.8492-9.4e-4 1.3651-1.688-0.66973-2.3339-1.0129-0.32148-3.4901-2.4572-5.5048-4.7462l-3.6632-4.1617-8.007 3.7522c-4.4038 2.0637-9.9423 4.0175-12.308 4.3417-4.319 0.59199-5.0481 1.4774-3.3632 4.0846 0.60586 0.9375 0.91357 1.0156 0.92315 0.23437 8e-3 -0.64453 0.61874-1.1719 1.3574-1.1719 1.6749 0 2.9174 3.6145 1.671 4.8609-1.6442 1.6442-0.20265 4.5437 2.0148 4.0526 1.1013-0.24391 4.7505-1.0545 8.1094-1.8012zm-7.5132-3.7544c0-0.73127-0.25607-1.9969-0.56905-2.8125-0.36705-0.95652-0.0567-1.4829 0.87432-1.4829 1.585 0 2.9723 3.1765 2.0437 4.6791-0.86104 1.3932-2.3489 1.1502-2.3489-0.38368zm5.567-2.1043c-0.65779-1.7301-0.63868-2.8069 0.0623-3.5078 1.2639-1.2639 2.7732 0.83999 2.794 3.8948 0.0197 2.8897-1.6989 2.6568-2.8562-0.38703zm6.3462 0.87108c-1.1646-2.0714-1.4942-5.8298-0.56178-6.4061 1.2939-0.79966 2.6776 1.2485 2.6968 3.9917 0.0146 2.1001-1.4075 3.7084-2.135 2.4144zm4.5491-5.5165c-0.68234-2.7186-0.23096-3.6791 1.2879-2.7404 1.2064 0.74557 1.3468 5.1948 0.164 5.1948-0.45973 0-1.1131-1.1045-1.4519-2.4544zm96.975 6.804c0-1.2171 1.0547-3.7671 2.3438-5.6666 4.4308-6.5292 2.4631-9.7796-4.9571-8.1882-2.5077 0.53779-5.4768 0.73791-6.598 0.44471-1.1943-0.31232-2.0386-0.0996-2.0386 0.51373 0 0.57577 0.34441 1.0468 0.76536 1.0468 0.87379 0 8.6096 11.845 8.6096 13.183 0 0.48353 0.42187 0.87915 0.9375 0.87915 0.51562 0 0.9375-0.99581 0.9375-2.2129zm-63.976-9.9746c5.1408-2.0625 10.107-3.75 11.036-3.75 3.1215 0 0.67434-1.053-5.4018-2.3243-10.114-2.1162-12.737-3.8544-19.597-12.988-8.2521-10.987-11.543-14.262-17.132-17.047-6.2274-3.1032-16.656-3.2984-20.242-0.37876l-2.3438 1.9082 3.2812-0.72817c10.235-2.2713 19.253 1.8731 24.809 11.401 1.2026 2.0625 3.3149 7.7578 4.6939 12.656 1.379 4.8984 3.105 9.8335 3.8356 10.967 1.8157 2.8166 0.19893 3.5253-2.1843 0.9575-1.1166-1.2031-2.4243-4.6503-3.1008-8.1742-1.6478-8.5834-3.758-12.976-8.4828-17.659-5.5138-5.4642-10.02-7.654-15.751-7.654-5.491 0-10.007 1.9646-12.957 5.6369l-2.1069 2.6224 5.431-0.49247c4.5566-0.41317 6.1788-0.11266 10.076 1.8665 5.8309 2.9614 12.354 8.6707 15.944 13.955 1.5199 2.2373 4.711 6.0718 7.0913 8.521 4.0316 4.1483 4.6506 4.4531 9.0418 4.4531 3.3167 0 7.4843-1.1115 14.061-3.75zm-49.403 0.12394c9.7217-3.3043 16.283-6.657 15.183-7.7578-0.46622-0.46622-3.014 0.36255-5.9204 1.9259-2.8061 1.5094-8.3586 3.6833-12.339 4.831-3.9802 1.1477-7.014 2.4474-6.7416 2.8881 0.71232 1.1526 1.0859 1.0808 9.8181-1.8872zm-3.8085-2.9788c5.9937-1.5507 15.938-6.2064 15.938-7.462 0-0.63284-0.75503-0.81983-1.875-0.46437-1.5348 0.48713-1.875 0.16847-1.875-1.7565 0-2.5181-1.2909-3.8714-2.8021-2.9374-0.56967 0.35208-0.3578 1.4418 0.54956 2.8266 1.7839 2.7225 0.74813 5.3934-1.1074 2.8557-0.65932-0.90167-0.97167-2.2312-0.6941-2.9545 0.63641-1.6584 1.3669-1.7982-9.14 1.7487-8.8004 2.9709-8.9622 3.0787-8.3038 5.5346 0.99554 3.7137 1.7942 4.6531 3.5299 4.1518 0.85895-0.2481 3.4602-0.94225 5.7805-1.5426zm-6.5625-2.8483c0-2.2847 2.1907-1.9618 2.6469 0.39019 0.17942 0.92508-0.29884 1.5629-1.1719 1.5629-0.86966 0-1.475-0.80156-1.475-1.9531zm6.2656 0.40624c-0.99869-0.99869-0.7523-4.0781 0.3263-4.0781 1.3861 0 2.2588 2.7742 1.2044 3.8286-0.48956 0.48956-1.1784 0.60183-1.5307 0.24948zm4.6719-1.8906c-0.34375-0.34375-0.625-1.4336-0.625-2.4219 0-2.4314 2.2642-1.5654 2.6433 1.0109 0.29003 1.9711-0.73891 2.6904-2.0183 1.4109zm77.023-0.0159c2.2296-1.2826 3.8731-2.8233 3.6522-3.4237-0.22094-0.6004-1.1528-3.4119-2.0709-6.2479s-1.7805-5.2893-1.9166-5.4519c-0.13609-0.16264-2.1919 1.783-4.5684 4.3238-2.7124 2.8998-6.5036 5.6184-10.184 7.3029l-5.8631 2.6834 5.636 2.0521c6.4761 2.358 9.486 2.1146 15.315-1.2386zm40.858-2.4059c-1.6526-3.2649-4.6348-6.1132-9.5216-9.0939-3.6696-2.2384-3.7193-1.9967-0.66152 3.2209 1.3119 2.2386 2.0011 4.3077 1.5315 4.598-0.99192 0.61305-3.3286-1.8718-4.3109-4.5844-0.64764-1.7882-0.73943-1.7666-1.9843 0.46875-2.8274 5.0771-0.43411 7.4222 6.3689 6.2408 1.7259-0.29973 4.2568 0.0281 5.8532 0.75818 4.1489 1.8974 4.4186 1.7382 2.7247-1.6083zm-17.669-11.677c-0.25316-0.65972 0.0526-1.606 0.67949-2.1028 7.184-5.6935 7.3648-5.9668 6.6965-10.126-0.59523-3.705-0.84641-3.9844-3.5818-3.9844-4.0737 0-9.3004-3.0041-10.354-5.9512-0.72604-2.0304-0.48091-2.8859 1.4062-4.9077 1.2571-1.3467 3.7621-3.2268 5.5668-4.1779 4.7329-2.4943 10.134-7.8328 10.863-10.737 1.9368-7.717-2.7163-25.992-10.226-40.16l-3.8902-7.3398-1.9869 8.3268c-3.8362 16.077-7.6053 24.797-13.737 31.78l-2.7513 3.1336 2.8296 8.6882c1.5562 4.7785 4.3787 14.384 6.2722 21.344 5.448 20.029 6.3541 22.806 8.3471 25.585l1.8761 2.6166 1.2252-5.3945c0.67383-2.967 1.018-5.9343 0.76486-6.594zm-104.08 7.7141c7.5092-2.8264 8.1185-3.1847 7.3981-4.3503-0.35655-0.5769-1.0638-0.50639-1.9025 0.1897-0.73424 0.60935-4.81 2.2968-9.0572 3.7498-4.9637 1.6982-6.8089 2.6582-5.1655 2.6876 1.4062 0.0251 5.3334-0.99939 8.727-2.2768zm65.72-0.29988c2.6488-1.3936 6.9352-4.3858 9.5254-6.6493l4.7093-4.1154-6.4785-18.798c-3.5632-10.339-6.4775-18.823-6.4763-18.853 9.4e-4 -0.0303-3.6376 0.0829-8.0862 0.25148-8.3761 0.31748-19.229-1.6333-22.535-4.0505-1.4544-1.0634-1.9883-0.89591-3.9742 1.2469-1.2618 1.3615-3.4168 4.2457-4.789 6.4094-2.6664 4.2046-11.656 12.177-16.574 14.699-4.7167 2.4185-4.2958 2.9486 2.3755 2.9917 10.09 0.0652 15.906 3.6093 25.862 15.76 2.0105 2.4536 4.362 4.3561 5.3842 4.3561 2.5237 0 5.227-6.499 7.6714-18.443 1.0899-5.3253 2.3037-9.6824 2.6973-9.6824 0.97086 0 0.89976 3.1766-0.26605 11.885-1.2424 9.2809-3.3822 16.096-5.9326 18.894l-1.992 2.1857 2.8125-0.68609c1.5469-0.37735 4.2891-1.954 6.0938-3.5037 4.3908-3.7704 10.992-12.581 12.252-16.353 1.2495-3.7399 3.213-4.135 2.3296-0.46875-1.007 4.1788-6.0954 14.584-8.3128 16.998-1.1277 1.228-4.4954 3.4012-7.4836 4.8296-5.8935 2.8169-5.5485 3.5549 1.6832 3.6008 3.3236 0.0211 6.0888-0.7075 9.5035-2.5041zm-65.136-3.7516c3.5037-1.5772 3.817-1.9369 2.2513-2.5853-1.1637-0.4819-1.9516-0.35474-2.1875 0.35301-0.20279 0.60839-0.80057 1.1062-1.3284 1.1062s-0.71685-0.63281-0.42005-1.4062c0.3287-0.8566 2e-3 -1.4062-0.8372-1.4062-0.75725 0-1.3768 0.84375-1.3768 1.875s-0.47107 1.875-1.0468 1.875c-0.58528 0-0.83065-0.8267-0.55652-1.875 0.67389-2.577-1.0842-2.376-2.0499 0.23437-0.42917 1.1602-1.1539 1.9816-1.6104 1.8255-0.45656-0.15614-0.97849 0.43336-1.1598 1.31-0.27617 1.335 0.20481 1.5072 2.9612 1.0599 1.81-0.29371 5.1224-1.3585 7.361-2.3662zm117.46-9.5004c2.3538-3.059 5.3316-6.3892 6.6173-7.4006 1.7327-1.363 2.3376-2.7285 2.3376-5.2775 0-3.5129-3.2804-11.36-6.4543-15.438l-1.7679-2.272-5.0295 3.3207c-2.7663 1.8264-6.8225 4.2285-9.0139 5.3379-7.057 3.5728-4.4446 7.6041 4.9276 7.6041 2.2563 0 4.3278 0.36476 4.6034 0.81059 0.27553 0.44583 0.77769 3.1651 1.1159 6.0428 0.5853 4.98 0.47316 5.374-2.3273 8.1744-2.9002 2.9002-3.121 4.6597-0.58466 4.6597 0.71287 0 3.222-2.5028 5.5758-5.5618zm-227.85-16.235c2.254-3.4998 2.8735-8.9739 1.2244-10.819-2.4218-2.7093-2.297-5.102 0.34478-6.6121 2.2067-1.2614 2.653-1.2097 5.1562 0.59792 1.5073 1.0884 3.8941 2.2538 5.304 2.5898 2.508 0.5977 2.5419 0.54908 1.5679-2.2451-1.5587-4.4713-2.9228-5.1543-8.0802-4.0457-5.8222 1.2515-15.273 5.5922-15.26 7.0089 0.0412 4.4786 5.4451 15.411 7.7026 15.583 0.37483 0.0285 1.2928-0.89735 2.04-2.0575zm12.066-6.2676c0.47165-1.8036-0.88158-2.873-3.6353-2.873-1.1274 0-1.0968 0.38821 0.1845 2.3438 1.844 2.8142 2.8144 2.9631 3.4508 0.52929zm43.338-1.1921c6.6583-1.2405 19.529-6.6481 23.275-9.7786 1.4575-1.2182 3.0064-2.2149 3.4419-2.2149 1.1937 0 12.145-11.12 16.408-16.66 9.5952-12.471 17.542-30.575 17.194-39.17l-0.15003-3.7016-0.37542 3.2812c-1.8699 16.343-19.202 44.026-34.763 55.521-14.047 10.377-32.936 14.617-51.281 11.511-9.5793-1.6221-18.561-3.7017-20.103-4.6548-0.47381-0.29282-1.1143-0.12333-1.4233 0.37664s1.0329 1.3276 2.9821 1.8392c20.819 5.4641 30.727 6.2717 44.794 3.6508zm207.67-2.8529c4.3836-2.9816 5.2888-6.6343 5.7968-23.392l0.44625-14.72-2.5502 1.8159c-1.4026 0.99873-5.1013 4.6934-8.2194 8.2104s-8.2293 8.2589-11.358 10.538c-3.129 2.2786-5.6891 4.4636-5.6891 4.8554 0 0.39189 1.6774 1.8226 3.7275 3.1793 3.7033 2.4507 5.4569 2.5809 11.038 0.81941 2.5613-0.80838 2.8427 0.93872 0.55783 3.4635-1.8727 2.0693-6.8915 2.2534-10.448 0.38339-3.7944-1.995-10.152-8.8985-14.405-15.642-3.3781-5.3562-3.7213-5.658-3.2194-2.8312 0.30894 1.7402 0.5859 5.748 0.61547 8.9062l0.0537 5.7422 10.962 5.325c12.704 6.1713 17.5 6.8786 22.692 3.3469zm-219.68 0.23438c0.78308 0-0.78707-1.4878-3.4892-3.3062-5.2107-3.5066-6.3677-3.6525-4.7325-0.59718 1.6503 3.0836 3.9835 4.9834 5.4359 4.4261 0.74912-0.28747 2.0027-0.52267 2.7858-0.52267zm-11.455-1.6406c-0.38687-0.90234-1.3054-3.3718-2.0413-5.4878-0.77439-2.2268-3.3947-5.8784-6.2213-8.67l-4.8835-4.8228-6.195 5.6584 2.4219 4.1327c1.3321 2.273 2.4219 4.771 2.4219 5.5511 0 1.85 1.1108 2.476 6.9118 3.8954 7.1221 1.7427 8.4239 1.6986 7.5854-0.25705zm28.323-1.0723c19.062-6.2293 32.386-18.223 44.243-39.828l3.9353-7.1704-2.6088-3.2695c-2.5341-3.1759-4.9525-4.2893-4.9525-2.28 0 0.54426-2.3005 5.5809-5.1121 11.192-5.8233 11.622-16.496 27.662-18.406 27.662-1.4808 0-1.8664-1.2194-4.5954-14.531-2.3263-11.347-4.9744-21.035-11.145-40.775l-4.3943-14.056-6.0639-1.6814c-4.9243-1.3654-8.883-1.6284-21.064-1.3992-14.994 0.2821-15.003 0.28363-22.031 3.6164-5.4536 2.5861-15.263 8.4974-19.619 11.822-0.22022 0.16811 0.729 1.4845 2.1094 2.9253s2.5098 3.1476 2.5098 3.7929c0 1.5594-8.057 5.0751-12.188 5.318-4.9951 0.29375-5.8235 2.6401-5.1189 14.5 0.74423 12.527 2.1471 18.617 7.9625 34.566l2.0162 5.5297 7.6482-3.056c4.2065-1.6808 9.6521-3.3455 12.101-3.6992 3.646-0.52662 4.4531-0.98962 4.4531-2.5545 0-1.8681 3.025-5.1149 9.7718-10.488 2.787-2.2195 3.3532-3.2708 3.3532-6.2258 0-1.9554-0.83448-5.3943-1.8544-7.642-2.0135-4.4373-2.4303-10.527-0.98129-14.338 1.561-4.1057 2.4716-2.6694 2.4874 3.9233 0.0109 4.5264 0.59064 7.5293 2.0362 10.547 1.1115 2.3203 2.043 5.4844 2.07 7.0312 0.07805 4.4708 1.4909 0.97814 2.806-6.9366 0.63393-3.8151 0.901-8.7722 0.5935-11.016-0.41924-3.0587-0.24553-4.079 0.69443-4.079 0.88845 0 1.4231 2.1161 1.8358 7.2656 0.80252 10.013-0.85269 16.314-5.9893 22.8-3.0885 3.8996-2.5186 5.13 1.9241 4.1542 3.4724-0.76266 6.8368-4.706 8.9671-10.51 0.9064-2.4696 2.2133-5.1079 2.9042-5.8629 1.0802-1.1805 1.2562-1.0359 1.2562 1.032 0 5.7205-4.995 15.005-9.4302 17.529-1.5094 0.85892-2.6098 1.9743-2.4453 2.4786 0.64853 1.9875 8.6337 3.429 16.726 3.0195 6.6699-0.33759 9.1979-0.93347 14.062-3.3148 3.2619-1.5968 6.88-3.6014 8.0401-4.4549 1.7515-1.2884 2.1094-1.3214 2.1094-0.19451 0 5.9645-21.266 13.58-31.861 11.409-2.5858-0.52971-4.7015-0.61431-4.7015-0.18802 0 0.4263 0.3643 0.77509 0.80956 0.77509s3.9257 2.0995 7.7344 4.6654c3.8087 2.566 7.4141 4.6754 8.0121 4.6875 0.59804 0.0121 4.8232-1.1988 9.3893-2.6909zm-72.82-29.278c-3.7296-1.4872-6.4855-4.6116-7.1387-8.0934-2.4903-13.274 14.442-20.767 22.592-9.9969 3.4641 4.5783 0.49725 13.571-5.6098 17.005-4.0727 2.2895-6.2282 2.5272-9.8433 1.0857zm9.7168-3.7023c1.3586-1.0687 2.4702-2.2496 2.4702-2.6242 0-1.1828-6.0771-2.9358-9.9103-2.8588-3.5769 0.0719-3.6089 0.10125-1.1053 1.0156 2.8379 1.0365 3.407 3.0792 1.104 3.963-2.0536 0.78804-5.3469-1.1515-4.7217-2.7807 0.57725-1.5043-0.88199-1.8383-1.768-0.40471-0.316 0.51131 0.48367 1.9879 1.7771 3.2812 3.0174 3.0174 8.599 3.205 12.154 0.40857zm3.4615-9.6126c-1.8985-5.7525-7.4892-7.7928-13.225-4.8265-3.4889 1.8042-3.5502 3.2572-0.13752 3.2572 3.124 0 12.372 4.4074 12.372 5.8964 0 0.76171 0.27877 0.76237 1.0387 3e-3 0.75992-0.75992 0.74721-1.9219-0.04736-4.3295zm-12.241 2.1806c1.991-0.63764 1.7441-0.76466-1.6406-0.84405-2.1914-0.0514-3.9844 0.32842-3.9844 0.84405 0 1.0805 2.2512 1.0805 5.625 0zm16.875 38.382c0-0.48519-0.63281-0.88217-1.4062-0.88217-1.4498 0-1.8625 1.1062-0.80674 2.162 0.749 0.74899 2.213-0.0977 2.213-1.2798zm288.2 1.022c-2.5076-1.0144-6.8274-6.1409-7.393-8.7733-0.2407-1.1204-0.56658-7.5215-0.72418-14.225-0.3287-13.98-1.2131-16.406-5.9796-16.406-1.6175 0-3.4201 0.57732-4.0057 1.2829-1.2082 1.4558-2.8544 16.508-2.8906 26.431-0.0232 6.3375 0.10086 6.713 2.9006 8.783 3.939 2.9122 6.74 3.6501 13.95 3.6752 4.2037 0.0146 5.4885-0.2237 4.1423-0.76829zm11.972-4.408c2.7239-2.4651 3.8042-8.0302 2.656-13.682-0.54837-2.6993-1.4905-7.65-2.0937-11.002-0.60316-3.3516-1.1762-6.2186-1.2735-6.3713-0.0973-0.15263-3.3918 2.1119-7.3212 5.0323l-7.1444 5.3098v7.3286c0 8.9337 0.81212 11.263 4.8452 13.897 3.4893 2.2787 7.4654 2.0815 10.332-0.51236zm-168.94-3.0016c-0.0126-1.3304-0.13489-1.3457-0.95533-0.11959-1.6197 2.4206-3.241-0.97637-4.5545-9.5428-0.6579-4.2905-1.8394-9.8412-2.6256-12.335-1.3513-4.2859-1.9266-19.354-0.80805-21.164 0.26948-0.436-0.73586-1.0379-2.2341-1.3376-1.4982-0.29964-3.7854-1.6894-5.0826-3.0884l-2.3586-2.5436-0.59376 2.7399c-0.32656 1.5069-1.1895 4.6957-1.9175 7.0861l-1.3238 4.3462 4.7878 8.31c4.5571 7.9095 10.976 21.554 12.509 26.591 1.1311 3.7159 2.3872 4.8936 3.8896 3.6468 0.70503-0.58512 1.2754-1.7505 1.2675-2.5897zm42.592-2.3253c2.7734-1.8172 3.1909-4.7989 0.80049-5.7162-0.89225-0.34239-5.2362-0.33982-9.6532 6e-3 -13.844 1.083-24.29-2.2724-31.531-10.128-4.9671-5.3887-6.9626-8.495-7.8462-12.214l-0.71834-3.0234-0.096 2.6682c-0.2124 5.9057 2.8081 13.01 7.7561 18.241 5.339 5.6452 11.077 8.9364 19.122 10.968 7.0133 1.7714 18.894 1.3412 22.165-0.80252zm-37.89-2.4686c0-0.34859-1.0082-1.1734-2.2406-1.8329s-2.7798-2.2067-3.4389-3.4383c-2.0487-3.828-1.9564-1.8263 0.17226 3.7362 1.9426 5.0764 2.1104 5.2429 3.7702 3.7408 0.95538-0.86461 1.7371-1.8572 1.7371-2.2058zm173.44 2.386c0-0.22738-0.42188-0.67416-0.9375-0.99283-0.51563-0.31868-0.9375-0.13264-0.9375 0.41342s0.42187 0.99283 0.9375 0.99283c0.51562 0 0.9375-0.18604 0.9375-0.41342zm-122.2-4.8642c7.1104-7.9451 14.023-24.697 15.828-38.357 0.47775-3.616 0.2967-5.0004-0.7697-5.8854-1.2009-0.99667-1.5986-0.0563-2.8661 6.7769-1.8302 9.8666-6.298 19.346-13.709 29.087-5.1726 6.7987-6.6879 10.44-5.0335 12.094 1.3206 1.3206 2.7889 0.48776 6.5502-3.7151zm131.57 3.7719c0-0.31251-1.1069-1.4389-2.4598-2.503-2.3847-1.8758-2.4436-2.166-1.9318-9.5099 0.64182-9.2095-0.70163-14.442-4.2145-16.413-5.5781-3.1309-6.7467 2.7064-3.4476 17.221 1.4283 6.2839 6.023 11.774 9.8538 11.774 1.21 0 2.1999-0.25569 2.1999-0.5682zm5.559-4.9335c1.1919-2.2271 0.6152-2.7807-2.3137-2.2208-2.6121 0.49933-3.6456 1.629-2.7766 3.0351 0.96124 1.5553 4.09 1.0548 5.0903-0.81424zm-144.86-12.012c-0.73817-2.4849-1.5243-5.0143-1.7469-5.621-0.29023-0.79087-1.8134-0.5685-5.3825 0.78578-2.7378 1.0388-5.0803 1.9893-5.2056 2.1121-0.12532 0.12283 0.65094 2.8256 1.725 6.0062 1.7039 5.0455 2.3277 5.8799 4.8924 6.5445 2.6458 0.68559 3.1454 0.45838 4.9996-2.274 1.9509-2.8748 1.989-3.2752 0.71796-7.5537zm-104.45 3.4736c0-3.2456-0.43283-5.6358-1.0583-5.8443-0.75433-0.25145-0.60002-2.2261 0.53729-6.875 2.6185-10.703 2.6647-11.63 0.36077-7.2254-3.0614 5.8526-4.4512 5.4764-2.6204-0.70931 1.2331-4.1661 3.7178-16.83 3.718-18.949 1e-4 -1.047-0.49223-1.4222-1.4061-1.0716-0.9262 0.35543-1.4351-0.0546-1.4908-1.2013-0.0465-0.95752-0.48044-0.36984-0.96431 1.3059-1.1333 3.9249-3.6386 4.0862-3.6386 0.23438 0-3.2253-1.4056-3.7711-2.1713-0.84317-0.69191 2.6459-2.509 1.3675-2.5447-1.7903-0.026-2.2957-0.12169-2.3623-1.0638-0.73971-0.78181 1.3465-0.67727 2.9533 0.42694 6.5625 2.4104 7.8787 10.04 39.639 10.04 41.794 0 1.1013 0.42187 1.7416 0.9375 1.4229 0.51562-0.31868 0.9375-3.0506 0.9375-6.071zm83.936-1.4346c1.9543-4.3858 3.2167-8.2882 2.8053-8.6719-0.41131-0.38369-0.91551-0.2323-1.1204 0.33641-0.20492 0.56872-2.2495 4.1547-4.5435 7.9688s-4.178 7.2511-4.1866 7.6378c-8e-3 0.38672 0.77359 0.70313 1.7382 0.70313 1.2974 0 2.6784-2.0749 5.307-7.9742zm8.8724 7.2711c-3e-3 -0.38671-1.0313-3.2242-2.2864-6.3056l-2.2821-5.6025-1.0426 2.79c-0.5734 1.5345-1.8581 4.372-2.8548 6.3056l-1.8122 3.5156h5.1412c2.8277 0 5.1392-0.31641 5.1369-0.70313zm-18.127-2.8125c0.71183-0.90234 3.3735-5.0975 5.9148-9.3226l4.6205-7.682-2.5736-7.318c-1.4155-4.0249-3.3019-8.4187-4.1921-9.764-2.2478-3.3972-1.2411-5.1177 4.1235-7.0468 5.4685-1.9664 5.9205-3.1634 1.1946-3.1634-2.7582 0-4.2894 0.8147-7.9286 4.2188-3.2604 3.0497-5.2854 4.2188-7.3075 4.2188-1.5385 0-3.0581-0.42188-3.3767-0.9375-1.0556-1.708-4.1116-0.97388-7.233 1.7375-1.6937 1.4712-4.0785 3.2002-5.2995 3.8422-2.0826 1.0949-2.1805 1.5164-1.582 6.8066 0.35091 3.1016 0.9843 6.3297 1.4075 7.1734 0.42323 0.84372 1.3414 2.7493 2.0403 4.2346 2.0849 4.4306 8.0275 10.551 12.296 12.664 4.8606 2.406 6.2193 2.4643 7.896 0.33884zm-68.828-6.5625c3.9973-6.5162 11.781-22.127 14.72-29.524 1.9612-4.9354 2.0352-5.7343 0.89107-9.6094-1.4726-4.9874-2.4817-5.3995-2.8886-1.1796-0.33369 3.4609-1.9132 3.7697-2.6807 0.52409-0.44071-1.8636-0.59961-1.9365-1.1424-0.52409-1.2954 3.3707-2.4715 1.4342-3.1316-5.1562-1.1266-11.249-2.3769-3.6865-2.5573 15.467-0.0862 9.1515-0.4312 16.64-0.76669 16.641-0.3355 8.3e-4 -1.0651-1.5805-1.6214-3.5141-0.84923-2.952-0.95134-2.0503-0.63702 5.625 0.227 5.543 0.0161 9.1406-0.53586 9.1406-0.77473 0-3.627 5.5057-3.627 7.0011 0 1.2343 0.89503 0.13365 3.9778-4.8918zm110.37-11.953c4.8318-9.703 7.4587-20.312 6.2358-25.184-0.85499-3.4065-6.1044-7.0523-11.15-7.7439-5.6622-0.77608-8.1734-0.0544-12.614 3.6251-2.0268 1.6792-7.1326 4.7197-11.346 6.7565-4.2137 2.0368-7.6612 4.0899-7.6612 4.5624 0 1.0613 2.3507 0.52708 10.781-2.4502 5.7183-2.0194 6.5225-2.586 6.2516-4.4046-0.35363-2.3742 1.4614-2.2355 3.017 0.23051 0.70982 1.1253 0.56826 1.9784-0.5352 3.2254-1.3852 1.5655-1.2605 2.4502 1.6276 11.539 1.7203 5.4141 4.0373 12.984 5.149 16.822l2.0211 6.9781 1.7778-2.2906c0.97779-1.2598 3.8786-6.5093 6.4462-11.666zm-112.54 0.64779-0.0652-5.3353-1.4004 4.5596c-1.4174 4.615-1.1414 7.7626 0.58686 6.6945 0.51926-0.32093 0.91474-2.9844 0.87882-5.9188zm95.218 3.5008c2.0646-0.91984 3.1777-1.7022 2.4735-1.7387-2.011-0.10401-10.438 3.0987-10.438 3.967 0 0.89411 2.5706 0.17493 7.9648-2.2283zm-3.2131-2.3698c2.8006-0.82631 5.1994-1.6017 5.3306-1.723s-0.23545-1.5805-0.81485-3.2426c-0.65249-1.8717-1.5239-2.8414-2.2893-2.5477-0.67974 0.26084-3.0552 0.96224-5.2789 1.5587-5.4433 1.46-5.4316 1.4472-4.2233 4.6485 1.2423 3.2913 0.81008 3.2137 7.2757 1.3061zm2.4574-11.019c0.91495-0.91494-0.64564-0.61225-5.7351 1.1124-2.5409 0.86101-4.7782 2.0549-4.9719 2.653-0.32889 1.0157 9.3187-2.3772 10.707-3.7654zm-6.1787-0.71253c5.3-1.9325 5.4274-2.0606 4.8942-4.9219-0.84561-4.5377-1.6109-4.7867-7.5092-2.4429-2.9956 1.1903-5.5908 2.2727-5.767 2.4052-0.42394 0.31868 1.9822 6.9438 2.5219 6.9438 0.23019 0 2.8673-0.89285 5.8602-1.9841zm-60.403-4.6481c0.60304-2.282 1.1304-6.9382 1.1719-10.347 0.0752-6.173 0.0656-6.1962-2.3453-5.7354-1.3314 0.25452-2.6544 1.1452-2.94 1.9794-0.28555 0.83414-1.5396 4.1387-2.7868 7.3434l-2.2676 5.8268 3.0982 2.8157c1.704 1.5487 3.52 2.6921 4.0357 2.5411 0.51563-0.15108 1.4309-2.1418 2.0339-4.4238zm20.985-4.2609c4.2686-4.483 8.4617-6.2335 12.89-5.3811 5.1368 0.98889 6.5127 0.70088 9.7781-2.0468 2.8551-2.4024 3.2511-2.4712 10.672-1.853l7.7068 0.64198 2.6547-3.0197c3.3873-3.853 9.062-6.464 14.106-6.4903 2.9335-0.0153 4.2014-0.48771 4.9219-1.834 1.6032-2.9957 1.2172-5.0323-0.85125-4.4914-1.1034 0.28853-2.4897-0.26223-3.5156-1.3967-0.93164-1.0302-3.1704-2.6297-4.9751-3.5546-4.8179-2.469-10.161-10.542-11.703-17.683-1.0179-4.7131 1.2372-3.3668 3.2522 1.9415 0.90541 2.3852 2.499 5.5344 3.5414 6.9983 1.8572 2.6081 10.535 9.431 10.535 8.2831 0-0.32058-1.6328-4.0382-3.6284-8.2614s-4.5905-10.632-5.7664-14.241c-3.5614-10.932-11.736-27.23-15.952-31.804-2.5814-2.8006-5.6079-4.8633-8.9945-6.1304-2.8072-1.0503-5.2831-1.9096-5.5021-1.9096s-3.0223 2.3415-6.2296 5.2033c-7.2668 6.484-16.241 12.795-23.16 16.287-5.9897 3.0229-14.701 5.8263-15.529 4.9976-0.30265-0.30264-0.55027-0.083-0.55027 0.48816 0 0.57113 0.4299 1.3041 0.95533 1.6288 1.6526 1.0213 5.6072 9.6588 5.6072 12.247 0 2.2108 0.26656 2.4096 2.4839 1.8531 3.023-0.75873 11.009-6.8931 18.67-14.342 3.1271-3.0402 7.6994-6.5025 10.161-7.694 3.9444-1.9094 4.9042-2.0378 8.0933-1.0824 7.6494 2.2918 11.464 9.1417 12.587 22.601 0.32265 3.8672 1.2251 11.505 2.0054 16.973 0.78035 5.468 1.2892 12.218 1.1307 15-0.24836 4.3606-0.56733 5.098-2.3129 5.3467-1.3419 0.19119-2.6067-0.55359-3.75-2.2082-3.1092-4.4996-9.4003-10.737-10.83-10.737-0.77011 0-5.9024 2.1237-11.405 4.7193s-12.737 5.4358-16.076 6.3116c-3.3389 0.87573-6.0708 2.1112-6.0708 2.7455s0.89218 3.5378 1.9826 6.4523c3.5817 9.5731 7.5571 11.228 13.068 5.4408zm2.1976-11.762c-0.65198-1.0549 2.9305-2.6577 5.9403-2.6577 1.4776 0 3.1858-0.49922 3.796-1.1094 1.5424-1.5424 2.7003-0.0884 1.4793 1.8575-1.0388 1.6555-10.389 3.2475-11.216 1.9096zm-50.998 12.126c0-0.57349 0.56217-1.7088 1.2493-2.5228 0.70226-0.832 1.9275-7.227 2.7982-14.605 1.6936-14.351 1.8341-14.628 8.4301-16.604 4.822-1.4447 5.5815-0.203 4.8516 7.932-0.31225 3.4805-0.3736 6.3281-0.13632 6.3281 1.3049 0 4.611-20.743 3.813-23.923-0.77212-3.0764-1.4972-2.9095-3.1933 0.73493-2.6377 5.6675-13.605 9.6703-14.728 5.3753-0.63287-2.4201-1.0236-2.3638-3.2516 0.46875-1.014 1.2891-2.4606 2.3438-3.2148 2.3438-1.5697 0-5.4846-2.2948-8.5708-5.024-2.1375-1.8902-2.8905-5.2885-1.1719-5.2885 0.51563 0 0.9375-0.63281 0.9375-1.4062 0-2.0278-2.573-1.7306-3.7298 0.43095-0.54078 1.0105-1.2458 3.7526-1.5667 6.0938-0.32088 2.3411-0.96249 4.2566-1.4258 4.2566-1.2129 0 0.12694-9.4471 1.6953-11.953 1.7415-2.7826 4.6115-2.6774 6.5224 0.23908 1.2961 1.9781 1.3408 2.587 0.28356 3.8608-1.0837 1.3058-0.87465 1.8169 1.5297 3.7406 4.0433 3.235 6.4718 2.9083 8.3874-1.1287 1.7875-3.7669 2.098-14.439 0.53931-18.539-1.2363-3.2517-5.3619-3.5034-5.9116-0.36074-0.34253 1.958-0.42519 1.9825-1.1519 0.34133-2.0945-4.73 4.1143-6.577 10.706-3.1849 6.1508 3.1652 6.5807 4.4251 3.5515 10.408-2.866 5.6601-3.5393 13.445-1.2393 14.328 0.72344 0.27761 3.0438-0.37702 5.1562-1.4547 3.105-1.5841 3.8409-2.4587 3.8409-4.5654 0-3.159 1.5282-4.856 4.3733-4.856 4.5886 0 5.1814 6.8061 2.1197 24.338-1.0695 6.1244-1.7922 12.329-1.6059 13.789 0.57587 4.5128 4.4377-9.1701 5.6604-20.056 1.2216-10.875 0.0103-21.453-3.1708-27.689-4.8013-9.4114-16.324-16.492-24.949-15.331-9.3529 1.2589-19.814 10.097-21.533 18.191-1.4552 6.8521-0.69112 17.29 2.0729 28.319 1.486 5.9297 3.0106 11.149 3.3881 11.599 0.37748 0.44977 0.3073-0.81586-0.15593-2.8125-1.1189-4.8225-1.0994-7.849 0.0505-7.849 0.51563 0 0.9375 1.8735 0.9375 4.1634s0.42188 4.4242 0.9375 4.7428c0.6001 0.37088 0.9375-2.6563 0.9375-8.4116 0-10.008 0.70946-11.147 5.3421-8.5745 1.4447 0.80217 4.1937 2.0768 6.1089 2.8324 2.4196 0.95463 3.6726 2.1322 4.1059 3.8588 0.78555 3.1299-0.0734 25.617-1.0706 28.027-0.52405 1.2664-0.41981 1.595 0.35428 1.1166 0.60325-0.37284 1.0968-1.1471 1.0968-1.7206zm-106.88-0.33896c0-0.30517-0.86186-1.6763-1.9152-3.0469-1.0534-1.3706-2.6354-3.4624-3.5156-4.6485-1.485-2.001-9.1705-4.6485-10.278-3.5407-1.0293 1.0293 4.9636 6.7928 9.4796 9.1167 5.1155 2.6325 6.2295 3.0115 6.2295 2.1193zm171.56-2.2984c-3.1366-0.95005-9.1581-1.0703-9.6949-0.19368-0.23681 0.38672 2.375 0.74823 5.804 0.80336 4.1284 0.0664 5.4428-0.1396 3.8908-0.60968zm-161.72-1.0099 3.7468-1.0402-4.4392-4.0191c-2.4416-2.2105-6.237-4.6486-8.4343-5.418-2.1973-0.76937-4.7679-1.7128-5.7125-2.0966-1.4795-0.60102-1.3685-0.0303 0.80076 4.1184 2.4978 4.7769 7.0777 9.5108 9.1918 9.5008 0.60497-3e-3 2.786-0.4733 4.8467-1.0454zm89.825-16.107c1.1048-8.1201 0.79172-11.425-0.92005-9.7136-0.27741 0.27742-0.67255 5.0658-0.87808 10.641-0.44088 11.959 0.0816 11.69 1.7981-0.92713zm-4.4076-1.6861c0.90023-6.4408 1.0331-9.9277 0.40227-10.559-0.51803-0.51803-1.1023-0.75905-1.2984-0.53561-0.55604 0.63363-1.4912 21.754-0.93878 21.202 0.26992-0.26993 1.0956-4.8183 1.8349-10.107zm8.7107-2.5401c0.0582-3.1007-0.26001-4.7588-0.84405-4.3978-0.51563 0.31868-0.89544 3.6131-0.84405 7.321 0.10852 7.8285 1.5325 5.3627 1.6881-2.9232zm34.078 8.2713c1.2826-0.01 1.6406-0.81849 1.6406-3.7049 0-3.4456-0.17217-3.6803-2.5781-3.5156-1.915 0.1311-2.8612 0.89989-3.6787 2.989-1.724 4.4056-1.5353 5.4532 0.86617 4.8096 1.1602-0.31092 2.8477-0.57106 3.75-0.5781zm-3.9844-1.7614c0-1.102 3.6377-2.4261 4.4456-1.6182 0.72091 0.72092 0.2363 1.1165-2.3363 1.9073-1.2135 0.37301-2.1094 0.25023-2.1094-0.2891zm-12.712-6.4545c0.44528-5.2704 0.33426-7.7344-0.34849-7.7344-0.63383 0-1.0019 2.985-1.0019 8.125 0 4.4688 0.15682 7.9492 0.34848 7.7344 0.19167-0.21485 0.64253-3.8711 1.0019-8.125zm-4.4175-2.8125c-0.20227-1.9336-0.36774-0.35156-0.36774 3.5156s0.16547 5.4492 0.36774 3.5156c0.20226-1.9336 0.20226-5.0976 0-7.0312zm32.705 7.4947c2.7418-1.3075 2.9602-1.7881 3.4574-7.6092 0.84076-9.8425 0.54764-29.182-0.44231-29.182-0.48931 0-2.6988 1.5123-4.91 3.3606l-4.0204 3.3606 1.2297 7.655c1.5293 9.5201 1.8581 21.063 0.6347 22.287-0.60269 0.60269-1.1325-2.7371-1.5336-9.668-0.7546-13.039-2.2451-20.053-3.9081-18.39-0.26375 0.26376-0.067 3.6036 0.43714 7.4219 1.4725 11.152 1.7684 17.787 0.92443 20.73-0.77619 2.7064-0.74328 2.7376 2.2081 2.0893 1.6478-0.36194 4.3131-1.2861 5.9227-2.0537zm-1.5129-2.4581c0-0.19467 0.63281-0.87914 1.4062-1.521 1.1517-0.95585 1.4062-0.89179 1.4062 0.35396 0 0.83657-0.63281 1.521-1.4062 1.521s-1.4062-0.15928-1.4062-0.35396zm0-4.33c0-1.1365 2.6292-2.3743 3.402-1.6016 0.27974 0.27974-0.37127 0.9795-1.4467 1.555-1.3558 0.72561-1.9553 0.73988-1.9553 0.0465zm0-4.6875c0-1.1365 2.6292-2.3743 3.402-1.6016 0.27974 0.27974-0.37127 0.9795-1.4467 1.555-1.3558 0.72561-1.9553 0.73988-1.9553 0.0465zm0-5.658c0-1.2084 2.671-2.2996 3.5289-1.4417 0.34955 0.34956 0.0149 1.028-0.74356 1.5077-1.8148 1.1477-2.7854 1.1247-2.7854-0.066zm-0.47127-4.6622c-0.67915-1.0989 1.7233-2.2348 3.4847-1.6477 0.77656 0.25885 0.4766 0.78741-0.84967 1.4972-1.3514 0.72323-2.2494 0.77451-2.635 0.15046zm0.33455-5.6471c1.2139-1.0113 2.6489-1.5657 3.1889-1.232 1.2072 0.74609-1.8377 3.1467-3.9345 3.1019-1.0818-0.0231-0.88807-0.50889 0.74559-1.87zm-1.7383-2.1357c0-1.554 3.7831-3.8051 4.7574-2.8308 0.43247 0.43247-0.46102 1.5022-1.9855 2.3771-1.9229 1.1036-2.7718 1.2426-2.7718 0.45368zm41.147 25.365-0.10271-5.8594-0.8251 4.214c-0.74389 3.7993-0.43533 7.5048 0.62496 7.5048 0.22306 0 0.35935-2.6367 0.30285-5.8594zm-30.112-17.421c0.16645-12.401-0.07547-18.907-0.70312-18.907-0.52631 0-0.96273 0.31641-0.96983 0.70312-0.46088 25.096-0.29887 37.683 0.48166 37.423 0.57227-0.19066 1.0364-7.6782 1.1913-19.219zm7.3429 15.562 4.7842-2.1046 0.64968-20.514c0.35732-11.283 0.43436-20.729 0.1712-20.992-0.58615-0.58616-7.0175 2.3324-9.0672 4.1148-1.2654 1.1003-1.5051 4.1979-1.5872 20.508-0.0532 10.567-0.3566 19.633-0.67421 20.147-0.87926 1.4227 0.48153 1.1471 5.7236-1.1589zm-2.2061-4.7036c0.21485-0.64453 1.1641-1.1719 2.1094-1.1719s1.8945 0.52734 2.1094 1.1719c0.2474 0.7422-0.52604 1.1719-2.1094 1.1719s-2.3568-0.42968-2.1094-1.1719zm0.43018-4.1011c-0.36551-0.3655-0.66455-1.0441-0.66455-1.5081 0-1.1442 4.6927-0.49283 4.951 0.68727 0.24187 1.1049-3.3203 1.787-4.2865 0.8208zm0.50732-4.7229c-2.1753-0.87775-1.1918-2.1916 1.6406-2.1916 3.0053 0 3.7781 1.3039 1.3296 2.2434-0.8156 0.31298-1.5539 0.53574-1.6406 0.49503-0.0867-0.0407-0.68504-0.2868-1.3296-0.54687zm-0.54687-6.5666c-1.344-1.344-0.50045-2.1875 2.1875-2.1875 1.875 0 2.8125 0.46875 2.8125 1.4062 0 1.419-3.7728 2.0085-5 0.78125zm0.3125-5.8372c0-0.83734 2.2045-1.9753 3.8267-1.9753 0.47344 0 0.86082 0.63281 0.86082 1.4062 0 0.875-0.88541 1.4062-2.3438 1.4062-1.2891 0-2.3438-0.37674-2.3438-0.8372zm-0.24746-4.4103c-1.111-1.111 0.2698-2.2525 2.7247-2.2525 1.4741 0 2.221 0.44194 1.9806 1.1719-0.43223 1.3125-3.7187 2.0673-4.7053 1.0807zm-0.022-6.5845c-1.4523-1.4524-0.51342-2.2305 2.6914-2.2305 2.2677 0 3.2343 0.3808 2.9746 1.1719-0.43035 1.3106-4.6294 2.0952-5.6659 1.0587zm23.216 23.221c-1.2854-10.659-1.4454-11.034-4.9365-11.544-2.7744-0.40553-2.2814-2.2755 0.50589-1.9189 2.9572 0.37833 2.6341-1.326-0.46875-2.4724-2.5301-0.93478-2.5388-0.96449-0.46875-1.5937 2.5832-0.78521 2.8026-3.235 0.2897-3.235-1.0008 0-2.0804-0.42188-2.3991-0.9375-0.31867-0.51563 0.28924-0.9375 1.3509-0.9375 1.0617 0 1.9304-0.28319 1.9304-0.62931 0-0.94547-2.9878-4.0582-3.8953-4.0582-0.43571 0-0.7922 3.943-0.7922 8.7622 0 12.903-1.0835 25.925-2.157 25.925-0.6174 0-0.71296-6.4189-0.27914-18.75 0.57701-16.401 0.48202-18.75-0.75834-18.75-1.2019 0-1.4241 2.1786-1.458 14.297-0.0219 7.8633-0.27845 16.779-0.56995 19.814-0.52134 5.4265-0.4945 5.5061 1.6431 4.873 1.1952-0.35398 3.7551-0.88811 5.6887-1.1869 2.8337-0.43795 3.5156-0.25009 3.5156 0.9685 0 0.83151-1.0317 1.7708-2.2928 2.0873l-2.2928 0.57545 5.0542 4.3962 1.6975-5.3338c1.2296-3.8634 1.5307-6.7169 1.0925-10.351zm-7.2431 4.8339c-2.7016-0.69639-1.8545-2.1604 1.25-2.1604 1.8147 0 2.7525 0.41437 2.5195 1.1133-0.44015 1.3205-1.5323 1.6238-3.7695 1.0471zm-0.1612-6.7295c-0.31488-0.50948-0.22511-1.141 0.19948-1.4034 1.1706-0.72345 4.4148-0.0579 4.4148 0.90567 0 1.1956-3.9216 1.6186-4.6143 0.49777zm0.39555-5.7434c0-0.51563 0.81885-0.9375 1.8197-0.9375s2.0804 0.42187 2.3991 0.9375c0.32861 0.53171-0.45902 0.9375-1.8197 0.9375-1.3195 0-2.3991-0.42188-2.3991-0.9375zm-41.188 21.53c2.6948-1.4422 2.2239-2.9264-0.53038-1.6714-1.2891 0.58734-2.3438 1.422-2.3438 1.8549 0 1.036 0.67627 0.99279 2.8741-0.18347zm0.87587-5.2014c0-0.81641-0.50098-1.3174-1.1133-1.1133-1.7383 0.57944-2.0266 2.5976-0.37109 2.5976 0.8164 0 1.4844-0.66797 1.4844-1.4844zm0-6.5397c0-2.7025-1.3892-2.3722-2.1428 0.50947-0.32243 1.233-0.036 1.8896 0.82434 1.8896 0.78949 0 1.3185-0.96254 1.3185-2.3991zm0-5.493c0-1.8873-1.0164-4.2954-1.8129-4.2954-0.37115 0-0.48907 1.2656-0.26204 2.8125 0.41236 2.8096 2.075 3.9978 2.075 1.4829zm-25.668-16.058c-0.28762-0.74952-1.2182-1.3628-2.068-1.3628-1.1447 0-1.3986 0.5465-0.97973 2.1094 0.31092 1.1602 0.57106 2.7306 0.5781 3.4899 8e-3 0.90938 0.52122 0.65461 1.5027-0.74661 0.81943-1.1699 1.2545-2.7403 0.96692-3.4898zm18.168-14.51c0-1.7647 0.66039-3.0776 1.875-3.7277 2.6243-1.4045 2.3344-2.6351-0.70313-2.9846-2.4748-0.28475-2.6613-0.69115-4.6542-10.14-1.1418-5.4141-2.091-11.418-2.1094-13.342-0.0373-3.9124 9e-3 -3.9361 9.6468-4.897 4.8467-0.48324 5.648-0.31404 7.1196 1.5033 1.9702 2.433 4.7628 1.8013 4.7628-1.0773 0-1.0636 0.73828-2.2062 1.6406-2.5392 3.6669-1.3529 3.4746-4.0233-0.2897-4.0233-1.5828 0-2.2884-0.52288-2.2884-1.6958 0-0.9327-0.58716-2.4988-1.3048-3.4802-1.1086-1.5161-1.5315-1.5963-2.8125-0.53314-0.82923 0.6882-1.5077 2.0285-1.5077 2.9785 0 0.94997-0.76993 2.1393-1.711 2.6429-1.9244 1.0299-12.041 1.6485-12.901 0.7888-0.67263-0.67263 2.1422-20.463 3.3698-23.692 0.70888-1.8645 1.3514-2.199 3.4775-1.8103 1.4344 0.2622 3.1968 0.08598 3.9165-0.3916 1.9633-1.3029 0.493-3.8701-2.2166-3.8701-2.774 0-2.8531-0.27105-0.93327-3.201 1.308-1.9962 1.2971-2.2524-0.11883-2.7957-3.7942-1.456-6.0579 4.3291-9.1332 23.34-1.2511 7.7344-2.1519 14.278-2.0017 14.542s4.0018 0.219 8.5591-0.09933 8.4688-0.42159 8.6923-0.22945c1.3142 1.1301-2.6253 2.4921-9.4009 3.2502-4.2769 0.4785-7.9853 1.079-8.2407 1.3345-0.45138 0.45139 6.3028 35.796 7.1151 37.233 0.8245 1.4587 2.1515-0.44382 2.1515-3.0845zm-6.375 1.7098c-0.61875-0.61875-1.125-2.5024-1.125-4.1858 0-4.1773-2.2794-5.2-12.624-5.6642-9.1067-0.40867-11.015 0.15726-10.261 3.0427 0.40636 1.5539 1.1389 1.7921 4.6522 1.5127 2.2935-0.18241 4.1699-0.71105 4.1699-1.1748s0.44677-0.8431 0.99283-0.8431 0.7321 0.42188 0.41342 0.9375c-0.31868 0.51563-0.37808 0.9375-0.132 0.9375 0.24607 0 1.1147 0.25607 1.9303 0.56905 0.97312 0.37342 1.4829 0.0511 1.4829-0.9375 0-0.82861 0.47107-1.5066 1.0468-1.5066 0.58528 0 0.83065 0.8267 0.55652 1.875-0.26968 1.0312-0.35338 1.875-0.18602 1.875 0.16737 0 0.97163 0.25607 1.7872 0.56905 1.0631 0.40795 1.4829 0.01 1.4829-1.4062 0-1.0864 0.45206-1.9753 1.0046-1.9753 0.55252 0 0.86893 1.0365 0.70312 2.3033-0.19179 1.4653 0.38068 2.8188 1.5735 3.7202 2.2365 1.6901 4.1332 1.9534 2.5312 0.3515zm23.822-5.5612c2.0056-1.1495 3.8155-2.2179 4.022-2.3742s-0.51068-3.3496-1.5937-7.0962c-1.083-3.7466-2.4198-8.5732-2.9707-10.726-0.83537-3.2645-1.4726-4.0171-3.8416-4.5374-1.5621-0.34309-3.3434-1.4296-3.9584-2.4145-1.1692-1.8722-3.8757-2.2271-9.067-1.1889-2.764 0.55279-2.968 0.83917-2.5048 3.5156 0.27737 1.6026 0.9967 6.4097 1.5985 10.682 1.0032 7.1225 1.3187 7.8848 3.7938 9.1647 3.0191 1.5612 3.508 4.4191 1.2636 7.3864-2.7822 3.6783-1.5923 4.2303 4.1176 1.9102 3.0217-1.2278 7.135-3.173 9.1406-4.3225zm-5.9628-3.3615c-1.864-0.66964-1.3572-3.0772 0.6478-3.0772 1.0008 0 2.0509 0.37407 2.3334 0.83127 0.68971 1.116-1.5112 2.7741-2.9812 2.246zm-4.4822-5.9368c-0.89082-1.4414 0.32939-2.3714 1.5327-1.1681 0.6733 0.6733 0.68947 1.1977 0.0491 1.5934-0.52493 0.32442-1.2367 0.13303-1.5818-0.42531zm4.4135-5.1587c0.424-2.0364 2.0878-2.161 2.4684-0.18485 0.19762 1.0262-0.26219 1.6406-1.2278 1.6406-0.90068 0-1.4175-0.60641-1.2406-1.4558zm-10.074-0.52404c-0.70673-1.1435 1.3988-2.863 2.5981-2.1218 0.41134 0.25422 0.74789 1.0701 0.74789 1.8131 0 1.5909-2.4158 1.8137-3.346 0.30861zm7.7465-4.2447c-0.87491-0.87491 0.18237-2.213 1.7486-2.213 0.74301 0 1.3509 0.63281 1.3509 1.4062 0 1.4121-1.979 1.9272-3.0995 0.80674zm-5.8572-3.2322c-0.96612-1.5632 1.2068-3.3558 2.5-2.0625 1.0818 1.0818 0.40473 3.0817-1.0433 3.0817-0.45476 0-1.1103-0.45863-1.4567-1.0192zm-10.731 17.053c0-2.0845-18.283-3.6221-23.438-1.9712-1.5458 0.49507 1.0074 0.81423 7.5 0.9375 5.4141 0.1028 10.898 0.52467 12.188 0.9375 3.2627 1.0449 3.75 1.0574 3.75 0.0962zm43.232-9.2331 6.2603-5.9057-3.036-7.7131c-4.8391-12.294-8.3394-18.566-16.077-28.807-7.2953-9.6557-15.882-17.862-18.608-17.784-0.54436 0.01567-0.25146 0.45852 0.65088 0.98408 0.96388 0.5614 1.6406 2.0737 1.6406 3.6662 0 1.4908 0.42187 2.9713 0.9375 3.29 1.4566 0.90023 1.104 5.7934-0.53572 7.433-0.81026 0.81027-2.6141 1.4732-4.0084 1.4732-2.4915 0-2.5598 0.16174-3.9572 9.375l-1.422 9.375h4.2874c3.8883 0 4.3847-0.25786 5.333-2.7702 1.3272-3.5161 5.0052-4.6125 8.2785-2.4678 1.2853 0.84217 2.3369 2.1058 2.3369 2.808 0 0.70225 1.0547 1.9679 2.3438 2.8125 2.9267 1.9177 3.2431 6.5702 0.54495 8.0142-2.7895 1.4929-3.1485 5.4966-1.0311 11.502 1.0408 2.952 1.8948 5.9051 1.8976 6.5625 3e-3 0.65741 0.44795 2.7895 0.98905 4.738l0.98384 3.5427 2.9653-2.1115c1.6309-1.1613 5.7824-4.769 9.2256-8.0172zm-44.743 1.3006c-0.58614-4.9872-0.7679-5.2887-3.1878-5.2887-1.4114 0-3.8808-0.2629-5.4874-0.58423l-2.9212-0.58424 1.0455 2.999c0.72842 2.0895 0.74773 3.2968 0.0636 3.9808-0.68404 0.68404-1.333-0.19041-2.1399-2.8835-1.5378-5.1328-3.6764-5.2152-2.9924-0.11532 0.30346 2.2625 0.12192 3.75-0.45765 3.75-1.2007 0-2.0987-2.2555-2.0987-5.2709 0-2.1041-0.32948-2.2856-3.7797-2.082l-3.7797 0.22301 0.61857 4.2681c0.34021 2.3474 0.74048 4.4089 0.88947 4.581 0.149 0.1721 5.1368 0.38303 11.084 0.46875 7.1341 0.10282 11.206 0.54925 11.968 1.3121 1.703 1.7046 1.8608 1.0631 1.1748-4.7738zm-22.863 0.41294c0-0.98908-0.25607-2.4656-0.56905-3.2812-0.36279-0.94541-0.0602-1.4829 0.83493-1.4829 0.90659 0 1.5397 1.1625 1.787 3.2812 0.26418 2.2628 5e-3 3.2812-0.83493 3.2812-0.6699 0-1.218-0.80925-1.218-1.7983zm15.599-0.5435c-0.93078-2.4256-0.71998-3.2832 0.80704-3.2832 1.548 0 1.8166 1.6511 0.58486 3.5942-0.63233 0.99752-0.91389 0.9346-1.3919-0.31105zm5.1738-0.47068c0-1.2891 0.2128-1.8164 0.47287-1.1719 0.26007 0.64453 0.26007 1.6992 0 2.3438-0.26007 0.64453-0.47287 0.11718-0.47287-1.1719zm0.78948-7.3794c0-0.95267-15.708-2.9602-20.857-2.6655-2.0229 0.11581-3.514 0.68513-3.5156 1.3423-2e-3 0.81142 3.0448 1.2276 10.544 1.4402 5.8008 0.16448 11.285 0.38924 12.188 0.49945 0.90235 0.11022 1.6406-0.16718 1.6406-0.61645zm-2.1983-7.005c-0.99221-3.17-1.0339-3.1897-8.0714-3.8036-3.8907-0.33939-8.6561-0.8618-10.59-1.1609l-3.5156-0.54382-1.3e-4 4.0869-1.4e-4 4.0869 7.7377-0.32108c4.2557-0.1766 9.2128 0.07788 11.016 0.56549 4.2842 1.1587 4.6103 0.88159 3.4235-2.91zm-2.4892 0.73526c0-0.80387 0.42187-1.2008 0.9375-0.88217 0.51562 0.31867 0.9375 0.97638 0.9375 1.4616 0 0.4852-0.42188 0.88217-0.9375 0.88217-0.51563 0-0.9375-0.65771-0.9375-1.4616zm-4.2478-0.4605c-0.89082-1.4414 0.32939-2.3714 1.5327-1.1681 0.6733 0.67329 0.68947 1.1977 0.0491 1.5934-0.52493 0.32442-1.2367 0.13303-1.5818-0.42531zm-4.1896-0.89042c0-0.51562 0.42187-0.9375 0.9375-0.9375 0.51562 0 0.9375 0.42188 0.9375 0.9375s-0.42188 0.9375-0.9375 0.9375c-0.51563 0-0.9375-0.42188-0.9375-0.9375zm-9.375-1.4062c0-0.77344 0.42187-1.4062 0.9375-1.4062s0.9375 0.63281 0.9375 1.4062c0 0.77344-0.42187 1.4062-0.9375 1.4062s-0.9375-0.63281-0.9375-1.4062zm4.6875 0.46875c0-0.51562 0.63281-0.9375 1.4062-0.9375s1.4062 0.42188 1.4062 0.9375-0.63281 0.9375-1.4062 0.9375-1.4062-0.42188-1.4062-0.9375zm15-4.6875c0-0.51562-1.3711-0.95747-3.0469-0.98188-4.5001-0.06555-12.057-0.78088-15-1.4198-1.418-0.30789-2.5781-0.15374-2.5781 0.34256 0 0.95002 9.878 2.6533 16.641 2.8693 2.1914 0.07001 3.9844-0.29458 3.9844-0.81021zm-1.0126-4.4531c0.91007-1.5625 0.95693-1.5625 0.98408 0 0.0157 0.90234 0.48132 1.6406 1.0348 1.6406s0.86436-0.7367 0.69096-1.6371c-0.24794-1.2875-2.2148-1.9543-9.2094-3.1221-8.7952-1.4685-8.9064-1.4634-9.9974 0.46523-1.0198 1.8026-0.81089 2.0104 2.7586 2.7443 3.0953 0.63637 4.0793 0.49678 4.9567-0.70312 1.3579-1.857 2.2943-1.9207 2.2943-0.15607 0 0.73758 0.94922 1.5239 2.1094 1.7473 1.1602 0.22346 2.4048 0.46374 2.7659 0.53395 0.3611 0.07022 1.0866-0.61061 1.6121-1.513zm2.8876-3.9179c0-0.79096-3.8363-1.7745-13.252-3.3974-1.9465-0.3355-3.6591-0.18166-3.993 0.35869-0.3594 0.58152 1.8573 1.1772 5.752 1.5456 3.4852 0.3297 7.1805 0.96796 8.2118 1.4183 2.5123 1.0972 3.2812 1.1147 3.2812 0.07476zm1.2841-4.0508c1.4851-5.5416 1.061-6.0318-6.1439-7.1012-3.7042-0.54978-7.0822-0.78493-7.5067-0.52256-0.42452 0.26237-1.3796 1.6523-2.1224 3.0887l-1.3506 2.6117 6.2997 1.1258c3.4648 0.6192 6.9232 1.5201 7.6853 2.002 2.0529 1.2981 2.5154 1.1207 3.1385-1.2045zm-3.0185-1.5938c0.20625-0.61875 0.68086-1.0934 1.0547-1.0547 1.121 0.11596 0.90388 1.4018-0.30468 1.8047-0.61875 0.20625-0.95625-0.13125-0.75001-0.75zm-2.9531-1.4531c0-0.77344 0.42187-1.4062 0.9375-1.4062 0.51562 0 0.9375 0.63281 0.9375 1.4062 0 0.77344-0.42188 1.4062-0.9375 1.4062-0.51563 0-0.9375-0.63281-0.9375-1.4062zm-4.0216-1.4062c0.26968-1.0312 0.863-1.875 1.3185-1.875 0.45549 0 0.82816 0.84375 0.82816 1.875s-0.59332 1.875-1.3185 1.875c-0.85692 0-1.1468-0.65638-0.82816-1.875zm-3.8474-0.39041c0.31333-0.81652 0.98158-1.4846 1.485-1.4846 1.2322 0 0.46064 2.1307-0.94078 2.5979-0.68507 0.22836-0.8946-0.20024-0.54422-1.1133zm14.9-3.3596c-0.31868-0.51562-1.7147-0.93104-3.1022-0.92314-1.9732 0.01123-2.2164 0.21233-1.1165 0.92314 1.8524 1.1971 4.9586 1.1971 4.2188 0zm-7.5-1.875c-1.0312-0.44314-2.7188-0.79331-3.75-0.77816-1.5073 0.02215-1.4154 0.17476 0.46875 0.77816 3.2055 1.0266 5.6702 1.0266 3.2812 0zm8.6233-4.2407c0.53372-2.3324 0.67003-4.4263 0.30289-4.6532-0.36712-0.2269-2.3148-0.6651-4.3281-0.97378-3.5236-0.54025-3.7423-0.41573-5.8448 3.3284-1.2013 2.1393-2.0451 3.9924-1.875 4.1179s2.4186 0.66366 4.9967 1.1958c2.5781 0.5321 4.9328 1.0255 5.2327 1.0965 0.29985 0.071 0.98187-1.7792 1.5156-4.1116zm-3.467-1.3843c0-1.0312 0.42187-1.875 0.9375-1.875 0.51562 0 0.9375 0.84375 0.9375 1.875s-0.42188 1.875-0.9375 1.875c-0.51563 0-0.9375-0.84375-0.9375-1.875zm-3.75-0.88217c0-1.0008 0.38585-2.0581 0.85743-2.3496 1.0275-0.63504 1.8538 1.3497 1.2479 2.9974-0.66973 1.8212-2.1053 1.3795-2.1053-0.6478zm8.9062-5.2176c-2.1429-0.74697-7.8021-0.95156-7.3789-0.26675 0.25207 0.40786 2.2264 0.70827 4.3874 0.66756s3.5072-0.22107 2.9915-0.4008zm3.3172-6.1266 3.498-3.789-4.6727-2.3678c-2.57-1.3023-4.9037-2.1368-5.186-1.8545-0.28234 0.28234-1.2695 2.7365-2.1937 5.4537l-1.6803 4.9403 2.99 0.57971c1.6445 0.31884 3.1603 0.63525 3.3684 0.70312 0.20812 0.06788 1.9525-1.5816 3.8763-3.6655zm-3.786-0.31914c0-0.77344 0.42187-1.667 0.9375-1.9857 0.51562-0.31867 0.9375 0.05341 0.9375 0.82684 0 0.77344-0.42188 1.667-0.9375 1.9857-0.51563 0.31867-0.9375-0.05341-0.9375-0.82684zm-3.5742-1.5755c0.22558-0.67676 0.96386-1.415 1.6406-1.6406 0.70312-0.23438 1.0547 0.11719 0.82031 0.82031-0.22559 0.67676-0.96387 1.415-1.6406 1.6406-0.70312 0.23438-1.0547-0.11719-0.82031-0.82031zm42.949-1.7652c0-1.0565-1.0678-2.3384-2.5381-3.0469-5.8443-2.8162-6.4083-21.876-0.79086-26.725 2.8165-2.4313 3.079-4.0293 0.66175-4.0293-2.8171 0-4.6087 2.8995-5.7696 9.3374-1.5792 8.7578 0.98198 23.253 4.4676 25.283 2.5273 1.4725 3.9693 1.1748 3.9693-0.8197zm-29.068-3.5668c-8e-3 -0.99738-5.4726-3.9844-7.2888-3.9844-1.9059 0-0.70602 1.2549 3.076 3.2169 3.1201 1.6186 4.2217 1.8193 4.2128 0.76748zm8.437-1.8618c2.066-0.89507 3.7552-1.8443 3.7537-2.1094-1e-3 -0.26508-1.2659-1.3257-2.8098-2.357-3.5921-2.3993-3.5921-3.6715 0-2.9531 1.6744 0.33487 2.8125 0.17021 2.8125-0.40689 0-0.53316-0.38585-0.73093-0.85743-0.43947s-1.0272 0.0207-1.2346-0.60168c-0.36642-1.0993-5.3332 0.56393-9.1579 3.0667-0.77344 0.5061-2.1445 1.1681-3.0469 1.4711-0.90234 0.30298-1.6406 0.93438-1.6406 1.4031s1.304 0.17792 2.8978-0.64625c2.6839-1.3879 3.0302-1.3786 4.6932 0.12643 0.98753 0.8937 2.014 1.4064 2.2812 1.1393 0.26711-0.26711-0.15735-1.0193-0.94325-1.6715-2.6884-2.2312-1.4343-2.9782 1.3317-0.79323 2.586 2.0427 4.0368 4.4222 1.8858 3.0928-0.53822-0.33263-1.5416-0.13752-2.2297 0.43357-0.89114 0.73958-1.9958 0.75526-3.839 0.05448-3.0798-1.1709-3.9328-0.65829-2.188 1.315 1.6661 1.8843 3.7271 1.8535 8.2913-0.12382zm-24.597-3.2067c0.59627-0.59627 3.3174-1.1686 6.0469-1.2718 5.1279-0.19394 10.119-1.9443 10.119-3.5486 0-0.55644-1.9808-0.68328-5.0455-0.3231-5.427 0.63783-7.9178-0.711-6.7814-3.6723 0.40677-1.06 0.10078-1.3947-1.067-1.1667-1.1445 0.22337-1.6836 1.3021-1.7909 3.5837-0.0845 1.7953-0.18996 3.6322-0.23437 4.0821-0.20565 2.0827-2.8933-1.8317-2.8933-4.214 0-2.2423-0.3901-2.6977-2.3108-2.6977-2.3789 0-4.2517 2.3149-4.2517 5.2552 0 3.8691 5.6019 6.5804 8.2091 3.9732zm31.635 0.14663c0.31868-0.51562 0.13264-0.9375-0.41342-0.9375s-0.99283 0.42188-0.99283 0.9375 0.18604 0.9375 0.41342 0.9375 0.67415-0.42188 0.99283-0.9375zm22.969-1.8223c5.4141-0.48577 14.273-1.1249 19.688-1.4202 5.4141-0.29534 14.484-0.94969 20.156-1.4541 5.6719-0.50441 18.961-1.545 29.531-2.3125 39.497-2.8677 67.761-5.8163 71.66-7.4756l2.8717-1.2221-2.8125-1.1623c-2.1688-0.8963-10.43-1.003-36.094-0.466-18.305 0.38299-35.602 0.79707-38.438 0.92019-2.8359 0.12312-18.234 0.50476-34.219 0.84809-34.857 0.74868-44.747 1.335-43.961 2.6062 0.33751 0.54609 2.7686 0.71382 5.8625 0.40447 2.9073-0.29068 27.012-0.75648 53.567-1.0351s51.295-0.74139 54.979-1.0283c11.25-0.8763 8.863 1.1672-2.7265 2.3346-13.429 1.3527-62.505 5.3244-89.284 7.2257-22.198 1.5761-23.39 1.7444-22.504 3.1778 0.70422 1.1394-0.26078 1.1346 11.723 0.05934zm-20.625-1.9277c0-0.51562-0.44678-0.9375-0.99283-0.9375-0.54606 0-0.7321 0.42188-0.41342 0.9375s0.76545 0.9375 0.99283 0.9375 0.41342-0.42188 0.41342-0.9375zm41.719-4.165c9.7969-0.72952 23.198-1.6185 29.781-1.9756 6.5824-0.35705 12.143-0.93158 12.356-1.2767 0.41517-0.67176-9.461-0.57627-49.871 0.4822l-25.547 0.66916v4.6688l7.7344-0.62074c4.2539-0.3414 15.75-1.2176 25.547-1.9471zm-66.663-1.068c0.31298-0.81561 0.55563-2.1867 0.53924-3.0469-0.0257-1.3491-0.21891-1.314-1.4062 0.25586-1.5366 2.0316-1.8196 4.2739-0.53924 4.2739 0.46046 0 1.0933-0.66732 1.4062-1.4829zm5.8851-2.9736c0.8267-1.9786 1.0343-3.6306 0.52085-4.144-1.2607-1.2607-3.0251 1.3161-3.6848 5.3815-0.71256 4.3909 1.1101 3.6781 3.164-1.2374zm5.6381-1.3866c1.1258-3.2138 1.8539-6.0363 1.6179-6.2723-1.0034-1.0034-3.377 2.7796-4.5617 7.2704-1.873 7.1004 0.37353 6.3387 2.9438-0.99808zm13.421 1.1004c0-3.8241-0.6926-4.5021-2.625-2.5697-1.4797 1.4797-1.4471 6.1032 0.0469 6.6391 1.9836 0.71154 2.5781-0.2269 2.5781-4.0694zm-6.5625 2.8678c0-0.51562-0.18604-0.9375-0.41342-0.9375s-0.67415 0.42188-0.99283 0.9375-0.13264 0.9375 0.41342 0.9375c0.54605 0 0.99283-0.42188 0.99283-0.9375zm1.875-7.6178c0-1.4445-3.409-0.87607-4.9238 0.82096-1.3336 1.4941-2.0261 3.9826-1.7466 6.277 0.12831 1.0535 6.6704-5.9079 6.6704-7.0979z"/> </svg>