<?xml version="1.0" encoding="utf-8"?>

<!DOCTYPE svg PUBLIC "-//W3C//DTD SVG 1.1//EN" "http://www.w3.org/Graphics/SVG/1.1/DTD/svg11.dtd">
<svg version="1.1" id="Layer_1" xmlns="http://www.w3.org/2000/svg" xmlns:xlink="http://www.w3.org/1999/xlink" x="0px" y="0px"
	 viewBox="0 0 1280.259 1631.868" enable-background="new 0 0 1280.259 1631.868" xml:space="preserve">
<g>
	<path d="M1246.245,866.426c4.326-12.288-8.126-17.815-6.74-32.521c1.329-14.096-16.58-37.686-18.249-40.625
		c-19.417-34.206-23.484-29.002-28.291-35.738c-41.063-57.539-80.015-38.279-111.947-65.767
		c-125.46-108-12.166-103.948-58.283-159.401c-1.152-1.385-3.09-2.773-1.262-4.414c4.107-3.688,7.344-8.65,13.374-9.768
		c14.092-2.612,14.544-6.724,34.89,4.159c9.662,5.168,12.556,52.036,55.66,58.654c28.587,4.389,38.544-8.46,42.843-12.927
		c13.61-14.14,3.445-25.746,12.013-29.073c29.582-11.485,40.044-53.271,30.079-53.877c-8.745-0.532-1.265,11.885-13.826,19.678
		c-12.93,8.023-30.157,2.532-34.513-2.114c-12.877-13.733-18.76-35.175-28.849-41.005c-37.137-21.46-70.903-21.651-97.907,11.461
		c-24.128,29.584-53.931,33.03-56.818,108.552c-1.344,35.17,3.411,73.346,3.411,73.346c10.848,44.606,56.553,84.814,84.621,89.317
		c48.172,7.73,52.305,7.428,60.463,13.788c17.778,13.861,39.566,19.117,58.861,55.556c36.523,68.978,18.658,140.786-73.05,138.922
		c0,0-71.097-59.046-144.989-62.897c-16.63-0.867-20.473-11.467-30.629-19.635c-5.305-4.267-25.517-26.822-25.517-26.822
		c-19.898-15.114-26.318-13.385-35.539-20.577c-52.49-40.942-39.063-10.231-37.834-60.119c0.174-7.071,5.197,1.477,12.58,1.389
		c0.468-0.005,27.464-3.621,27.464-3.621c1.211-0.72,3.283-0.926,3.01-2.75c-0.304-2.031-2.312-1.445-3.674-1.338
		c-10.771,0.844-35.485-28.384-29.86-39.03c3.741-7.08,8.339-20.21,16.173-25.554c2.582-1.761,52.922-40.994,38.731-79.363
		c-0.296-0.799-0.991-1.57-0.051-2.526c3.068,0.062,4.51,3.014,7.034,4.15c17.134,7.71,40.298-2.885,40.781-3.885
		c2.113-4.371,6.232-6.536,9.926-9.202c3.551-2.563,4.556-10.642,1.417-13.927c-0.015,1.921,0.173,3.552-0.674,4.986
		c-2.987,5.057-14.801,14.337-15.457,14.167c-6.169-1.601-13.232,1.038-18.614-4.876c-21.737-23.882-6.047-71.02-6.261-98.805
		c-0.088-11.432-6.698-20.52-10.265-30.696c-8.299-5.274-7.738-12.036-4.473-20.264c2.357-5.94,2.928-12.559,5.383-18.661
		c7.773-19.325-8.234-56.463-8.234-56.463c0.829-1.553,2.341-0.672,3.603-0.702c8.981-0.217,17.999,0.046,25.538-6.409
		c11.302-9.676,14.409-8.464,16.547-24.374c0.403-3-0.74-3.642-3.129-2.387c-14.143,7.433-39.718,5.216-40.452,2.363
		c-8.396-32.645-31.765-54.698-32.162-55.698c-4-10.077-21.27-28.73-41.566-31.449c-1.814-0.243-4.491,1.04-5.259-0.927
		c-0.744-1.906,2.064-2.881,3.16-4.381c8.71-11.928,13.994-0.438,32.21-3.314c29.762-4.699,36.405-26.756,25.903-41.87
		c-3.27-4.705-6.988-1.714-6.384,1.189c2.672,12.852-33.089,12.208-51.372,4.534c-40.499-16.998-57.69-0.38-41.333-19.499
		c7.527-8.797,4.311-13.339,4.394-26.113c0.04-6.151-5.606-3.525-7.502,0.278c-12.437,24.947-55.789-3.738-95.319,19.971
		c-2.524,1.514-4.727,1.549-6.8-0.576c-6.075-6.229-20.608-6.446-27.75-20.802c-2.698-5.42-4.526-4.703-6.322-3.047
		c-10.396,9.585-19.471,22.783-22.17,36.764c-2.153,11.151-4.191,4.862-11.249,4.139c-13.542-1.389-3.93-19.729-27.144-25.499
		c-7.883-1.96-11.004-1.014-11.97-4.327c-3.215-11.031-18.947-10.493-26.404-25.721c-6.72-13.722-20.484-13.27-24.289-20.21
		c-8.285-15.111-28.673-12.719-32.537-27.866c-1.187-4.65-19.573-17.572-23.65-20.307c-3.729-2.501-15.764-18.296-16.462-19.297
		c-4.727-6.77-15.925-5.631-19.337-10.789c-9.932-15.013-13.303-9.182-40.896-28.563c-27.898-19.596-28.491,17.598-8.097,23.899
		c2.845,0.879,4.514,2.356,5.521,5.122c3.401,9.333,9.014,11.22,11.436,15.569c3.956,7.104,9.183,12.994,16.51,16.887
		c10.798,5.737,5.451,12.539,23.831,19.424c1.686,0.632,3.526,1.376,3.915,3.291c1.463,7.194,9.979,10.327,12.785,15.427
		c10.902,19.813,22.505,19.182,27.309,26.186c7.506,10.945,12.005,12.459,23.602,15.674c1.563,0.433,2.64,1.19,3.068,2.819
		c2.663,10.16,9.336,16.449,19.119,19.703c11.693,3.889,5.484,11.368,24.073,23.853c15.97,10.726,6.275,17.348,27.032,25.276
		c4.447,1.698,4.151,12.773,13.58,17.192c2.258,1.058,3.974,3.272,5.937,4.959c-0.108,0.295-0.215,0.59-0.323,0.885
		c-11.278-0.715-34.159-0.095-46.445-21.256c-8.028-13.828-37.986,33.622,16.664,51.657c2.395,0.79,3.319,1.86,2.197,4.572
		c-7.369,17.805-1.986,38.72-16.331,59.637c-0.951,1.387-27.197,35.306-27.197,35.307c-16.083,12.485-12.344,32.34-35.3,44.811
		c-13.653,7.418-20.718,21.296-7.811,30.548c14.642,10.495,4.113,11.998,21.104,17.553c20.378,6.663,26.142-29.474,47.466-28.756
		c8.115,0.273,9.05,1.634,5.153,9.073c-0.524,1-9.147,14.634-18.919,22.066c-8.73,6.64,3.716,8.066,0.685,13.906
		c-2.376,4.578-0.433,9.121,4.678,10.159c13.455,2.732,34.383,8.236,40.023-0.144c5.497-8.167,8.797-17.249,8.409-27.323
		c-0.186-4.815,3.449-7.587,7.4-9.477c4.847-2.319,9.847-4.332,14.558-6.928c4.909-2.706,8.402-6.281,12.568-9.882
		c4.339-3.751,8.963-7.169,13.681-10.425c9.191-6.344,5.386-10.364,12.033-10.762c26.673-1.598,35.339-8.269,34.347-3.189
		c-5.053,25.868,26.322-3.802-87.4,102.375c-41.21,38.475-27.89,47.799-68.121,94.554c-1.819,2.114-31.937,27.879-42.278,46.134
		c-1.423,2.512-2.956,5.177-6.639,5.066c-44.541-1.345-68.248-7.346-101.734-26.903c-31.583-18.446-40.23,2.57-154.881,2.826
		c-86.102,0.192-41.64-26.691-92.239-13.198c-14.382,3.835-49.969,35.413-60.182,41.282c-16.124,9.265-31.579,19.689-47.397,29.494
		c-6.356,3.94-6.91,12.231-0.639,16.509c11.031,7.526,17.205,4.389,13.635,8.36c-1.65,1.835-9.797,17.88,4.141,22.254
		c3.772,1.184,44.71,4.026,81.079-27.432c15.356-13.283,7.79-18.346,19.59-28.374c14.483-12.308,8.897,6.678,33.261-0.528
		c1.901-0.562,19.975-0.372,30.357-11.44c4.278-4.561,8.485-6.215,13.987-5.137c23.323,4.573,80.5-0.934,94.633,17.654
		c11.841,15.574,20.832,0.336,37.117,10.795c1,0.642,33.986,31.607,46.855,36.288c5.904,2.147,31.131,22.125,32.889,22.828
		c11.975,4.784,34.05,20.127,35.05,21.098c2.382,2.312,6.514-2.877,8.106,4.816c2.598,12.552,0.306,28.176,4.741,30.485
		c10.345,5.386-63.821,60.305-77.62,87.656c-4.309,8.541,2.756,9.267-2.898,20.512c-13.689,27.223-4.167-0.602-5.843,148.386
		c-0.597,53.073-15.623,59.427-4.875,82.39c4.938,10.551,6.506,16.502-16.582,67.249c-4.034,8.868-5.82,18.596-10.714,27.108
		c-3.017,5.249-4.423,18.54,1.827,19.352c7.103,0.923,13.961,3.612,21.303,2.898c7.275-0.708,4.845,3.999,15.901,1.872
		c12.238-2.355,13.476,0.592,17.028-4.839c18.092-27.662,44.652-58.234,37.9-72.993c-15.572-34.035-21.915-33.148-21.863-59.98
		c0.014-7.392,0.577-8.358,7.759-9.622c15.48-2.725,2.454-21.569,2.14-36.124c-2.131-98.735,5.822-77.41,6.511-109.432
		c0.778-36.152-0.856-35.36,3.804-39.151c9.971-8.112,4.325-18.499,17.74-17.583c2.093,0.143,43.224-5.068,60.702-11.533
		c22.709-8.401,16.877,2.278,20.276,5.821c22.735,23.697,65.6,43.382,75.469,51.337c19.058,15.363,30.384,13.47,42.159,20.848
		c24.344,15.251,59.497,27.398,87.459,38.3c1.362,0.531,3.763,0.215,3.569,2.514c-0.161,1.901-1.922,2.826-3.657,3.476
		c-51.838,19.432-71.708,16.086-73.695,47.337c-0.576,9.065,0.047,12.257-3.804,12.994c-5.243,1.003-5.843-0.757-8.852-5.427
		c-11.087-17.205-41.312-10.121-45.299,24.953c-1.492,13.118,3.718,37.721,7.051,45.105c17.386,38.51,9.729,16.579,13.454,39.759
		c1.45,9.022-3.712,25.939-16.094,32.174c-8.408,4.235,8.12,11.431,25.637-5.415c28.382-27.294,49.811-38.832,37.889-88.499
		c-0.681-2.84,2.067-3.531,3.165-1.308c3.154,6.382,8.898,4.738,10.926,9.776c3.653,9.075,9.011,9.828,10.628,16.074
		c0.453,1.752,1.179,3.41,2.564,4.586c5.63,4.781,9.136,11.221,13.206,17.163c24.596,35.909,46.286,42.216,67.201,66.865
		c18.513,21.819,11.274,44.624,8.24,50.041c-55.704,99.469-56.441,83.629-89.514,127.563c-22.664,30.107,3.861,29.217-15.452,51.865
		c-15.226,17.857-34.385,58.583-38.296,67.112c-7.381,16.1,18.905,11.566,28.546,18.523c0.214,0.155,0.581,0.173,0.865,0.144
		c13.137-1.316,29.657,10.809,38.441-4.177c7.833-13.361,55.887-61.517,23.441-75.732c-12.309-5.393,0.313-38.922,15.933-35.573
		c24.381,5.227,21.739-20.377,23.894-36.911c3.808-29.213,9.6-32.433,24.609-54.298c36.926-53.794,71.823-57.455,69.236-89.424
		c-1.476-18.231-13.832-12.976-23.464-20.615c-7.072-5.609-23.403-20.974-24.06-34.112c-3.106-62.141-19.564-38.111,22.304-42.388
		c30.603-3.125,31.074-10.298,35.346-3.837c11.003,16.64,11.253,11.548,11.721,16.868c2.607,29.631,10.948,53.108,35.647,70.807
		c9.428,6.756,18.257,17.823,31.806,20.955c20.518,4.743,28.888,6.688,35.653,11.619c14.9,10.861,55.098,21.682,46.585,57.39
		c-2.626,11.011,17.986-0.231,17.319-17.796c-0.397-10.467-26.404-82.219-15.58-70.289c3.489,3.846,8.027,5.492,12.802,7.315
		c67.622,25.812,60.261,22.662,71.369,54.43c0.35,1,43.805,135.669,31.225,149.979c-6.857,7.8-13.633,28.087-17.256,36.729
		c-8.995,21.449-22.628,6.891-28.887,17.202c-28.613,47.133-73.303,74.607-26.399,73.477c7.339-0.176,3.695,6.835,11.812,5.634
		c23.587-3.491,4.018,3.568,31.242-2.585c8.53-1.928,16.212-6.375,24.619-8.708c6.526-1.811,11.947-4.906,14.801-11.475
		c3.709-8.54,3.707,0.575,10.044-16.741c3.363-9.189-5.047-9.675-5.916-19.576c-0.976-11.127,10.109-28.852,21.095-25.692
		c26.633,7.659,31.492-16.201,19.573-41.423c-14.935-31.604-48.273-171.212-30.01-196.324c6.141-8.443,1.091-27.222-21.379-29.348
		c-46.536-4.402-85.169-70.475-82.049-74.739c23.567-32.204,42.52-96.628,31.439-154.788c-0.617-3.237-3.079-6.987-0.374-9.654
		c3.041-2.997,6.879-0.433,10.433,0.457c23.223,5.815,26.124-4.245,43.802-8.535c19.257-4.673,14.653-14.469,28.34-27.3
		c4.129-3.872,10.62-17.385,5.421-22.466c-1.73-1.691-0.672-2.409,0.697-3.362c9.048-6.301,15.678-14.109,16.25-25.801
		c0.021-0.43,5.118-12.528,5.668-22.625c0.223-4.094,0.619-8.293,2.84-11.956C1263.45,882.691,1241.404,880.176,1246.245,866.426z
		 M1012.269,590.682c-2.882-0.03-5.863-13.983-1.681-21.732c7.689-14.251,5.156-21.56,6.096-24.604
		c0.369-1.195,0.187-3.058,1.815-3.182c1.396-0.107,1.381,1.653,1.941,2.638C1032.326,564.701,1015.486,590.716,1012.269,590.682z
		 M1010.358,545.052c0.372,4.794,0.714,9.596-1.194,14.542C1002.541,552.135,1009.763,537.389,1010.358,545.052z M1113.789,458.559
		c34.289,14.841,24.384,33.558,46.294,50.131c12.015,9.089,23.287,9.822,36.231,5.733c3.178-1.004,3.641,1.442,2.183,2.892
		c-9.045,9.002-17.024,19.338-44.76,9.554c-3.735-1.318-18.564-6.685-21.011-10.011c-0.544-0.739-23.264-24.735-24.463-25.414
		c-23.021-13.043-23.444-20.396-58.234-16.747C1036.233,476.143,1071.33,440.183,1113.789,458.559z M980.634,588.005
		c-6.422-63.569,62.455-159.184,144.734-67.507c22.663,25.253,44.251,13.531,38.583,24.253c-0.75,1.419,4.603,30.704-45.074,21.388
		c-3.542-0.664-4.715-1.395-18.89-17.489c-14.748-16.745-11.522-38.968-42.937-41.906c-55.1-5.152-96.958,78.705,6.225,184.825
		c3.28,3.374-0.497,6.637-3.811,4.189c-65.665-48.493-33.857-24.382-62.974-66.832C987.927,616.442,986.46,601.429,980.634,588.005z
		 M982.437,633.49c-0.666-3.551-0.257-7.488,3.231-8.09c7.099-1.224,9.226,33.825,23.168,41.153c3.732,1.962,5.95,6.018,9.119,8.917
		c22.099,20.219,27.537,17.756,37.209,21.69c90.062,36.633,48.496,0.955,121.725,50.945c1.819,1.242,2.999,3.539-0.545,3.43
		c-12.663-2.909-18.924-4.234-24.929-1.886c-1.741,0.681-3.838,0.661-5.686-0.048C1111.981,736.655,1005.819,758.16,982.437,633.49z
		 M849.651,743.415c8.302,10.501,12.64,10.685,10.235,13.771c-8.66,11.114-33.627-14.742-31.783-45.406
		c0.667-11.096,4.917-15.6,12.826-29.051c14.037-23.873,22.63-49.222,18.12-50.859c-4.991-1.812-8.21,13.501-11.904,22.242
		c-40.461,95.735-112.396,63.145-117.863,112.273c-0.897,8.063-10.103-2.86-8.813-17.777c5.162-59.68,79.08-38.829,108.896-102.506
		c5.772-12.327,4.517-21.385,1.047-21.395c-5.672-0.016-0.196,3.771-9.984,23.455c-36.324,73.054-139.274,30.396-149.801,98.545
		c-3.141,20.341-37.825-58.531,66.523-84.525c14.918-3.716,49.713-2.622,90.706-46.189c17.173-18.251,12.235-29.267,19.382-22.965
		c5.254,4.632,6.056,10.527,24.344,18.488c7.67,3.339,16.296-3.962,21.067,5.71C915.43,663.422,810.102,693.395,849.651,743.415z
		 M645.906,680.492c0,0,43.002-2.977,55.833-42.951c4.774-14.872,33.149-39.563,57.534-45.578
		c20.73-5.114,65.14,13.229,71.303-15.567c10.353,8.14,9.408,6.394,6.424,13.134c-9.387,21.206-29.698,36.033-35.883,40.797
		c-47.874,36.878-66.062,10.674-122.876,53.804C664.09,694.874,645.498,682.034,645.906,680.492z M906.007,550.354
		c-4.382,34.486,5.974,46.341,16.499,57.927c-20.781-2.899-29.522-21.677-34.509-41.797c-0.939-3.791-3.89-4.808-4.314,0.53
		c-1.234,15.523,14.857,37.705,5.493,32.296c-26.817-15.492-15.809-83.397-3.813-99.158c7.04-9.249,7.202-31.264,16.556-22.422
		C917.022,492.007,907.047,542.169,906.007,550.354z M867.981,526.954c-4.355,18.106-7.417,56.24,10.527,73.729
		c0.592,0.577,1.492,1.089,0.925,2.839c-27.828-8.549-50.328-42.043-51.31-63.862c-3.232-71.823,55.892-89.786,58.1-115.539
		c0.804-9.37,8.469-21.932,4.366-35.458c-1.537-5.067,4.885-7.289,7.37-2.611C922.959,433.097,878.492,483.258,867.981,526.954z
		 M859.126,384.174c20.455,8.574,23.723,1.427,25.434,8.466c10.753,44.247-41.98,65.29-56.776,101.84
		c-5.728,14.15-17.523-2.43-9.034-36.069c6.216-24.636,29.131-32.648,36.766-61.883
		C857.036,390.705,852.477,381.387,859.126,384.174z M905.568,351.83c7.878,4.276,19.191-0.849,22.737,2.73
		c6.217,6.276-11.724,15.688-19.549,14.673c-50.851-2.628-40.928-29.941-53.809-45.416c-6.149-7.388-6.626,7.116,12.304,35.655
		c6.845,10.32,13.775,9.833,23.018,14.401c4.215,2.083-6.397,8.9-7.621,8.853c-36.068-1.381-63.157-29.309-57.565-65.567
		c3.364-21.813-11.31-20.644-3.902-24.965C876.729,259.794,884.887,340.605,905.568,351.83z M692.79,191.182
		c22.091-17.62,46.004,4.737,87.24-10.953c9.289-3.535-4.509,13.816-6.136,15.501c-2.842,2.945-4.325,11.444-21.327,15.269
		c-18.776,4.224-30.482,24.482-38.285,16.485c-7.374-7.556-17.782-9.542-24.644-15.478c-5.707-4.938-10.791,0.604-12.416-4.69
		C675.448,201.535,680.867,200.691,692.79,191.182z M653.876,244.286c0.033-0.287,0.064-0.656-0.079-0.871
		c-6.6-9.902-2.104-21.671-5.405-32.127c-0.315-1-1.147-7.215,1.401-8.736c2.565-1.531,3.822,1.474,5.318,2.828
		c10.1,9.14,34.51,11.113,51.759,33.478c2.24,2.905,2.507,6.885,0.526,7.413c-10.504,2.802-10.66,7.161-34.331,13.999
		c-5.299,1.531-9.126-2.474-13.69-3.72C660.01,251.358,653.272,249.469,653.876,244.286z M392.476,36.095
		c-7.77-1.334-11.2-1.238-12.961-5.354c-4.928-11.518,18.787,1.014,17.344,4.528C396.267,36.711,394.497,35.878,392.476,36.095z
		 M409.422,43.142c18.043,0.955,20.077,12.08,14.625,15.119C408.638,66.852,377.898,44.804,409.422,43.142z M413.491,67.382
		c5.164-0.073,10.33-0.031,15.495-0.031c0-0.313,0-0.627,0-0.94c8.758,0,22.448-2.124,23.687,10.536
		c0.135,1.383-0.894,1.333-1.688,1.497C419.76,84.878,403.911,67.519,413.491,67.382z M436.731,93.008
		c-2.8-2.229-3.349-4.508,1.357-5.344c44.58-7.924,46.143,12.342,35.52,11.033C459.722,96.988,447.811,101.83,436.731,93.008z
		 M453.642,106.387c0.842-2.243,2.486-1.681,13.847-1.067c22.689-0.367,32.737,12.121,19.266,13.564
		C464.477,121.271,452.602,109.157,453.642,106.387z M472.505,127.231c0.633-2.055,47.521-7.623,46.725,8.864
		c-0.136,2.809-20.708,4.27-21.708,4.335C484.047,141.304,471.701,129.841,472.505,127.231z M499.684,152.541
		c-3.626-1.986-3.569-4.924,0.954-5.479c51.012-6.255,49.365,18.365,23.737,11.08C511.037,154.35,512.812,159.729,499.684,152.541z
		 M546.148,183.404c-7.258-2.524-21.178-5.558-23.82-11.199c-4.886-10.435,0.915-7.622,4.632-7.198
		c21.151,2.409,29.089-4.366,36.062,6.779C567.721,179.296,580.832,176.65,546.148,183.404z M551.52,189.026
		c15.783-0.88,33.356-9.071,43.386,8.093c4.022,6.883,3.079,6.432-1.651,8.095C559.489,217.086,540.03,189.667,551.52,189.026z
		 M576.494,215.648c14.925,1.187,26.221-13.573,42.565,2.457c4.946,4.851,7.8,1.695,7.49,4.968c-0.228,2.395-3.223,2.092-5.62,2.092
		l-0.031-0.225c-6.51,1.123-13.044,2.126-19.525,3.399C574.371,233.641,566.094,214.821,576.494,215.648z M596.839,236.175
		c5.566,0.046,10.93-1.39,15.989-3.25c4.94-1.817,10.22-0.034,14.965-2.348c0.882-0.43,1.398,0.848,1.975,1.476
		c3.159,3.441,5.23-0.384,4.03-2.551c-3.51-6.334,3.414-4.81,1.264-13.131c-6.323-24.469,10.935-52.609,16.519-42.65
		c5.378,9.592,15.163,12.42,18.999,14.378c14.427,7.365,3.746,19.593-2.724,17.132c-15.748-5.988-17.446-18.521-22.501-7.849
		c-7.878,16.63,4.54,46.848,3.594,49.724c-2.018,6.141,3.501,16.876,9.813,18.578c17.527,4.727,33.827-9.831,51.491-15.193
		c19.029-5.777,39.044,6.547,27.543,8.829c-8.424,1.671-16.332,5.458-22.834,10.328c-61.2,45.847-93.167,3.37-79.613-12.018
		c5.363-6.089,8.789-7.152,7.931-9.017c-0.893-1.942-3.806-0.401-5.043,0.471c-8.615,6.073-17.944,6.883-27.97,4.327
		C601.557,251.191,585.134,236.077,596.839,236.175z M568.757,279.707c-12.589-3.725-10.442-9.832-18.391-15.719
		c-3.376-2.501-6.261-16.297-2.379-22.248c5.51-8.446,6.149,12.809,26.702,17.278c13.996,3.044,23.722,4.524,49.672,2.825
		c5.697-0.373,0.92,12.565-6.429,15.287c-4.594,1.701-25.292,8.73-29.082,5.792c-2.833-2.196-5.732-1.965-8.76-0.64
		C576.327,283.928,573.353,281.067,568.757,279.707z M550.214,486.952c-2.364-2.154,0.245-3.44,1.36-4.634
		c6.617-7.082,15.971-18.158,18.245-27.632c1.086-4.523,12.505-13.409,11.927-4.416c-6.374,14.25-6.796,21.358-25.923,36.29
		C553.985,487.996,552.014,488.593,550.214,486.952z M472.917,756.367c1.882,23.176,5.022,22.846,2.478,24.634
		c-4.721,3.32-81.792-52.383-91.741-61.356c-10.859-9.794-28.153-24.322-41.256-20.266c-17.252,5.34-9.56-13.794-36.433-16.839
		c-1.01-0.115-45.961-4.145-52.082-3.986c-20.608,0.534-37.695-10.668-49.447,5.606c-6.757,9.357-25.34,12.698-34.749,3.696
		c-6.252-5.981-16.63-12.483-35.585,10.938c-4.037,4.988-13.186,0.448-8.732,6.87c4.759,6.863,4.019,10.485-2.065,15.962
		c-30.668,27.609-43.318,22.758-66.223,25.503c-9.967,1.195-7.591-10.993-2.511-13.113c8.018-3.347,14.188-9.264,19.98-15.201
		c7.889-8.086,25.098-14.287,21.531-19.969c-4.711-7.504-56.694,35.266-62.379,22.251c-2.656-6.079,4.137-8.716,20.189-18.877
		c88.594-56.081,98.088-70.378,116.641-52.757c16.188,15.376,67.421,9.916,192.824-1.328c2.306-0.207,27.763,11.923,29.388,12.849
		c31.519,17.955,54.31,22.276,89.774,23.604c3.371,0.126,2.331,2.119,1.681,4.019C479.363,702.729,470.041,720.944,472.917,756.367z
		 M898.76,1164.116c4.589,11.361-43.311,15.124-61.244,7.413c-3.019-1.298-14.32-4.412-13.178,1.928
		c2,11.1,16.87,26.909,16.683,61.209c-0.074,13.556,27.385,41.169,42.298,43.258c4.226,0.592,2.828,2.685,2.453,12.296
		c-0.749,19.168-64.708,53.871-87.766,114.98c-7.696,20.395-4.502,30.849-4.838,36.06c-1.832,28.4-21.76-2.183-36.012,25.957
		c-5.88,11.611-13.758,34.493,0.063,39.571c21.436,7.876-24.509,71.214-39.469,68.158c-12.04-2.458-13.46-2.121-13.104-6.941
		c0.45-6.095,18.323-46.649,10.042-47.945c-1.969-0.308-2.111,1.581-2.563,2.978c-3.216,9.934-8.386,18.804-14.525,27.204
		c-7.602,10.402-8.741,18.609-16.134,14.862c-7.66-3.883-2.668-3.446,16.145-43.149c15.891-33.537,29.215-26.203,25.83-59.553
		c-1.327-13.07,14.489-22.776,17.716-34.727c0,0,17.678-3.828,75.918-107.593c5.274-9.397,16.75-24.118,3.957-49.445
		c-6.672-13.208-54.765-56.63-55.765-57.458c-26.534-21.976-59.361-88.673-71.333-74.093c-11.249,13.699,5.539,22.52-1.519,51.848
		c-1.069,4.443-5.987,19.312-11.046,18.367c-2.898-0.541-2.362-18.85-0.558-23.313c2.149-5.318-11.461-49.819-18.766-44.789
		c-2.923,2.013-0.805,2.899,3.397,14.091c10.763,28.666,13.537,58.836-9.473,79.043c-10.548,9.264,13.481-26.818-4.574-50.511
		c-2.167-2.844-1.113-6.361-2.963-9.146c-4.475-6.741-6.627-14.501-8.88-22.103c-15.023-50.696,20.496-62.222,30.943-44.998
		c4.985,8.218,6.661,8.841,15.671,5.344c12.294-4.772,3.817-4.839,8.644-28.687c2.575-12.719,11.446-10.779,55.051-25.856
		c36.573-12.645,23.997-15.658,40.596-8.778c24.382,10.106,119.478,34.246,107.59,103.597
		C897.418,1156.874,897.317,1160.543,898.76,1164.116z M1074.301,1332.885c-3.173-2.765-4.596-5.891-6.215-8.819
		c-21.821-39.462-102.405-26.85-136.518-94.257c-2.5-4.94-10.471-23.532-7.156-26.222c1.911-1.551-0.666-1.05,23.264,12.525
		c20.543,11.653,53.625-4.453,68.341-6.296c7.654-0.958,28.638,6.829,25.729,13.912c-0.997,2.429-3.954,2.08-5.951,1.58
		c-12.918-3.237-32.712,9.275-22.672,11.07c37.422,6.689,59.607,62.197,43.102,53.777c-47.429-24.194-46.131-21.885-60.396-31.372
		c-6.029-4.009-6.166,2.059,4.569,9.302c7.22,4.872,54.087,30.97,55.088,31.544
		C1068.572,1307.143,1075.827,1324.99,1074.301,1332.885z M1225.085,909.292c-4.187,0.058-6.32,7.434,0.939,5.563
		c25.591-6.595,12.704,22.972-11.638,23.056c-4.506,0.016-8.888-0.1-8.34,4.474c0.856,7.146,10.748,1.432,18.339,1.797
		c5.423,0.261,7.735,2.722,2.68,8.061c-8.698,9.189-20.482,8.039-32.344,9.035c-15.435,1.291-0.212,12.91,21.337,6.754
		c12.514-3.575,2.678,14.911-0.221,16.497c-15.782,8.634-26.144,1.387-30.271,0.711c-5.523-0.905-6.848-5.558-8.924-9.522
		c-0.645-1.232,1.036-4.208-2.358-3.162c-7.608,2.345-4.436,8.204,1.062,13.526c10.162,9.837,18.881,9.424,26.51,10.684
		c8.462,1.398,0.495,10.971-7.781,11.063c-16.85,0.188-20.11-4.417-32.411-13.864c-5.755-4.419-6.216-13.338-14.436-10.508
		c-2.768,0.953-2.374,3.497-0.406,4.051c8.322,2.343,4.506,8.046,16.799,17.444c18.262,13.961-1.11,20.247-19.914,3.897
		c-5.157-4.484-4.047-9.988-14.518-18.752c-3.892-3.257-7.733-0.159-3.543,3.676c3.243,2.968,5.562,6.33,5.881,10.998
		c0.219,3.203,3.471,4.613,5.278,6.894c3.195,4.034,0.533,5.641-2.902,4.095c-4.457-2.005-5.217-5.728-13.87-5.087
		c-8.167,0.605-3.865,5.989,2.461,18.89c9.085,18.525,11.615,66.437,1.162,100.586c-21.598,70.556-52.193,45.749,4.391,109.586
		c26.84,30.28,45.67,30.924,60.157,34.299c6.899,1.607,18.825,7.407,14.14,13.551c-11.286,14.802-8.588,31.4-6.064,47.796
		c17.245,112.035,29.225,141.563,28.928,140.364c7.01,28.293,10.795,18.995,11.337,38.342c0.223,7.985-10.744,7.808-13.509,6.34
		c-7.134-3.789-12.824-1.581-18.31,6.038c-31.877,44.27,2.75,43.226-15.063,58.871c-10.124,8.891-25.048,17.879-55.009,23.602
		c-20.768,3.967,18.593-41.062,12.548-45.193c-4.04-2.761-11.038,0.113-7.781,2.857c2.227,1.877,1.47,3.636-0.023,5.337
		c-6.887,7.845-10.51,17.766-16.708,26.081c-6.634,8.9-22.978,6.017-18.876-1.917c6.954-13.451,22.557-30.705,33.151-49.326
		c10.495-18.449,21.294-2.317,28.319-11.503c11.008-14.395,14.756-36.326,26.343-49.854c7.998-9.338,3.646-33.758-0.217-47.668
		c-54.557-196.468-32.965-123.613-114.482-171.148c-21.599-12.595-13.906-12.575-22.594-15.297
		c-8.724-2.734-28.016-22.662-15.76-16.75c7.177,3.462,9.507,6.764,12.805,0.242c9.261-18.311-29.138-43.436-62.424-26.129
		c-42.427,22.06-90.339-33.583-85.322-56.8c10.388-48.071-47.563-91.428-80.519-96.834c-49.816-8.172-190.799-83.202-233.734-107.07
		c-8.036-4.468-6.614-9.168-27.165-20.16c-2.333-1.248-9.55-9.108-3.77-11.478c11.263-4.618,78.314-24.576,85.137-41.352
		c4.854-11.937,14.555-10.511,31.704-18.689c11.672-5.566,18.043-0.157,25.093-9.884c2.19-3.021-0.899-5.374-2.152-4.428
		c-7.745,5.846-18.249,2.869-26.171,8.403c-6.294,4.397-25.209,13.216-21.92,0.92c4.456-16.66,1.563-12.924,4.335-16.006
		c2.488-2.766,4.095-8.711,0.754-9.981c-4.468-1.698-3.03,2.008-11.333,25.679c-10.926,31.149-46.24,44.043-81.512,53.002
		c-9.435,2.396-92.149,35.066-86.118,16.812c0.531-1.608-1.08-3.116-2.671-2.611c-10.268,3.26-6.826,3.175-13.513,17.924
		c-6.398,14.11-17.336,12.049-20.332,12.933c-2.716,0.802-3.588,5.232-0.088,5.751c17.907,2.657-12.042,46.592,0.805,152.725
		c2.73,22.557,2.672,22.015-1.465,23.042c-12.19,3.025-10.224,6.712-8.255,30.362c3.047,36.582,23.834,27.206,13.101,60.327
		c-7.245,22.355-22.012,43.613-29.675,52.008c-9.323,10.215-21.882-0.202-24.36-1.019c2.935-1.445,3.354-2.974,3.482-5.569
		c0.59-11.953,6.777-12.391,7.715-19.918c0.654-5.247-2.712-5.218-4.692-1.618c-14.972,27.221-13.583,31.271-20.794,28.629
		c-9.092-3.331,27.768-86.196,27.423-85.196c8.784-25.465-12.218-21.192-5.291-50.263c14.855-62.346,6.131-109.828,6.703-137.018
		c0.103-4.904-2.021-11.618,0.027-17.463c3.23-9.216-5.093-21.886,3.944-36.235c0.954-1.515,10.076-16.914,8.838-23.715
		c-5.621-30.88,126.276-97.148,110.797-178.901c-0.979-5.172-6.32-5.652-5.877,0.721c3.42,49.227-36.61,90.88-33.496,73.741
		c3.844-21.153-21.863-69.54,2.231-127.131c22.907-54.755,54.635-46.474,93.386-129.323c8.731-18.667,62.027-62.293,61.026-61.408
		c37.637-33.279,48.932-49.917,48.932-49.917c6.104-4.507,7.286-8.92,5.007-16.318c-5.81-18.865,18.339-15.967,33.608-43.882
		c8.442-15.433,14.211-21.339,13.094-28.882c-1.026-6.929-9.838-7.104-9.721-0.981c0.176,9.203-5.665,14.658-21.625,35.267
		c-32.141,41.5-86.481,14.637-72.015,29.212c4.739,4.775,5.22,2.421-19.415,25.182c-16.845,15.563-39.991,9.621-35.912,28.89
		c2.205,10.414-7.851,22.145-14.315,20.429c-14.743-3.916-15.511-0.754-16.873-3.8c-1.153-2.578,12.031-12.957,13.031-13.599
		c16.307-10.455,14.373-32.059,24.076-48.057c1.558-2.569-1.403-5.421-4.324-2.231c-22.935,25.048-31.232-2.515-66.026,38.099
		c-6.505,7.593-15.741,3.907-18.962-2.01c-2.762-5.075-6.663-8.978-10.654-12.928c-8.182-8.099,4.869-18.757,10.973-21.738
		c15.596-7.616,13.121-19.157,33.386-45.68c25.626-33.539,35.774-33.89,42.499-87.095c1.344-10.633,5.258-12.45,9.589-12.783
		c32.301-2.485,34.078-14.374,39.577-7.119c11.705,15.445,34.672,22.654,61.958,8.616c4.888-2.514,9.153-5.885,13.885-8.538
		c11.182-6.269,1.914,11.028,26.073,30.419c20.577,16.517,41.346,15.183,46.621,30.776c1.781,5.265,2.766,10.703-2.283,15.073
		c-8.514,7.368,19.477,8.453,25.585-8.209c15.375-41.946-23.923-45.16-12.663-37.018c19.902,14.392,0.094,50.041-1.781,36.71
		c-5.035-35.815-71.829-27.008-65.669-75.134c0.89-6.955,11.129-7.644,14.933-9.03c7.703-2.808,13.629,6.545,14.158-3.022
		c0.83-15.013-8.967-10.362-4.223-17.475c5.69-8.531,11.335-9.668,23.849-12.739c33.852-8.306,40.066,7.255,66.953,0.869
		c3.688-0.876,1.709-5.316-3.968-5.058c-8.79,0.399-17.175-1.534-25.776-3.202c-53.281-10.333-67.723,34.183-84.601,12.317
		c-4.1-5.311,25.94-20.719,38.22-23.206c67.545-13.684,59.525,20.618,115.653,8.317c10.471-2.295,0.829,26.889-31.101,16.719
		c-7.917-2.521-15.835,4.371-21.409,10.605c-22.407,25.06-55.966,22.375-62.033,17.016c-3.075-2.716-10.282-2.515-7.037,1.624
		c9.309,11.878,45.076,6.185,52.745-0.348c6.217-5.296,25.316-2.467,32.975,1.212c15.074,7.24,12.251,11.356,7.784,11.095
		c-15.131-0.88-27.207,6.734-40.105,13.149c-37.836,18.818-66.664,4.474-73.966-14.708c-0.914-2.401-1.457-6.771-4.923-5.389
		c-13.195,5.263,29.425,56.291,82.44,24.245c5.088-3.076,9.077,5.154,7.734,11.544c-14.741,70.157,48.381,55.96,26.323,99.443
		c-7.772,15.32-33.335,29.026-36.011,63.777c-1.022,13.272-1.214,30.854,11.2,35.953c4.747,1.949-1.434,7.329,0.606,31.461
		c1.129,13.357,8.522,32.29,8.522,32.29c-5.79,4.888-8.685,12.762-17.025,15.147c-16.7,4.776-37.323-7.805-66.563,2.951
		c-47.199,17.363-49.438,50.71-71.861,72.675c-24.634,24.131-55.897-0.091-58.706-7.415c-3.333-8.692-8.601,13.459,17.409,26.316
		c3.402,1.682,5.385,4.996,8.943,6.423c20.776,8.337,27.443,4.516,21.3,12.507c-23.467,30.526-0.623,69.775,31.465,72.926
		c2.464,0.242,4.399-1.681,1.029-3.746c-4.587-2.81-26.738-11.015-13.8-34.039c13.771-24.507,37.714-27.374,55.131-30.879
		c0.046,2.564-1.379,3.258-2.561,4.067c-23.479,16.077-30.334,54.937-9.156,67.41c8.497,5.004,21.161,16.021,30.634,14.351
		c4.766-0.84,3.532-5.248,0.073-5.126c-8.095,0.286-12.785-6.066-18.751-9.786c-2.572-1.604-3.124-4.307-0.565-7.569
		c4.827-6.155-1.046-23.08,54.454-41.034c8.729-2.824,14.827-9.488,22.208-14.252c10.132-6.539,2.817,2.701,13.737,25.78
		c16.354,34.566-22.942,55.27,23.854,77.337c0.526,0.248,1.082,0.588,1.428,1.036c7.941,10.288,20.169,13.915,30.9,19.834
		c46.341,25.56,53.282,59.253,82.324,61.197c4.781,0.32,70.929,12.845,111.202,45.917c18.214,14.957,13.198,14.827,22.194,20.846
		c8.493,5.683,5.681-4.448,16.289-5.375c48.216-4.21,84.511-16.663,91.381-64.597c9.076-63.319-17.437-104.686-69.217-140.46
		c52.318-3.798,93.51,53.748,94.319,84.496c0.249,9.439-14.405,6.883-13.096,13.413c1.114,5.554,15.994-1.32,18.91,4.939
		c6.111,13.118-7.425,18.593-12.191,22.085c-4.437,3.25-3.59,8.55,3.267,5.643c4.234-1.796,10.393-7.327,14.792,2.599
		C1249.618,901.025,1231.829,909.198,1225.085,909.292z"/>
	<path d="M616.773,344.087c-4.568-2.007-0.573-0.591-8.057,9.306c-2.204,2.915-7.883-0.029-9.671-3.169
		c-3.115-5.472-7.358-7.86-13.619-5.825c-0.992,0.322-2.145,0.442-2.745-0.716c-1.526-2.947-0.445-0.197,17.387-18.588
		c1.887-1.946,5.536-2.98,8.769-1.562c2.604,1.142,5.329-0.089,7.88,0.512c6.888,1.623,18.861,11.616,11.031,13.828
		c-5.676,1.604,2.288,3.083,0.087,7.065C625.183,349.737,617.773,344.527,616.773,344.087z M608.906,334.162
		c0,0.064,0,0.128,0,0.192c17.196,0,4.741-7.374-2.675-4.601c-1.686,0.631-4.564,1.621-4.389,3.013
		C602.088,334.735,603.187,334.162,608.906,334.162z"/>
	<path d="M591.185,351.329c4.48,2.395,7.689,3.84,6.717,8.755c-0.747,3.774-1.955,6.714-4.929,9.456
		c-30.793,28.38-29.717,33.366-33.8,29.853c-4.218-3.629,20.177-23.629,24.43-27.311
		C589.658,366.837,594.746,361.209,591.185,351.329z"/>
	<path d="M511.602,448.45c-1-0.32-7.043-3.1-2.757-5.366c8.417-4.449,14.037-10.712,26.227-8.696
		c5.576,0.922,6.522,6.967-0.546,7.482c-22.586,1.644-7.785,5.508-9.896,9.972C522.228,456.921,513.381,449.019,511.602,448.45z"/>
	<path d="M657.648,219.166c0.521,5.971,9.518-3.039,9.118,5.312c-0.278,5.799,1.208,11.418,5.166,16.091
		c4.421,5.22,9.532,2.849,8.371,8.153C675.487,270.712,644.953,221.193,657.648,219.166z"/>
</g>
</svg>
